<?xml version="1.0" encoding="UTF-8" standalone="no"?>
<!-- Created with Inkscape (http://www.inkscape.org/) -->

<svg
   xmlns:dc="http://purl.org/dc/elements/1.1/"
   xmlns:cc="http://creativecommons.org/ns#"
   xmlns:rdf="http://www.w3.org/1999/02/22-rdf-syntax-ns#"
   xmlns:svg="http://www.w3.org/2000/svg"
   xmlns="http://www.w3.org/2000/svg"
   xmlns:sodipodi="http://sodipodi.sourceforge.net/DTD/sodipodi-0.dtd"
   xmlns:inkscape="http://www.inkscape.org/namespaces/inkscape"
   width="69.857903mm"
   height="55.509193mm"
   viewBox="0 0 247.52799 196.68611"
   id="svg8763"
   version="1.1"
   inkscape:version="0.91 r13725"
   sodipodi:docname="award.svg">
  <defs
     id="defs8765" />
  <sodipodi:namedview
     id="base"
     pagecolor="#ffffff"
     bordercolor="#666666"
     borderopacity="1.0"
     inkscape:pageopacity="0.0"
     inkscape:pageshadow="2"
     inkscape:zoom="0.35"
     inkscape:cx="-349.59119"
     inkscape:cy="475.32194"
     inkscape:document-units="px"
     inkscape:current-layer="layer1"
     showgrid="false"
     borderlayer="true"
     fit-margin-top="0"
     fit-margin-left="0"
     fit-margin-right="0"
     fit-margin-bottom="0"
     inkscape:window-width="1600"
     inkscape:window-height="838"
     inkscape:window-x="-8"
     inkscape:window-y="-8"
     inkscape:window-maximized="1" />
  <metadata
     id="metadata8768">
    <rdf:RDF>
      <cc:Work
         rdf:about="">
        <dc:format>image/svg+xml</dc:format>
        <dc:type
           rdf:resource="http://purl.org/dc/dcmitype/StillImage" />
        <dc:title></dc:title>
      </cc:Work>
    </rdf:RDF>
  </metadata>
  <g
     inkscape:label="Layer 1"
     inkscape:groupmode="layer"
     id="layer1"
     transform="translate(-297.4484,-2296.7122)">
    <g
       transform="translate(-2193.6616,-1255.8208)"
       id="g4739">
      <g
         id="g4741">
        <path
           style="fill:#f9c321"
           inkscape:connector-curvature="0"
           d="m 2526.822,3636.854 -0.623,-0.285 c -9.79,-4.461 -16.115,-13.885 -16.115,-24.01 0,-10.244 6.146,-19.432 16.043,-23.977 l 0.6,-0.275 0,45.211 c 0,0.787 0.029,1.568 0.059,2.348 l 0.036,0.988 z m -0.942,-47.219 c -9.24,4.496 -14.95,13.223 -14.95,22.924 0,9.729 5.728,18.461 14.996,22.947 -0.024,-0.66 -0.046,-1.322 -0.046,-1.988 l 0,-43.883 z"
           id="path4743" />
      </g>
    </g>
    <g
       transform="translate(-2193.6616,-1255.8208)"
       id="g4745">
      <g
         id="g4747">
        <path
           style="fill:#f9c321"
           inkscape:connector-curvature="0"
           d="m 2509.513,3612.028 c 0,-10.631 7.416,-19.846 18.172,-24.258 l 0,-17.068 c -20.876,5.287 -36.151,21.807 -36.151,41.326 0,20.533 16.906,37.746 39.45,42.057 -1.858,-5.686 -2.963,-11.633 -3.22,-17.766 -10.798,-4.399 -18.251,-13.633 -18.251,-24.291 z"
           id="path4749" />
      </g>
      <g
         id="g4751">
        <path
           style="fill:#f9c321"
           inkscape:connector-curvature="0"
           d="m 2531.608,3654.635 -0.704,-0.137 c -23.059,-4.406 -39.794,-22.268 -39.794,-42.471 0,-19.135 14.997,-36.297 36.471,-41.736 l 0.526,-0.133 0,17.895 -0.262,0.107 c -11.048,4.531 -17.91,13.678 -17.91,23.867 0,10.223 6.893,19.379 17.987,23.898 l 0.252,0.104 0.011,0.27 c 0.252,5.99 1.329,11.928 3.2,17.654 l 0.223,0.682 z m -4.346,-83.386 c -20.815,5.488 -35.305,22.188 -35.305,40.779 0,19.592 16.108,36.945 38.404,41.502 -1.732,-5.498 -2.744,-11.188 -3.009,-16.922 -11.104,-4.623 -18.263,-14.246 -18.263,-24.58 0,-10.459 6.954,-19.838 18.172,-24.541 l 0,-16.238 z"
           id="path4753" />
      </g>
    </g>
    <g
       transform="translate(-2193.6616,-1255.8208)"
       id="g4755">
      <g
         id="g4757">
        <path
           style="fill:#f9c321"
           inkscape:connector-curvature="0"
           d="m 2720.236,3612.028 c 0,-10.631 -7.417,-19.846 -18.173,-24.258 l 0,-17.068 c 20.876,5.287 36.151,21.807 36.151,41.326 0,20.533 -16.907,37.746 -39.449,42.057 1.857,-5.686 2.962,-11.633 3.216,-17.766 10.799,-4.399 18.255,-13.633 18.255,-24.291 z"
           id="path4759" />
      </g>
      <g
         id="g4761">
        <path
           style="fill:#f9c321"
           inkscape:connector-curvature="0"
           d="m 2698.141,3654.635 0.223,-0.682 c 1.872,-5.732 2.947,-11.672 3.196,-17.652 l 0.011,-0.271 0.252,-0.104 c 10.93,-4.451 17.991,-13.832 17.991,-23.898 0,-10.189 -6.863,-19.334 -17.911,-23.867 l -0.263,-0.107 0,-17.895 0.527,0.133 c 21.474,5.439 36.471,22.602 36.471,41.736 0,20.203 -16.735,38.064 -39.793,42.471 l -0.704,0.136 z m 4.252,-18.027 c -0.261,5.729 -1.271,11.416 -3.005,16.922 22.295,-4.557 38.404,-21.91 38.404,-41.502 0,-18.592 -14.49,-35.291 -35.306,-40.779 l 0,16.238 c 11.218,4.703 18.174,14.084 18.174,24.541 0,10.334 -7.16,19.957 -18.267,24.58 z"
           id="path4763" />
      </g>
    </g>
    <g
       transform="translate(-2193.6616,-1255.8208)"
       id="g4765">
      <g
         id="g4767">
        <path
           style="fill:#f9c321"
           inkscape:connector-curvature="0"
           d="m 2702.449,3552.958 -178.572,0 1.018,80.619 c 0,0.92 0.039,1.832 0.072,2.742 0.237,6.133 1.257,12.08 2.973,17.766 9.694,32.143 41.565,55.799 79.308,55.799 l 13.973,0 c 45.409,0 82.352,-34.23 82.352,-76.307 l -1.124,-80.619 z m -15.469,80.619 c 0,33.215 -29.499,60.236 -65.761,60.236 l -13.973,0 c -28.204,0 -52.314,-16.352 -61.637,-39.248 -2.021,-4.961 -3.336,-10.23 -3.858,-15.709 -0.166,-1.74 -0.269,-3.498 -0.269,-5.279 l 0,-48.408 0,-16.121 0,-0.02 145.497,0 0,64.549 z"
           id="path4769" />
      </g>
      <g
         id="g4771">
        <path
           style="fill:#f9c321"
           inkscape:connector-curvature="0"
           d="m 2621.22,3710.307 -13.973,0 c -36.972,0 -69.75,-23.07 -79.713,-56.102 -1.749,-5.797 -2.755,-11.809 -2.989,-17.871 l -0.012,-0.303 c -0.031,-0.816 -0.062,-1.631 -0.062,-2.455 l -1.022,-81.043 179.418,0 1.128,81.037 c 0,42.315 -37.133,76.737 -82.775,76.737 z m -96.914,-156.926 1.012,80.191 c 0,0.816 0.031,1.621 0.062,2.426 l 0.011,0.305 c 0.231,5.988 1.226,11.928 2.955,17.658 9.854,32.678 42.301,55.5 78.902,55.5 l 13.973,0 c 45.176,0 81.929,-34.041 81.929,-75.885 l -1.116,-80.195 -177.728,0 z m 96.914,140.856 -13.973,0 c -27.479,0 -52.405,-15.879 -62.028,-39.512 -2.061,-5.057 -3.369,-10.385 -3.888,-15.83 -0.183,-1.906 -0.271,-3.646 -0.271,-5.318 l 0,-64.953 0.423,-0.02 145.921,0 0,64.973 c 0,33.449 -29.69,60.66 -66.184,60.66 z m -79.314,-124.785 0,64.125 c 0,1.646 0.087,3.359 0.268,5.238 0.511,5.363 1.799,10.607 3.829,15.592 9.493,23.316 34.105,38.982 61.244,38.982 l 13.973,0 c 36.027,0 65.338,-26.832 65.338,-59.813 l 0,-64.125 -144.652,0 z"
           id="path4773" />
      </g>
    </g>
    <g
       transform="translate(-2193.6616,-1255.8208)"
       id="g4775">
      <g
         id="g4777">
        <rect
           style="fill:#f9c321"
           x="2605.687"
           y="3703.106"
           width="16.076"
           height="32.150002"
           id="rect4779" />
      </g>
    </g>
    <g
       transform="translate(-2193.6616,-1255.8208)"
       id="g4781">
      <g
         id="g4783">
        <rect
           style="fill:#f9c321"
           x="2533.282"
           y="3733.1411"
           width="160.88499"
           height="16.077999"
           id="rect4785" />
      </g>
    </g>
  </g>
</svg>
