<?xml version="1.0" encoding="UTF-8" standalone="no"?>
<!-- Created with Inkscape (http://www.inkscape.org/) -->

<svg
   xmlns:dc="http://purl.org/dc/elements/1.1/"
   xmlns:cc="http://creativecommons.org/ns#"
   xmlns:rdf="http://www.w3.org/1999/02/22-rdf-syntax-ns#"
   xmlns:svg="http://www.w3.org/2000/svg"
   xmlns="http://www.w3.org/2000/svg"
   xmlns:sodipodi="http://sodipodi.sourceforge.net/DTD/sodipodi-0.dtd"
   xmlns:inkscape="http://www.inkscape.org/namespaces/inkscape"
   width="65.228897mm"
   height="42.46513mm"
   viewBox="0 0 231.12601 150.46699"
   id="svg2"
   version="1.1"
   inkscape:version="0.91 r13725"
   sodipodi:docname="bed-shape.svg">
  <defs
     id="defs4" />
  <sodipodi:namedview
     id="base"
     pagecolor="#ffffff"
     bordercolor="#666666"
     borderopacity="1.0"
     inkscape:pageopacity="0.0"
     inkscape:pageshadow="2"
     inkscape:zoom="0.35"
     inkscape:cx="-648.63428"
     inkscape:cy="684.38657"
     inkscape:document-units="px"
     inkscape:current-layer="layer1"
     showgrid="false"
     fit-margin-top="0"
     fit-margin-left="0"
     fit-margin-right="0"
     fit-margin-bottom="0"
     inkscape:window-width="1600"
     inkscape:window-height="838"
     inkscape:window-x="-8"
     inkscape:window-y="-8"
     inkscape:window-maximized="1" />
  <metadata
     id="metadata7">
    <rdf:RDF>
      <cc:Work
         rdf:about="">
        <dc:format>image/svg+xml</dc:format>
        <dc:type
           rdf:resource="http://purl.org/dc/dcmitype/StillImage" />
        <dc:title></dc:title>
      </cc:Work>
    </rdf:RDF>
  </metadata>
  <g
     inkscape:label="Layer 1"
     inkscape:groupmode="layer"
     id="layer1"
     transform="translate(-1023.6343,-1409.1389)">
    <g
       transform="translate(-184.06772,351.26391)"
       id="g93">
      <g
         id="g95">
        <path
           d="m 1241.97,1084.061 c 0,-8.374 5.883,-15.188 13.114,-15.188 l 148.914,0 c 7.231,0 13.114,6.813 13.114,15.188 l 0,30.081 10.999,0 0,-30.081 c 0,-14.439 -10.817,-26.186 -24.113,-26.186 l -148.914,0 c -13.297,0 -24.114,11.746 -24.114,26.186 l 0,30.081 11,0 0,-30.081 z"
           id="path97"
           inkscape:connector-curvature="0"
           style="fill:#f9c321" />
      </g>
    </g>
    <g
       transform="translate(-184.06772,351.26391)"
       id="g99">
      <g
         id="g101">
        <path
           d="M 1207.702,1208.342"
           id="path103"
           inkscape:connector-curvature="0"
           style="fill:#f9c321" />
      </g>
    </g>
    <g
       transform="translate(-184.06772,351.26391)"
       id="g105">
      <g
         id="g107">
        <g
           id="g109">
          <rect
             x="1225.7531"
             y="1179.01"
             width="207.576"
             height="10.999"
             id="rect111"
             style="fill:#f9c321" />
        </g>
      </g>
    </g>
    <g
       transform="translate(-184.06772,351.26391)"
       id="g113">
      <g
         id="g115">
        <path
           d="m 1231.252,1151.371 c 0,-7.232 6.415,-13.115 14.299,-13.115 l 167.98,0 c 7.884,0 14.298,5.883 14.298,13.115 l 0,56.971 10.999,0 0,-56.971 c 0,-13.297 -11.348,-24.115 -25.297,-24.115 l -167.98,0 c -13.949,0 -25.298,10.818 -25.298,24.115 l 0,56.971 10.999,0 0,-56.971 z"
           id="path117"
           inkscape:connector-curvature="0"
           style="fill:#f9c321" />
      </g>
    </g>
    <g
       transform="translate(-184.06772,351.26391)"
       id="g119">
      <g
         id="g121">
        <g
           id="g123">
          <path
             d="m 1310.222,1080.297 -30.459,0 c -8.632,0 -15.653,7.022 -15.653,15.653 l 0,17.979 11,0 0,-17.979 c 0,-2.565 2.087,-4.653 4.653,-4.653 l 30.459,0 c 2.566,0 4.654,2.088 4.654,4.653 l 0,17.979 10.999,0 0,-17.979 c 0,-8.631 -7.021,-15.653 -15.653,-15.653 z"
             id="path125"
             inkscape:connector-curvature="0"
             style="fill:#f9c321" />
        </g>
      </g>
      <g
         id="g127">
        <g
           id="g129">
          <path
             d="m 1348.72,1095.95 c 0,-2.565 2.088,-4.653 4.653,-4.653 l 30.46,0 c 2.566,0 4.653,2.088 4.653,4.653 l 0,17.979 10.999,0 0,-17.979 c 0,-8.631 -7.021,-15.653 -15.652,-15.653 l -30.46,0 c -8.631,0 -15.652,7.022 -15.652,15.653 l 0,17.979 10.999,0 0,-17.979 z"
             id="path131"
             inkscape:connector-curvature="0"
             style="fill:#f9c321" />
        </g>
      </g>
    </g>
  </g>
</svg>
