<?xml version="1.0" encoding="UTF-8" standalone="no"?>
<!-- Created with Inkscape (http://www.inkscape.org/) -->

<svg
   xmlns:dc="http://purl.org/dc/elements/1.1/"
   xmlns:cc="http://creativecommons.org/ns#"
   xmlns:rdf="http://www.w3.org/1999/02/22-rdf-syntax-ns#"
   xmlns:svg="http://www.w3.org/2000/svg"
   xmlns="http://www.w3.org/2000/svg"
   xmlns:sodipodi="http://sodipodi.sourceforge.net/DTD/sodipodi-0.dtd"
   xmlns:inkscape="http://www.inkscape.org/namespaces/inkscape"
   width="210mm"
   height="297mm"
   viewBox="0 0 744.09448819 1052.3622047"
   id="svg8834"
   version="1.1"
   inkscape:version="0.91 r13725">
  <defs
     id="defs8836" />
  <sodipodi:namedview
     id="base"
     pagecolor="#ffffff"
     bordercolor="#666666"
     borderopacity="1.0"
     inkscape:pageopacity="0.0"
     inkscape:pageshadow="2"
     inkscape:zoom="0.35"
     inkscape:cx="375"
     inkscape:cy="520"
     inkscape:document-units="px"
     inkscape:current-layer="layer1"
     showgrid="false"
     inkscape:window-width="1600"
     inkscape:window-height="838"
     inkscape:window-x="-8"
     inkscape:window-y="-8"
     inkscape:window-maximized="1" />
  <metadata
     id="metadata8839">
    <rdf:RDF>
      <cc:Work
         rdf:about="">
        <dc:format>image/svg+xml</dc:format>
        <dc:type
           rdf:resource="http://purl.org/dc/dcmitype/StillImage" />
        <dc:title></dc:title>
      </cc:Work>
    </rdf:RDF>
  </metadata>
  <g
     inkscape:label="Layer 1"
     inkscape:groupmode="layer"
     id="layer1">
    <g
       transform="translate(-910.49229,-1651.6479)"
       id="g501">
      <g
         id="g503">
        <path
           d="m 937.256,1738.707 163.528,0 c -3.137,-2.96 -6.541,-6.338 -8.845,-11 l -145.838,0 c -2.304,4.662 -5.708,8.04 -8.845,11 z"
           id="path505"
           inkscape:connector-curvature="0"
           style="fill:#f9c321" />
      </g>
    </g>
    <g
       transform="translate(-910.49229,-1651.6479)"
       id="g507">
      <g
         id="g509">
        <path
           d="m 947.846,1780.854 c -8.997,0 -19.748,-0.123 -19.855,-0.124 -2.968,-0.034 -5.372,-2.417 -5.435,-5.386 -0.486,-23.252 1.837,-29.738 2.561,-31.172 1.147,-2.274 3.707,-3.463 6.187,-2.87 35.701,8.521 38.261,22.979 37.704,28.8 -0.558,5.828 -4.9,10.396 -10.103,10.623 -1.994,0.086 -5.714,0.129 -11.059,0.129 z m -14.358,-11.071 c 3.929,0.033 9.412,0.07 14.357,0.07 4.696,0 8.059,-0.031 10.014,-0.098 0.158,-0.283 0.324,-0.877 0.102,-1.805 -0.354,-1.469 -3.119,-8.621 -23.744,-14.521 -0.385,3.187 -0.748,8.334 -0.729,16.354 z"
           id="path511"
           inkscape:connector-curvature="0"
           style="fill:#f9c321" />
      </g>
    </g>
    <g
       transform="translate(-910.49229,-1651.6479)"
       id="g513">
      <g
         id="g515">
        <path
           d="m 1090.194,1780.854 c -5.345,0 -9.065,-0.043 -11.057,-0.129 -5.203,-0.228 -9.546,-4.795 -10.104,-10.623 -0.557,-5.82 2.002,-20.279 37.704,-28.8 2.479,-0.593 5.038,0.596 6.187,2.87 0.724,1.434 3.046,7.92 2.56,31.172 -0.062,2.969 -2.467,5.352 -5.435,5.386 -0.107,0 -10.857,0.124 -19.855,0.124 z m -10.013,-11.098 c 1.954,0.066 5.316,0.098 10.014,0.098 4.945,0 10.43,-0.037 14.357,-0.07 0.021,-8.021 -0.343,-13.167 -0.729,-16.354 -20.625,5.9 -23.391,13.053 -23.743,14.521 -0.224,0.928 -0.058,1.522 0.101,1.805 z"
           id="path517"
           inkscape:connector-curvature="0"
           style="fill:#f9c321" />
      </g>
    </g>
    <g
       transform="translate(-910.49229,-1651.6479)"
       id="g519">
      <g
         id="g521">
        <path
           inkscape:connector-curvature="0"
           transform="matrix(0.4927,0.8702,-0.8702,0.4927,2062.8442,-96.7145)"
           style="fill:#f9c321"
           d="m 1123.3779,1720.797 a 9.0109997,11.783 0 0 1 -9.011,11.783 9.0109997,11.783 0 0 1 -9.011,-11.783 9.0109997,11.783 0 0 1 9.011,-11.783 9.0109997,11.783 0 0 1 9.011,11.783 z"
           id="ellipse523" />
      </g>
    </g>
    <g
       transform="translate(-910.49229,-1651.6479)"
       id="g525">
      <g
         id="g527">
        <path
           inkscape:connector-curvature="0"
           transform="matrix(-0.4927,0.8702,-0.8702,-0.4927,2876.2034,1764.8495)"
           style="fill:#f9c321"
           d="m 932.68397,1720.797 a 9.0109997,11.783 0 0 1 -9.011,11.783 9.0109997,11.783 0 0 1 -9.011,-11.783 9.0109997,11.783 0 0 1 9.011,-11.783 9.0109997,11.783 0 0 1 9.011,11.783 z"
           id="ellipse529" />
      </g>
    </g>
    <g
       transform="translate(-910.49229,-1651.6479)"
       id="g531">
      <g
         id="g533">
        <path
           d="m 1084.409,1802.586 c -0.481,0 -0.949,0.059 -1.4,0.16 1.826,-0.01 3.608,-0.029 5.32,-0.076 -0.321,-0.048 -0.647,-0.084 -0.981,-0.084 l -2.939,0 z"
           id="path535"
           inkscape:connector-curvature="0"
           style="fill:#f9c321" />
      </g>
    </g>
    <g
       transform="translate(-910.49229,-1651.6479)"
       id="g537">
      <g
         id="g539">
        <path
           d="m 950.693,1802.586 c -0.335,0 -0.661,0.036 -0.981,0.084 1.711,0.047 3.493,0.066 5.319,0.076 -0.451,-0.102 -0.919,-0.16 -1.4,-0.16 l -2.938,0 z"
           id="path541"
           inkscape:connector-curvature="0"
           style="fill:#f9c321" />
      </g>
    </g>
    <g
       transform="translate(-910.49229,-1651.6479)"
       id="g543">
      <g
         id="g545">
        <path
           d="m 1093.748,1821.91 0,9.39 c 0,3.53 -2.872,6.4 -6.4,6.4 l -2.938,0 c -3.528,0 -6.4,-2.87 -6.4,-6.4 l 0,-9.092 -3.625,-0.01 c -1.867,-0.01 -3.78,-0.01 -5.719,-0.01 l -1.649,10e-4 c 0,0 0,0 -0.01,0 l 0,9.109 c 0,9.595 7.806,17.399 17.399,17.399 l 2.938,0 c 9.594,0 17.399,-7.805 17.399,-17.399 l 0,-10.882 c -2.943,0.723 -6.322,1.193 -10.453,1.459 -0.181,0.014 -0.363,0.024 -0.546,0.034 z"
           id="path547"
           inkscape:connector-curvature="0"
           style="fill:#f9c321" />
      </g>
    </g>
    <g
       transform="translate(-910.49229,-1651.6479)"
       id="g549">
      <g
         id="g551">
        <path
           d="m 969.375,1822.189 c -1.938,0 -3.851,0 -5.721,0.01 l -3.623,0.01 0,9.092 c 0,3.53 -2.871,6.4 -6.4,6.4 l -2.938,0 c -3.529,0 -6.4,-2.87 -6.4,-6.4 l 0,-9.378 c -0.194,-0.014 -0.394,-0.02 -0.586,-0.032 -4.052,-0.28 -7.431,-0.774 -10.413,-1.525 l 0,10.935 c 0,9.595 7.806,17.399 17.399,17.399 l 2.938,0 c 9.595,0 17.399,-7.805 17.399,-17.399 l 0,-9.109 c -0.002,0 -0.004,0 -0.006,0 l -1.649,0 z"
           id="path553"
           inkscape:connector-curvature="0"
           style="fill:#f9c321" />
      </g>
    </g>
    <g
       transform="translate(-910.49229,-1651.6479)"
       id="g555">
      <g
         id="g557">
        <path
           d="m 1045.25,1771.705 -52.459,0 c -8.164,0 -14.807,6.641 -14.807,14.805 l 0,7.772 c 0.009,0 0.017,0 0.025,0 2.785,0.011 10.524,0.044 10.974,0.046 l 0,-7.818 c 0,-2.098 1.708,-3.806 3.808,-3.806 l 52.459,0 c 2.099,0 3.807,1.708 3.807,3.806 l 0,7.818 c 0.393,0 8.178,-0.035 10.97,-0.046 0.011,0 0.021,0 0.029,0 l 0,-7.772 c 0,-8.164 -6.642,-14.805 -14.806,-14.805 z"
           id="path559"
           inkscape:connector-curvature="0"
           style="fill:#f9c321" />
      </g>
    </g>
    <g
       transform="translate(-910.49229,-1651.6479)"
       id="g561">
      <g
         id="g563">
        <path
           d="m 1003.791,1677.25 c 0,-4.838 3.605,-8.776 8.037,-8.776 l 14.384,0 c 4.433,0 8.038,3.938 8.038,8.776 l 0,4.344 11,0 0,-4.344 c 0,-11.462 -8.54,-20.787 -19.038,-20.787 l -14.384,0 c -10.497,0 -19.037,9.325 -19.037,20.787 l 0,4.344 11,0 0,-4.344 z"
           id="path565"
           inkscape:connector-curvature="0"
           style="fill:#f9c321" />
      </g>
    </g>
    <g
       transform="translate(-910.49229,-1651.6479)"
       id="g567">
      <g
         id="g569">
        <path
           d="m 1115.476,1757.315 c -0.01,-8.421 -2.499,-14.175 -5.647,-18.608 -1.979,-2.791 -4.216,-5.057 -6.264,-7.125 -1.321,-1.336 -2.552,-2.587 -3.646,-3.875 -1.253,-1.477 -2.322,-3.004 -3.108,-4.771 -17.861,-40.189 -29.071,-43.459 -40.858,-43.459 l -10.702,0 -11,0 -30.459,0 -11,0 -9.307,10e-4 -1.396,0 c -11.787,0 -22.996,3.27 -40.858,43.459 -0.785,1.768 -1.855,3.295 -3.108,4.771 -1.093,1.288 -2.324,2.539 -3.646,3.875 -2.047,2.068 -4.284,4.334 -6.264,7.125 -3.147,4.434 -5.641,10.188 -5.647,18.608 -0.01,11.847 -0.01,33.006 -0.01,39.351 0,8.477 4.241,12.744 10.739,14.896 3.197,1.06 6.943,1.605 10.999,1.889 4.317,0.299 8.983,0.301 13.722,0.301 0.656,0 1.337,0 2.017,0 1.167,0 2.354,-0.01 3.591,-0.011 2.411,-0.01 4.894,-0.012 7.408,-0.01 2.297,0 4.623,0.01 6.954,0.015 2.845,0.01 5.697,0.021 8.514,0.033 0.835,0 1.658,0.01 2.485,0.011 4.509,0.021 8.893,0.038 12.949,0.038 7.941,0 13.384,-0.068 17.088,-0.211 3.704,0.143 9.146,0.211 17.087,0.211 4.057,0 8.441,-0.018 12.949,-0.038 0.827,0 1.651,-0.01 2.485,-0.011 2.817,-0.012 5.669,-0.023 8.514,-0.033 2.331,-0.01 4.658,-0.013 6.954,-0.015 2.515,0 4.998,0 7.408,0.01 1.235,0.01 2.425,0.01 3.591,0.011 0.681,10e-4 1.361,0 2.018,0 10e-4,0 0,0 0,0 5.43,0 9.92,-0.07 13.72,-0.318 4.421,-0.285 7.905,-0.807 10.801,-1.736 0.068,-0.023 0.131,-0.049 0.198,-0.071 7.122,-2.358 10.739,-7.388 10.739,-14.96 0,-6.346 0,-27.505 -0.012,-39.352 z m -12.857,43.343 c -0.396,0.201 -0.866,0.383 -1.433,0.564 -2.94,0.945 -7.548,1.309 -12.857,1.447 -1.712,0.047 -3.494,0.066 -5.32,0.076 -0.982,0.01 -1.977,0.01 -2.979,0.01 -10e-4,0 0,0 0,0 -1.768,0 -3.624,-0.01 -5.564,-0.013 -2.046,-0.01 -4.145,-0.013 -6.269,-0.011 -2.68,0 -5.405,0.01 -8.138,0.016 -2.861,0.01 -5.729,0.021 -8.563,0.035 -0.818,0 -1.626,0.01 -2.437,0.01 -4.508,0.021 -8.894,0.035 -12.949,0.035 -7.949,0 -13.309,-0.065 -16.864,-0.211 -0.074,0 -0.148,0 -0.223,0 -0.075,0 -0.149,0 -0.224,0 -3.556,0.146 -8.914,0.211 -16.864,0.211 -4.056,0 -8.44,-0.014 -12.949,-0.035 -0.811,0 -1.618,-0.01 -2.437,-0.01 -2.832,-0.014 -5.701,-0.025 -8.563,-0.035 -2.732,-0.01 -5.458,-0.016 -8.137,-0.016 -2.125,0 -4.223,0 -6.269,0.011 -1.943,0.01 -3.796,0.013 -5.564,0.013 -1.004,0 -1.999,0 -2.983,-0.01 -1.826,-0.01 -3.608,-0.029 -5.319,-0.076 -5.31,-0.138 -9.915,-0.502 -12.857,-1.447 -0.566,-0.182 -1.036,-0.365 -1.433,-0.564 -1.479,-0.746 -1.868,-1.749 -1.868,-3.992 0,-6.342 0,-27.498 0.011,-39.342 0.008,-9.197 3.855,-13.084 8.728,-18.004 0.199,-0.2 0.403,-0.408 0.605,-0.613 2.919,-2.96 6.089,-6.338 8.233,-11 0.048,-0.104 0.104,-0.2 0.15,-0.306 16.412,-36.925 24.731,-36.925 30.807,-36.925 l 10.703,0 11,0 30.459,0 11,0 9.307,0 1.396,0 c 6.075,0 14.396,0 30.808,36.925 0.046,0.105 0.102,0.202 0.149,0.306 2.145,4.662 5.314,8.04 8.234,11 0.201,0.205 0.405,0.413 0.604,0.613 4.872,4.92 8.721,8.807 8.729,18.004 0.01,11.844 0.01,33 0.01,39.342 0,2.244 -0.387,3.246 -1.866,3.992 z"
           id="path571"
           inkscape:connector-curvature="0"
           style="fill:#f9c321" />
      </g>
    </g>
  </g>
</svg>
