<?xml version="1.0" encoding="UTF-8" standalone="no"?>
<!-- Created with Inkscape (http://www.inkscape.org/) -->

<svg
   xmlns:dc="http://purl.org/dc/elements/1.1/"
   xmlns:cc="http://creativecommons.org/ns#"
   xmlns:rdf="http://www.w3.org/1999/02/22-rdf-syntax-ns#"
   xmlns:svg="http://www.w3.org/2000/svg"
   xmlns="http://www.w3.org/2000/svg"
   xmlns:sodipodi="http://sodipodi.sourceforge.net/DTD/sodipodi-0.dtd"
   xmlns:inkscape="http://www.inkscape.org/namespaces/inkscape"
   width="89.784203mm"
   height="89.784485mm"
   viewBox="0 0 318.133 318.13399"
   id="svg8763"
   version="1.1"
   inkscape:version="0.91 r13725"
   sodipodi:docname="cock.svg">
  <defs
     id="defs8765" />
  <sodipodi:namedview
     id="base"
     pagecolor="#ffffff"
     bordercolor="#666666"
     borderopacity="1.0"
     inkscape:pageopacity="0.0"
     inkscape:pageshadow="2"
     inkscape:zoom="0.35"
     inkscape:cx="356.24044"
     inkscape:cy="645.18332"
     inkscape:document-units="px"
     inkscape:current-layer="layer1"
     showgrid="false"
     borderlayer="true"
     fit-margin-top="0"
     fit-margin-left="0"
     fit-margin-right="0"
     fit-margin-bottom="0"
     inkscape:window-width="1600"
     inkscape:window-height="838"
     inkscape:window-x="-8"
     inkscape:window-y="-8"
     inkscape:window-maximized="1" />
  <metadata
     id="metadata8768">
    <rdf:RDF>
      <cc:Work
         rdf:about="">
        <dc:format>image/svg+xml</dc:format>
        <dc:type
           rdf:resource="http://purl.org/dc/dcmitype/StillImage" />
        <dc:title></dc:title>
      </cc:Work>
    </rdf:RDF>
  </metadata>
  <g
     inkscape:label="Layer 1"
     inkscape:groupmode="layer"
     id="layer1"
     transform="translate(408.3833,-859.41152)">
    <g
       transform="translate(-2002.4423,-171.74048)"
       id="g3341">
      <g
         id="g3343">
        <path
           style="fill:#f9c321"
           inkscape:connector-curvature="0"
           d="m 1753.126,1031.152 c -87.71,0 -159.067,71.357 -159.067,159.068 0,87.71 71.357,159.066 159.067,159.066 87.71,0 159.066,-71.356 159.066,-159.066 0,-87.71 -71.356,-159.068 -159.066,-159.068 z m 0,296.983 c -76.168,0 -137.915,-61.746 -137.915,-137.914 0,-76.17 61.747,-137.915 137.915,-137.915 76.168,0 137.914,61.745 137.914,137.915 0,76.168 -61.746,137.914 -137.914,137.914 z"
           id="path3345" />
      </g>
    </g>
    <g
       transform="translate(-2002.4423,-171.74048)"
       id="g3347">
      <g
         id="g3349">
        <path
           style="fill:#f9c321"
           inkscape:connector-curvature="0"
           d="m 1841.457,1178.798 -76.485,0 0,-76.484 c 0,-6.123 -5.304,-11.088 -11.846,-11.088 -6.542,0 -11.846,4.965 -11.846,11.088 l 0,89.089 c 0,2.927 1.222,5.582 3.202,7.564 0.052,0.055 0.105,0.107 0.158,0.162 0.055,0.051 0.107,0.107 0.163,0.158 1.981,1.98 4.636,3.2 7.563,3.2 l 89.09,0 c 6.122,0 11.086,-5.302 11.086,-11.845 10e-4,-6.54 -4.963,-11.844 -11.085,-11.844 z"
           id="path3351" />
      </g>
    </g>
  </g>
</svg>
