<?xml version="1.0" encoding="UTF-8" standalone="no"?>
<!-- Created with Inkscape (http://www.inkscape.org/) -->

<svg
   xmlns:dc="http://purl.org/dc/elements/1.1/"
   xmlns:cc="http://creativecommons.org/ns#"
   xmlns:rdf="http://www.w3.org/1999/02/22-rdf-syntax-ns#"
   xmlns:svg="http://www.w3.org/2000/svg"
   xmlns="http://www.w3.org/2000/svg"
   xmlns:sodipodi="http://sodipodi.sourceforge.net/DTD/sodipodi-0.dtd"
   xmlns:inkscape="http://www.inkscape.org/namespaces/inkscape"
   width="41.0718mm"
   height="51.398876mm"
   viewBox="0 0 145.53 182.122"
   id="svg8670"
   version="1.1"
   inkscape:version="0.91 r13725"
   sodipodi:docname="clock-new.svg">
  <defs
     id="defs8672" />
  <sodipodi:namedview
     id="base"
     pagecolor="#ffffff"
     bordercolor="#666666"
     borderopacity="1.0"
     inkscape:pageopacity="0.0"
     inkscape:pageshadow="2"
     inkscape:zoom="0.35"
     inkscape:cx="367.765"
     inkscape:cy="-346.0818"
     inkscape:document-units="px"
     inkscape:current-layer="layer1"
     showgrid="false"
     inkscape:window-width="1600"
     inkscape:window-height="838"
     inkscape:window-x="-8"
     inkscape:window-y="-8"
     inkscape:window-maximized="1"
     fit-margin-top="0"
     fit-margin-left="0"
     fit-margin-right="0"
     fit-margin-bottom="0" />
  <metadata
     id="metadata8675">
    <rdf:RDF>
      <cc:Work
         rdf:about="">
        <dc:format>image/svg+xml</dc:format>
        <dc:type
           rdf:resource="http://purl.org/dc/dcmitype/StillImage" />
        <dc:title></dc:title>
      </cc:Work>
    </rdf:RDF>
  </metadata>
  <g
     inkscape:label="Layer 1"
     inkscape:groupmode="layer"
     id="layer1"
     transform="translate(-7.235004,-4.1584)">
    <g
       transform="translate(-16.431996,-2688.9546)"
       id="g1953">
      <g
         id="g1955">
        <g
           id="g1957">
          <path
             d="m 96.431,2875.235 c -40.121,0 -72.764,-32.643 -72.764,-72.764 0,-40.123 32.643,-72.766 72.764,-72.766 40.124,0 72.766,32.643 72.766,72.766 -0.001,40.121 -32.642,72.764 -72.766,72.764 z m 0,-138.76 c -36.391,0 -65.994,29.605 -65.994,65.996 0,36.391 29.604,65.996 65.994,65.996 36.392,0 65.997,-29.605 65.997,-65.996 0,-36.391 -29.606,-65.996 -65.997,-65.996 z"
             id="path1959"
             inkscape:connector-curvature="0"
             style="fill:#9e9d9b" />
        </g>
      </g>
    </g>
    <g
       transform="translate(-16.431996,-2688.9546)"
       id="g1961">
      <g
         id="g1963">
        <g
           id="g1965">
          <path
             d="m 96.431,2860.006 c -31.724,0 -57.533,-25.811 -57.533,-57.535 0,-31.724 25.81,-57.535 57.533,-57.535 31.726,0 57.536,25.811 57.536,57.535 0,31.724 -25.811,57.535 -57.536,57.535 z m 0,-108.3 c -27.991,0 -50.766,22.773 -50.766,50.766 0,27.993 22.774,50.768 50.766,50.768 27.994,0 50.768,-22.775 50.768,-50.768 0,-27.993 -22.774,-50.766 -50.768,-50.766 z"
             id="path1967"
             inkscape:connector-curvature="0"
             style="fill:#9e9d9b" />
        </g>
      </g>
    </g>
    <g
       transform="translate(-16.431996,-2688.9546)"
       id="g1969">
      <g
         id="g1971">
        <path
           d="m 72.317,2719.975 c 0,-11.547 10.818,-20.941 24.113,-20.941 13.297,0 24.115,9.395 24.115,20.941 l 0,17.645 c 1.943,0.748 3.918,1.596 5.922,2.549 l 0,-20.193 c 0,-14.813 -13.474,-26.863 -30.037,-26.863 -16.562,0 -30.035,12.051 -30.035,26.863 l 0,19.518 c 1.73,-0.867 3.71,-1.76 5.922,-2.598 l 0,-16.921 z"
           id="path1973"
           inkscape:connector-curvature="0"
           style="fill:#9e9d9b" />
      </g>
    </g>
    <g
       transform="translate(-16.431996,-2688.9546)"
       id="g1975">
      <g
         id="g1977">
        <path
           d="m 90.086,2727.352 c 0,-4.133 2.847,-7.496 6.345,-7.496 3.5,0 6.347,3.363 6.347,7.496 l 0,5.064 c 1.954,0.115 3.933,0.33 5.923,0.654 l 0,-5.719 c 0,-7.398 -5.504,-13.418 -12.27,-13.418 -6.765,0 -12.268,6.02 -12.268,13.418 l 0,6.492 c 1.879,-0.379 3.86,-0.713 5.923,-0.971 l 0,-5.52 z"
           id="path1979"
           inkscape:connector-curvature="0"
           style="fill:#9e9d9b" />
      </g>
    </g>
    <g
       transform="translate(-16.431996,-2688.9546)"
       id="g1981">
      <g
         id="g1983">
        <circle
           cx="96.431999"
           cy="2802.4709"
           r="9.3479996"
           id="circle1985"
           style="fill:#9e9d9b" />
      </g>
    </g>
    <g
       transform="translate(-16.431996,-2688.9546)"
       id="g1987">
      <g
         id="g1989">
        <g
           id="g1991">
          <path
             d="m 107.879,2810.325 c -0.419,0 -0.843,-0.078 -1.252,-0.238 l -11.603,-4.625 c -0.864,-0.344 -1.549,-1.027 -1.892,-1.891 l -4.625,-11.604 c -0.644,-1.615 0.042,-3.455 1.584,-4.256 l 35.134,-18.244 c 1.323,-0.686 2.938,-0.428 3.98,0.637 1.042,1.066 1.264,2.688 0.547,3.996 l -18.906,34.469 c -0.609,1.111 -1.763,1.756 -2.967,1.756 z m -8.998,-10.614 7.471,2.979 12.113,-22.084 -22.536,11.701 2.952,7.404 z"
             id="path1993"
             inkscape:connector-curvature="0"
             style="fill:#9e9d9b" />
        </g>
      </g>
    </g>
    <g
       transform="translate(-16.431996,-2688.9546)"
       id="g1995">
      <g
         id="g1997">
        <g
           id="g1999">
          <path
             d="m 67.737,2834.875 c -0.863,0 -1.718,-0.328 -2.366,-0.963 -1.065,-1.041 -1.324,-2.656 -0.638,-3.98 l 17.445,-33.598 c 0.803,-1.541 2.643,-2.227 4.258,-1.582 l 11.094,4.422 c 0.862,0.344 1.546,1.027 1.89,1.891 l 4.423,11.094 c 0.633,1.59 -0.018,3.398 -1.517,4.221 l -32.962,18.08 c -0.511,0.281 -1.07,0.415 -1.627,0.415 z m 19.037,-32.701 -10.902,20.996 20.574,-11.285 -2.775,-6.963 -6.897,-2.748 z"
             id="path2001"
             inkscape:connector-curvature="0"
             style="fill:#9e9d9b" />
        </g>
      </g>
    </g>
    <g
       transform="translate(-16.431996,-2688.9546)"
       id="g2003">
      <g
         id="g2005">
        <g
           id="g2007">
          <path
             d="m 63.433,2806.997 c 0,1.563 -1.642,2.828 -3.665,2.828 l 0,0 c -2.027,0 -3.667,-1.266 -3.667,-2.828 l 0,-7.619 c 0,-1.564 1.64,-2.828 3.667,-2.828 l 0,0 c 2.023,0 3.665,1.264 3.665,2.828 l 0,7.619 z"
             id="path2009"
             inkscape:connector-curvature="0"
             style="fill:#9e9d9b" />
        </g>
      </g>
      <g
         id="g2011">
        <g
           id="g2013">
          <path
             d="m 129.429,2806.997 c 0,1.563 1.643,2.828 3.667,2.828 l 0,0 c 2.025,0 3.667,-1.266 3.667,-2.828 l 0,-7.619 c 0,-1.564 -1.642,-2.828 -3.667,-2.828 l 0,0 c -2.024,0 -3.667,1.264 -3.667,2.828 l 0,7.619 z"
             id="path2015"
             inkscape:connector-curvature="0"
             style="fill:#9e9d9b" />
        </g>
      </g>
      <g
         id="g2017">
        <g
           id="g2019">
          <path
             d="m 92.764,2842.663 c 0,1.563 1.642,2.83 3.667,2.83 l 0,0 c 2.025,0 3.667,-1.268 3.667,-2.83 l 0,-7.619 c 0,-1.563 -1.642,-2.828 -3.667,-2.828 l 0,0 c -2.025,0 -3.667,1.266 -3.667,2.828 l 0,7.619 z"
             id="path2021"
             inkscape:connector-curvature="0"
             style="fill:#9e9d9b" />
        </g>
      </g>
      <g
         id="g2023">
        <g
           id="g2025">
          <path
             d="m 92.764,2769.897 c 0,1.563 1.642,2.83 3.667,2.83 l 0,0 c 2.025,0 3.667,-1.268 3.667,-2.83 l 0,-7.617 c 0,-1.564 -1.642,-2.83 -3.667,-2.83 l 0,0 c -2.025,0 -3.667,1.266 -3.667,2.83 l 0,7.617 z"
             id="path2027"
             inkscape:connector-curvature="0"
             style="fill:#9e9d9b" />
        </g>
      </g>
    </g>
  </g>
</svg>
