<?xml version="1.0" encoding="UTF-8" standalone="no"?>
<!-- Created with Inkscape (http://www.inkscape.org/) -->

<svg
   xmlns:dc="http://purl.org/dc/elements/1.1/"
   xmlns:cc="http://creativecommons.org/ns#"
   xmlns:rdf="http://www.w3.org/1999/02/22-rdf-syntax-ns#"
   xmlns:svg="http://www.w3.org/2000/svg"
   xmlns="http://www.w3.org/2000/svg"
   xmlns:sodipodi="http://sodipodi.sourceforge.net/DTD/sodipodi-0.dtd"
   xmlns:inkscape="http://www.inkscape.org/namespaces/inkscape"
   width="82.618973mm"
   height="64.492134mm"
   viewBox="0 0 292.74439 228.51543"
   id="svg4893"
   version="1.1"
   inkscape:version="0.91 r13725">
  <defs
     id="defs4895" />
  <sodipodi:namedview
     id="base"
     pagecolor="#ffffff"
     bordercolor="#666666"
     borderopacity="1.0"
     inkscape:pageopacity="0.0"
     inkscape:pageshadow="2"
     inkscape:zoom="0.35"
     inkscape:cx="146.3722"
     inkscape:cy="114.25772"
     inkscape:document-units="px"
     inkscape:current-layer="layer1"
     showgrid="false"
     fit-margin-top="0"
     fit-margin-left="0"
     fit-margin-right="0"
     fit-margin-bottom="0"
     inkscape:window-width="1600"
     inkscape:window-height="838"
     inkscape:window-x="-8"
     inkscape:window-y="-8"
     inkscape:window-maximized="1" />
  <metadata
     id="metadata4898">
    <rdf:RDF>
      <cc:Work
         rdf:about="">
        <dc:format>image/svg+xml</dc:format>
        <dc:type
           rdf:resource="http://purl.org/dc/dcmitype/StillImage" />
        <dc:title></dc:title>
      </cc:Work>
    </rdf:RDF>
  </metadata>
  <g
     inkscape:label="Layer 1"
     inkscape:groupmode="layer"
     id="layer1"
     transform="translate(-228.6278,-418.10449)">
    <g
       transform="translate(93.780939,-108.94851)"
       id="g37">
      <g
         id="g39">
        <path
           d="m 427.555,611.1 c -0.179,-5.369 -4.119,-17.553 -10.169,-26.464 -25.467,-34.331 -74.535,-57.583 -130.896,-57.583 -82.554,0 -140.963,42.291 -149.478,103.225 -4.888,34.972 -4.27,76.8 32.06,102.662 33.28,23.689 93.944,27.775 131.427,16.92 32.06,-9.284 51.872,-29.129 58.734,-42.939 5.569,-11.211 -17.274,-33.351 -14.313,-50.836 3.125,-18.453 32.011,-34.549 55.138,-21.295 3.714,2.13 28.611,9.754 27.497,-23.69 z m -255.263,71.986 c -9.813,0 -17.769,-7.955 -17.769,-17.768 0,-9.813 7.955,-17.769 17.769,-17.769 9.813,0 17.768,7.955 17.768,17.769 0,9.813 -7.956,17.768 -17.768,17.768 z m 2.866,-79.18 c 0,-9.813 7.955,-17.767 17.769,-17.767 9.813,0 17.769,7.954 17.769,17.767 0,9.815 -7.956,17.769 -17.769,17.769 -9.814,0 -17.769,-7.953 -17.769,-17.769 z m 40.448,121.84 c -9.813,0 -17.769,-7.955 -17.769,-17.768 0,-9.814 7.955,-17.769 17.769,-17.769 9.813,0 17.768,7.954 17.768,17.769 0,9.813 -7.955,17.768 -17.768,17.768 z m 34.69,-143.338 c -9.813,0 -17.768,-7.955 -17.768,-17.767 0,-9.814 7.954,-17.77 17.768,-17.77 9.814,0 17.769,7.955 17.769,17.77 -10e-4,9.812 -7.956,17.767 -17.769,17.767 z m 43.574,117.11 c -13.083,0 -23.69,-10.607 -23.69,-23.691 0,-13.084 10.607,-23.691 23.69,-23.691 13.085,0 23.691,10.607 23.691,23.691 0,13.084 -10.606,23.691 -23.691,23.691 z M 323.778,586.14 c -9.813,0 -17.769,-7.956 -17.769,-17.769 0,-9.814 7.955,-17.769 17.769,-17.769 9.814,0 17.768,7.954 17.768,17.769 0,9.813 -7.954,17.769 -17.768,17.769 z m 60.707,31.805 c -9.813,0 -17.769,-7.956 -17.769,-17.77 0,-9.812 7.955,-17.768 17.769,-17.768 9.814,0 17.768,7.956 17.768,17.768 0,9.814 -7.954,17.77 -17.768,17.77 z"
           id="path41"
           inkscape:connector-curvature="0"
           style="fill:#f9c321" />
      </g>
    </g>
  </g>
</svg>
