<?xml version="1.0" encoding="UTF-8" standalone="no"?>
<!-- Created with Inkscape (http://www.inkscape.org/) -->

<svg
   xmlns:dc="http://purl.org/dc/elements/1.1/"
   xmlns:cc="http://creativecommons.org/ns#"
   xmlns:rdf="http://www.w3.org/1999/02/22-rdf-syntax-ns#"
   xmlns:svg="http://www.w3.org/2000/svg"
   xmlns="http://www.w3.org/2000/svg"
   xmlns:sodipodi="http://sodipodi.sourceforge.net/DTD/sodipodi-0.dtd"
   xmlns:inkscape="http://www.inkscape.org/namespaces/inkscape"
   width="58.066044mm"
   height="48.080788mm"
   viewBox="0 0 205.74582 170.36499"
   id="svg4566"
   version="1.1"
   inkscape:version="0.91 r13725">
  <defs
     id="defs4568" />
  <sodipodi:namedview
     id="base"
     pagecolor="#ffffff"
     bordercolor="#666666"
     borderopacity="1.0"
     inkscape:pageopacity="0.0"
     inkscape:pageshadow="2"
     inkscape:zoom="0.35"
     inkscape:cx="102.8729"
     inkscape:cy="85.182495"
     inkscape:document-units="px"
     inkscape:current-layer="layer1"
     showgrid="false"
     fit-margin-top="0"
     fit-margin-left="0"
     fit-margin-right="0"
     fit-margin-bottom="0"
     inkscape:window-width="1600"
     inkscape:window-height="838"
     inkscape:window-x="-8"
     inkscape:window-y="-8"
     inkscape:window-maximized="1" />
  <metadata
     id="metadata4571">
    <rdf:RDF>
      <cc:Work
         rdf:about="">
        <dc:format>image/svg+xml</dc:format>
        <dc:type
           rdf:resource="http://purl.org/dc/dcmitype/StillImage" />
        <dc:title></dc:title>
      </cc:Work>
    </rdf:RDF>
  </metadata>
  <g
     inkscape:label="Layer 1"
     inkscape:groupmode="layer"
     id="layer1"
     transform="translate(-272.1271,-447.1797)">
    <g
       transform="translate(-1802.9709,444.1107)"
       id="g1065">
      <g
         id="g1067">
        <path
           d="m 2249.817,119.547 -105.713,0 c -3.336,0 -6.234,-2.295 -7,-5.542 L 2119.286,38.42 c -0.504,-2.138 0,-4.391 1.361,-6.113 1.364,-1.724 3.44,-2.729 5.639,-2.729 l 147.366,0 c 2.291,0 4.444,1.092 5.8,2.939 1.354,1.849 1.748,4.23 1.059,6.416 l -23.835,75.586 c -0.944,2.992 -3.72,5.028 -6.859,5.028 z m -100.018,-14.384 94.745,0 19.299,-61.2 -128.472,0 14.428,61.2 z"
           id="path1069"
           inkscape:connector-curvature="0"
           style="fill:#f9c321" />
      </g>
    </g>
    <g
       transform="translate(-1802.9709,444.1107)"
       id="g1071">
      <g
         id="g1073">
        <path
           d="m 2126.278,43.964 c -3.35,0 -6.349,-2.354 -7.04,-5.764 l -4.209,-20.749 -32.74,0 c -3.972,0 -7.191,-3.22 -7.191,-7.191 0,-3.973 3.22,-7.191 7.191,-7.191 l 38.619,0 c 3.422,0 6.369,2.408 7.049,5.762 l 5.377,26.511 c 0.79,3.893 -1.725,7.688 -5.618,8.479 -0.483,0.095 -0.963,0.143 -1.438,0.143 z"
           id="path1075"
           inkscape:connector-curvature="0"
           style="fill:#f9c321" />
      </g>
    </g>
    <g
       transform="translate(-1802.9709,444.1107)"
       id="g1077">
      <g
         id="g1079">
        <rect
           x="2136.9131"
           y="112.354"
           width="14.384"
           height="20.306999"
           id="rect1081"
           style="fill:#f9c321" />
      </g>
    </g>
    <g
       transform="translate(-1802.9709,444.1107)"
       id="g1083">
      <g
         id="g1085">
        <rect
           x="2171.106"
           y="137.87801"
           width="69.123001"
           height="14.384"
           id="rect1087"
           style="fill:#f9c321" />
      </g>
    </g>
    <g
       transform="translate(-1802.9709,444.1107)"
       id="g1089">
      <g
         id="g1091">
        <path
           d="m 2155.074,173.122 c -13.602,0 -24.667,-11.065 -24.667,-24.667 0,-13.603 11.065,-24.668 24.667,-24.668 13.603,0 24.67,11.065 24.67,24.668 0,13.602 -11.067,24.667 -24.67,24.667 z m 0,-34.952 c -5.67,0 -10.283,4.613 -10.283,10.285 0,5.67 4.613,10.284 10.283,10.284 5.672,0 10.285,-4.614 10.285,-10.284 0,-5.672 -4.613,-10.285 -10.285,-10.285 z"
           id="path1093"
           inkscape:connector-curvature="0"
           style="fill:#f9c321" />
      </g>
    </g>
    <g
       transform="translate(-1802.9709,444.1107)"
       id="g1095">
      <g
         id="g1097">
        <path
           d="m 2253.659,171.432 c -12.669,0 -22.976,-10.309 -22.976,-22.977 0,-12.67 10.307,-22.977 22.976,-22.977 12.669,0 22.978,10.307 22.978,22.977 0,12.668 -10.309,22.977 -22.978,22.977 z m 0,-34.954 c -6.604,0 -11.976,5.372 -11.976,11.978 0,6.604 5.372,11.976 11.976,11.976 6.604,0 11.978,-5.372 11.978,-11.976 0,-6.606 -5.373,-11.978 -11.978,-11.978 z"
           id="path1099"
           inkscape:connector-curvature="0"
           style="fill:#f9c321" />
      </g>
    </g>
    <g
       transform="translate(-1802.9709,444.1107)"
       id="g1101">
      <g
         id="g1103">
        <path
           d="m 2253.659,173.434 c -13.602,0 -24.667,-11.064 -24.667,-24.668 0,-13.604 11.065,-24.669 24.667,-24.669 13.603,0 24.669,11.065 24.669,24.669 0,13.604 -11.066,24.668 -24.669,24.668 z m 0,-34.954 c -5.67,0 -10.284,4.614 -10.284,10.285 0,5.671 4.614,10.283 10.284,10.283 5.672,0 10.286,-4.612 10.286,-10.283 0,-5.671 -4.614,-10.285 -10.286,-10.285 z"
           id="path1105"
           inkscape:connector-curvature="0"
           style="fill:#f9c321" />
      </g>
    </g>
  </g>
</svg>
