<?xml version="1.0" encoding="UTF-8" standalone="no"?>
<!-- Created with Inkscape (http://www.inkscape.org/) -->

<svg
   xmlns:dc="http://purl.org/dc/elements/1.1/"
   xmlns:cc="http://creativecommons.org/ns#"
   xmlns:rdf="http://www.w3.org/1999/02/22-rdf-syntax-ns#"
   xmlns:svg="http://www.w3.org/2000/svg"
   xmlns="http://www.w3.org/2000/svg"
   xmlns:sodipodi="http://sodipodi.sourceforge.net/DTD/sodipodi-0.dtd"
   xmlns:inkscape="http://www.inkscape.org/namespaces/inkscape"
   width="65.502495mm"
   height="65.838013mm"
   viewBox="0 0 232.09545 233.2843"
   id="svg5003"
   version="1.1"
   inkscape:version="0.91 r13725">
  <defs
     id="defs5005" />
  <sodipodi:namedview
     id="base"
     pagecolor="#ffffff"
     bordercolor="#666666"
     borderopacity="1.0"
     inkscape:pageopacity="0.0"
     inkscape:pageshadow="2"
     inkscape:zoom="0.35"
     inkscape:cx="116.0477"
     inkscape:cy="116.6422"
     inkscape:document-units="px"
     inkscape:current-layer="layer1"
     showgrid="false"
     fit-margin-top="0"
     fit-margin-left="0"
     fit-margin-right="0"
     fit-margin-bottom="0"
     inkscape:window-width="1600"
     inkscape:window-height="838"
     inkscape:window-x="-8"
     inkscape:window-y="-8"
     inkscape:window-maximized="1" />
  <metadata
     id="metadata5008">
    <rdf:RDF>
      <cc:Work
         rdf:about="">
        <dc:format>image/svg+xml</dc:format>
        <dc:type
           rdf:resource="http://purl.org/dc/dcmitype/StillImage" />
        <dc:title></dc:title>
      </cc:Work>
    </rdf:RDF>
  </metadata>
  <g
     inkscape:label="Layer 1"
     inkscape:groupmode="layer"
     id="layer1"
     transform="translate(-258.9523,-415.72011)">
    <g
       transform="translate(-1282.3347,-1628.8726)"
       id="g1453">
      <g
         id="g1455">
        <path
           d="m 1756.055,2268.094 c 0,5.402 -5.911,9.783 -13.203,9.783 l -188.363,0 c -7.291,0 -13.202,-4.381 -13.202,-9.783 l 0,-143.443 c 0,-5.404 5.911,-9.785 13.202,-9.785 l 50.961,0 23.689,41.021 113.713,0 c 7.292,0 13.203,4.381 13.203,9.783 l 0,102.424 z"
           id="path1457"
           inkscape:connector-curvature="0"
           style="fill:#f9c321" />
      </g>
    </g>
    <g
       transform="translate(-1282.3347,-1628.8726)"
       id="g1459">
      <g
         id="g1461">
        <g
           id="g1463">
          <path
             d="m 1771.779,2079.084 -17.345,-17.346 c -0.027,-0.025 -0.053,-0.053 -0.08,-0.078 l -16.188,-15.547 c -1.326,-1.273 -3.177,-1.77 -4.932,-1.402 l -129.464,0 c -2.966,0 -5.37,2.402 -5.37,5.369 l 0,55.762 10.739,0 0,-50.391 119.817,0 0.48,25.889 c 0.054,2.887 2.328,5.24 5.21,5.391 l 27.875,1.467 0,144.314 0,0 0,10.742 5.374,0 c 2.966,0 5.37,-2.406 5.37,-5.373 l 0,-153.789 c 0.374,-1.789 -0.152,-3.677 -1.481,-5.008 z"
             id="path1465"
             inkscape:connector-curvature="0"
             style="fill:#f9c321" />
        </g>
      </g>
      <g
         id="g1467">
        <g
           id="g1469">
          <rect
             x="1628.553"
             y="2091.9441"
             width="111.802"
             height="10.998"
             id="rect1471"
             style="fill:#f9c321" />
        </g>
      </g>
      <g
         id="g1473">
        <g
           id="g1475">
          <rect
             x="1628.553"
             y="2112.874"
             width="111.802"
             height="10.998"
             id="rect1477"
             style="fill:#f9c321" />
        </g>
      </g>
      <g
         id="g1479">
        <g
           id="g1481">
          <polygon
             points="1740.354,2130.625 1628.553,2130.625 1628.553,2135.995 1628.553,2138.758 1630.059,2141.366 1740.354,2141.366 1740.354,2135.995 "
             id="polygon1483"
             style="fill:#f9c321" />
        </g>
      </g>
    </g>
  </g>
</svg>
