<?xml version="1.0" encoding="UTF-8" standalone="no"?>
<!-- Created with Inkscape (http://www.inkscape.org/) -->

<svg
   xmlns:dc="http://purl.org/dc/elements/1.1/"
   xmlns:cc="http://creativecommons.org/ns#"
   xmlns:rdf="http://www.w3.org/1999/02/22-rdf-syntax-ns#"
   xmlns:svg="http://www.w3.org/2000/svg"
   xmlns="http://www.w3.org/2000/svg"
   xmlns:sodipodi="http://sodipodi.sourceforge.net/DTD/sodipodi-0.dtd"
   xmlns:inkscape="http://www.inkscape.org/namespaces/inkscape"
   width="210mm"
   height="297mm"
   viewBox="0 0 744.09448819 1052.3622047"
   id="svg8911"
   version="1.1"
   inkscape:version="0.91 r13725">
  <defs
     id="defs8913" />
  <sodipodi:namedview
     id="base"
     pagecolor="#ffffff"
     bordercolor="#666666"
     borderopacity="1.0"
     inkscape:pageopacity="0.0"
     inkscape:pageshadow="2"
     inkscape:zoom="0.35"
     inkscape:cx="375"
     inkscape:cy="520"
     inkscape:document-units="px"
     inkscape:current-layer="layer1"
     showgrid="false"
     inkscape:window-width="1600"
     inkscape:window-height="838"
     inkscape:window-x="-8"
     inkscape:window-y="-8"
     inkscape:window-maximized="1" />
  <metadata
     id="metadata8916">
    <rdf:RDF>
      <cc:Work
         rdf:about="">
        <dc:format>image/svg+xml</dc:format>
        <dc:type
           rdf:resource="http://purl.org/dc/dcmitype/StillImage" />
        <dc:title></dc:title>
      </cc:Work>
    </rdf:RDF>
  </metadata>
  <g
     inkscape:label="Layer 1"
     inkscape:groupmode="layer"
     id="layer1">
    <g
       transform="translate(-1560.2385,-3157.7372)"
       id="g1277">
      <g
         id="g1279">
        <path
           d="m 1738.167,3357.787 -48.228,0 c -3.037,0 -5.5,-2.463 -5.5,-5.5 l 0,-36.805 -23.69,0 0,36.805 c 0,3.037 -2.462,5.5 -5.5,5.5 l -49.074,0 c -3.037,0 -5.499,-2.463 -5.499,-5.5 l 0,-71.014 c 0,-3.039 2.462,-5.5 5.499,-5.5 3.038,0 5.5,2.461 5.5,5.5 l 0,65.516 38.075,0 0,-36.807 c 0,-3.039 2.462,-5.5 5.499,-5.5 l 34.69,0 c 3.037,0 5.5,2.461 5.5,5.5 l 0,36.807 37.229,0 0,-35.678 c 0,-3.039 2.462,-5.5 5.499,-5.5 3.038,0 5.5,2.461 5.5,5.5 l 0,41.176 c 0,3.037 -2.462,5.5 -5.5,5.5 z"
           id="path1281"
           inkscape:connector-curvature="0"
           style="fill:#f9c321" />
      </g>
    </g>
    <g
       transform="translate(-1560.2385,-3157.7372)"
       id="g1283">
      <g
         id="g1285">
        <g
           id="g1287">
          <path
             d="m 1772.304,3308.375 c -13.901,5.098 -46.458,17.041 -60.99,-18.834 -12.754,-31.484 8.79,-105.502 9.713,-108.639 0.474,-1.605 1.678,-2.891 3.247,-3.465 1.57,-0.576 3.322,-0.375 4.721,0.543 2.73,1.797 67.029,44.328 77.656,76.588 12.111,36.764 -20.444,48.707 -34.347,53.807 z m -43.076,-117.438 c -5.009,19.072 -17.401,71.742 -8.126,94.637 9.874,24.369 28.911,19.727 47.565,12.883 18.653,-6.842 36.179,-15.611 27.951,-40.582 -7.734,-23.481 -51.234,-55.631 -67.39,-66.938 z"
             id="path1289"
             inkscape:connector-curvature="0"
             style="fill:#f9c321" />
        </g>
        <g
           id="g1291">
          <path
             d="m 1745.179,3314.859 c -15.969,0 -27.494,-8.465 -34.257,-25.162 -12.807,-31.607 8.774,-105.771 9.698,-108.914 0.51,-1.727 1.821,-3.125 3.508,-3.742 1.679,-0.615 3.602,-0.395 5.098,0.584 2.739,1.805 67.182,44.496 77.827,76.811 12.238,37.152 -20.585,49.193 -34.602,54.338 -6.21,2.274 -16.597,6.085 -27.272,6.085 z m -19.084,-137.322 c -0.573,0 -1.137,0.1 -1.676,0.299 -1.437,0.525 -2.553,1.717 -2.986,3.188 -0.922,3.131 -22.424,77.018 -9.727,108.359 6.62,16.344 17.882,24.629 33.473,24.629 10.524,0 20.824,-3.775 26.978,-6.033 13.79,-5.059 46.075,-16.902 34.093,-53.279 -10.555,-32.035 -74.759,-74.57 -77.487,-76.365 -0.796,-0.521 -1.718,-0.798 -2.668,-0.798 z m 19.071,126.818 c 0,0 0,0 0,0 -11.377,0 -19.375,-6.094 -24.452,-18.623 -9.209,-22.729 2.603,-73.939 8.108,-94.902 l 0.153,-0.586 0.498,0.348 c 17.752,12.422 59.869,43.83 67.55,67.15 8.347,25.33 -9.358,34.199 -28.207,41.111 -7.788,2.857 -16.043,5.502 -23.646,5.502 z m -15.684,-112.723 c -5.547,21.236 -17.018,71.496 -7.988,93.783 4.933,12.174 12.675,18.092 23.668,18.092 10e-4,0 0,0 0,0 7.471,0 15.64,-2.617 23.355,-5.447 18.46,-6.771 35.805,-15.441 27.694,-40.055 -7.53,-22.863 -48.774,-53.767 -66.733,-66.373 z"
             id="path1293"
             inkscape:connector-curvature="0"
             style="fill:#f9c321" />
        </g>
      </g>
    </g>
    <g
       transform="translate(-1560.2385,-3157.7372)"
       id="g1295">
      <g
         id="g1297">
        <g
           id="g1299">
          <path
             d="m 1779.628,3328.341 c -2.738,1.004 -5.771,-0.4 -6.777,-3.141 l -35.675,-97.26 c -1.005,-2.738 0.4,-5.771 3.139,-6.777 2.739,-1.006 5.772,0.4 6.778,3.141 l 35.676,97.26 c 1.003,2.736 -0.402,5.773 -3.141,6.777 z"
             id="path1301"
             inkscape:connector-curvature="0"
             style="fill:#f9c321" />
        </g>
        <g
           id="g1303">
          <path
             d="m 1777.81,3329.087 c -2.382,0 -4.534,-1.502 -5.355,-3.74 l -35.676,-97.26 c -0.524,-1.43 -0.461,-2.98 0.179,-4.361 0.641,-1.383 1.781,-2.434 3.212,-2.959 0.634,-0.232 1.295,-0.352 1.964,-0.352 2.383,0 4.535,1.504 5.357,3.742 l 35.676,97.26 c 0.524,1.432 0.461,2.98 -0.18,4.361 -0.642,1.385 -1.782,2.434 -3.213,2.959 -0.634,0.233 -1.295,0.35 -1.964,0.35 z m -35.677,-107.826 c -0.569,0 -1.133,0.102 -1.673,0.299 -1.219,0.449 -2.189,1.342 -2.734,2.521 -0.546,1.178 -0.6,2.496 -0.152,3.715 l 35.675,97.26 c 0.7,1.904 2.533,3.186 4.562,3.186 0.57,0 1.133,-0.1 1.673,-0.299 1.219,-0.445 2.189,-1.34 2.736,-2.518 0.545,-1.18 0.6,-2.498 0.152,-3.715 l -35.676,-97.262 c -0.701,-1.906 -2.534,-3.187 -4.563,-3.187 z"
             id="path1305"
             inkscape:connector-curvature="0"
             style="fill:#f9c321" />
        </g>
      </g>
    </g>
    <g
       transform="translate(-1560.2385,-3157.7372)"
       id="g1307">
      <g
         id="g1309">
        <g
           id="g1311">
          <path
             d="m 1754.024,3258.542 c -1.245,0.457 -2.665,0.447 -3.974,-0.139 -2.662,-1.189 -3.855,-4.313 -2.665,-6.975 l 8.796,-19.672 c 1.191,-2.66 4.313,-3.855 6.976,-2.662 2.665,1.188 3.856,4.313 2.665,6.975 l -8.795,19.67 c -0.604,1.356 -1.712,2.329 -3.003,2.803 z"
             id="path1313"
             inkscape:connector-curvature="0"
             style="fill:#f9c321" />
        </g>
        <g
           id="g1315">
          <path
             d="m 1752.205,3259.291 c -0.805,0 -1.587,-0.17 -2.327,-0.5 -2.87,-1.283 -4.162,-4.662 -2.879,-7.535 l 8.796,-19.67 c 0.919,-2.051 2.964,-3.375 5.21,-3.375 0.804,0 1.586,0.166 2.325,0.498 1.391,0.619 2.456,1.746 3,3.168 0.545,1.426 0.502,2.975 -0.121,4.365 l -8.796,19.672 c -0.631,1.416 -1.782,2.49 -3.243,3.027 -0.633,0.232 -1.294,0.35 -1.965,0.35 z m 8.8,-30.235 c -1.913,0 -3.655,1.127 -4.438,2.875 l -8.796,19.67 c -1.093,2.447 0.01,5.324 2.452,6.418 1.157,0.518 2.471,0.563 3.655,0.125 1.243,-0.455 2.225,-1.371 2.762,-2.574 l 8.796,-19.672 c 0.53,-1.186 0.567,-2.506 0.104,-3.719 -0.463,-1.213 -1.37,-2.17 -2.555,-2.699 -0.631,-0.281 -1.297,-0.424 -1.98,-0.424 z"
             id="path1317"
             inkscape:connector-curvature="0"
             style="fill:#f9c321" />
        </g>
      </g>
    </g>
    <g
       transform="translate(-1560.2385,-3157.7372)"
       id="g1319">
      <g
         id="g1321">
        <g
           id="g1323">
          <path
             d="m 1766.236,3291.333 c -1.246,0.457 -2.664,0.449 -3.974,-0.137 -2.662,-1.191 -3.854,-4.314 -2.665,-6.977 l 13.049,-29.18 c 1.191,-2.66 4.312,-3.855 6.977,-2.666 2.662,1.191 3.855,4.316 2.664,6.977 l -13.046,29.182 c -0.605,1.354 -1.711,2.329 -3.005,2.801 z"
             id="path1325"
             inkscape:connector-curvature="0"
             style="fill:#f9c321" />
        </g>
        <g
           id="g1327">
          <path
             d="m 1764.415,3292.082 c -0.803,0 -1.585,-0.168 -2.324,-0.5 -2.871,-1.283 -4.162,-4.664 -2.88,-7.535 l 13.049,-29.18 c 0.919,-2.051 2.965,-3.377 5.212,-3.377 0.804,0 1.585,0.168 2.324,0.496 2.872,1.287 4.162,4.668 2.877,7.539 l -13.046,29.18 c -0.634,1.416 -1.786,2.492 -3.245,3.027 -0.634,0.232 -1.295,0.35 -1.967,0.35 z m 13.057,-39.747 c -1.914,0 -3.657,1.131 -4.439,2.879 l -13.049,29.178 c -1.093,2.445 0.01,5.324 2.453,6.42 1.156,0.516 2.469,0.559 3.653,0.125 1.243,-0.455 2.225,-1.371 2.765,-2.578 l 13.046,-29.182 c 1.095,-2.443 -0.01,-5.322 -2.45,-6.416 -0.63,-0.281 -1.296,-0.426 -1.979,-0.426 z"
             id="path1329"
             inkscape:connector-curvature="0"
             style="fill:#f9c321" />
        </g>
      </g>
    </g>
    <g
       transform="translate(-1560.2385,-3157.7372)"
       id="g1331">
      <g
         id="g1333">
        <g
           id="g1335">
          <path
             d="m 1754.026,3258.542 c -1.292,0.475 -2.765,0.445 -4.103,-0.195 l -19.43,-9.318 c -2.628,-1.262 -3.739,-4.416 -2.479,-7.045 1.263,-2.633 4.417,-3.738 7.047,-2.479 l 19.429,9.314 c 2.628,1.262 3.738,4.418 2.479,7.049 -0.618,1.292 -1.697,2.217 -2.943,2.674 z"
             id="path1337"
             inkscape:connector-curvature="0"
             style="fill:#f9c321" />
        </g>
        <g
           id="g1339">
          <path
             d="m 1752.205,3259.291 c -0.856,0 -1.686,-0.189 -2.464,-0.563 l -19.43,-9.316 c -2.836,-1.361 -4.037,-4.775 -2.678,-7.609 0.944,-1.969 2.965,-3.24 5.147,-3.24 0.857,0 1.686,0.188 2.464,0.563 l 19.429,9.314 c 2.835,1.359 4.036,4.775 2.678,7.611 -0.647,1.348 -1.776,2.375 -3.18,2.891 -0.632,0.231 -1.294,0.349 -1.966,0.349 z m -19.424,-19.883 c -1.859,0 -3.58,1.082 -4.384,2.758 -1.158,2.416 -0.136,5.322 2.28,6.482 l 19.429,9.318 c 1.186,0.566 2.549,0.629 3.773,0.178 1.196,-0.438 2.157,-1.311 2.709,-2.459 1.156,-2.414 0.133,-5.324 -2.28,-6.482 l -19.43,-9.316 c -0.661,-0.319 -1.367,-0.479 -2.097,-0.479 z"
             id="path1341"
             inkscape:connector-curvature="0"
             style="fill:#f9c321" />
        </g>
      </g>
    </g>
    <g
       transform="translate(-1560.2385,-3157.7372)"
       id="g1343">
      <g
         id="g1345">
        <g
           id="g1347">
          <path
             d="m 1765.914,3291.451 c -1.291,0.477 -2.765,0.447 -4.104,-0.195 l -28.818,-13.822 c -2.631,-1.26 -3.741,-4.414 -2.48,-7.043 1.263,-2.631 4.418,-3.738 7.047,-2.479 l 28.819,13.822 c 2.629,1.26 3.74,4.412 2.477,7.043 -0.618,1.293 -1.696,2.219 -2.941,2.674 z"
             id="path1349"
             inkscape:connector-curvature="0"
             style="fill:#f9c321" />
        </g>
        <g
           id="g1351">
          <path
             d="m 1764.091,3292.199 c -0.856,0 -1.686,-0.188 -2.464,-0.563 l -28.818,-13.82 c -2.836,-1.359 -4.038,-4.773 -2.679,-7.609 0.944,-1.969 2.966,-3.238 5.149,-3.238 0.856,0 1.685,0.189 2.462,0.561 l 28.819,13.822 c 1.374,0.658 2.409,1.813 2.914,3.25 0.506,1.438 0.421,2.986 -0.238,4.359 -0.645,1.348 -1.773,2.373 -3.178,2.889 -0.632,0.232 -1.294,0.349 -1.967,0.349 z m -28.812,-24.385 c -1.86,0 -3.582,1.084 -4.387,2.76 -1.157,2.416 -0.134,5.32 2.282,6.479 l 28.818,13.822 c 1.184,0.568 2.548,0.629 3.774,0.18 1.196,-0.438 2.157,-1.311 2.706,-2.459 0.562,-1.17 0.634,-2.488 0.203,-3.713 -0.431,-1.225 -1.312,-2.207 -2.481,-2.768 l -28.82,-13.822 c -0.661,-0.319 -1.366,-0.479 -2.095,-0.479 z"
             id="path1353"
             inkscape:connector-curvature="0"
             style="fill:#f9c321" />
        </g>
      </g>
    </g>
    <g
       transform="translate(-1560.2385,-3157.7372)"
       id="g1355">
      <g
         id="g1357">
        <path
           d="m 1606.178,3284.388 c -1.506,0 -3.005,-0.613 -4.091,-1.822 -2.032,-2.258 -1.848,-5.736 0.41,-7.766 l 65.996,-59.367 c 2.136,-1.92 5.391,-1.873 7.471,0.107 l 22.908,21.816 c 2.199,2.094 2.284,5.574 0.189,7.775 -2.095,2.201 -5.576,2.285 -7.775,0.189 l -19.222,-18.305 -62.211,55.961 c -1.05,0.945 -2.366,1.412 -3.675,1.412 z"
           id="path1359"
           inkscape:connector-curvature="0"
           style="fill:#f9c321" />
      </g>
    </g>
    <g
       transform="translate(-1560.2385,-3157.7372)"
       id="g1361">
      <g
         id="g1363">
        <path
           d="m 1702.616,3211.236 -26.652,-25.383 c -2.079,-1.98 -5.335,-2.027 -7.472,-0.105 l -34.818,31.322 0,-11.77 c 0,-3.244 -2.462,-5.877 -5.5,-5.877 l -21.999,0 c -3.037,0 -5.499,2.633 -5.499,5.875 l 0,41.457 -24.826,22.332 c -2.258,2.031 -2.442,5.508 -0.41,7.768 1.086,1.207 2.585,1.82 4.09,1.82 1.311,0 2.626,-0.465 3.677,-1.41 0,0 16.908,-15.029 22.539,-20.043 3.142,-2.797 5.959,-4.512 5.93,-8.016 -0.078,-9.508 0,-38.029 0,-38.029 l 11,0 0,18.332 c 0,3.244 2.462,5.875 5.499,5.875 1.969,0 5.228,-3.086 7.448,-5.275 l 36.443,-32.781 22.966,21.873 c 2.199,2.094 5.682,2.01 7.775,-0.189 2.093,-2.202 2.008,-5.682 -0.191,-7.776 z"
           id="path1365"
           inkscape:connector-curvature="0"
           style="fill:#f9c321" />
      </g>
      <g
         id="g1367">
        <path
           d="m 1579.524,3279.099 c -1.678,0 -3.284,-0.717 -4.404,-1.963 -1.059,-1.176 -1.595,-2.693 -1.512,-4.273 0.084,-1.58 0.777,-3.031 1.953,-4.09 l 24.687,-22.205 0,-41.27 c 0,-3.473 2.656,-6.297 5.922,-6.297 l 21.999,0 c 3.266,0 5.923,2.826 5.923,6.299 l 0,10.818 34.113,-30.688 c 1.09,-0.979 2.496,-1.518 3.962,-1.518 1.528,0 2.979,0.578 4.084,1.631 l 26.652,25.385 c 2.364,2.252 2.456,6.008 0.204,8.373 -1.128,1.186 -2.651,1.84 -4.289,1.84 l 0,0 c -1.527,0 -2.978,-0.582 -4.084,-1.635 l -22.682,-21.602 -36.152,32.52 c -2.832,2.789 -5.74,5.385 -7.731,5.385 -3.266,0 -5.923,-2.826 -5.923,-6.301 l 0,-17.908 -10.154,0 c -0.01,3.58 -0.076,28.836 0,37.602 0.026,3.139 -2.116,4.959 -4.598,7.064 -0.476,0.404 -0.97,0.822 -1.473,1.271 -5.632,5.014 -22.541,20.043 -22.541,20.043 -1.085,0.98 -2.492,1.519 -3.957,1.519 z m 26.651,-79.252 c -2.799,0 -5.076,2.445 -5.076,5.451 l 0,41.646 -0.14,0.125 -24.826,22.332 c -1.009,0.906 -1.603,2.152 -1.675,3.506 -0.071,1.354 0.389,2.654 1.296,3.662 0.961,1.07 2.337,1.682 3.775,1.682 1.255,0 2.46,-0.463 3.394,-1.303 0,0 16.909,-15.027 22.541,-20.041 0.509,-0.453 1.008,-0.877 1.489,-1.285 2.414,-2.051 4.321,-3.67 4.299,-6.414 -0.078,-9.4 0,-37.746 0,-38.031 l 10e-4,-0.422 11.845,0 0,18.754 c 0,3.008 2.277,5.453 5.076,5.453 1.919,0 5.585,-3.613 7.151,-5.156 l 36.749,-33.055 23.248,22.143 c 0.948,0.904 2.191,1.4 3.501,1.4 l 0,0 c 1.403,0 2.709,-0.559 3.677,-1.574 1.93,-2.029 1.852,-5.248 -0.176,-7.178 l -26.652,-25.383 c -0.947,-0.904 -2.19,-1.4 -3.5,-1.4 -1.256,0 -2.463,0.463 -3.396,1.303 l -35.524,31.957 0,-12.719 c 0,-3.008 -2.278,-5.453 -5.077,-5.453 l -22,0 z"
           id="path1369"
           inkscape:connector-curvature="0"
           style="fill:#f9c321" />
      </g>
    </g>
  </g>
</svg>
