<?xml version="1.0" encoding="UTF-8" standalone="no"?>
<!-- Created with Inkscape (http://www.inkscape.org/) -->

<svg
   xmlns:dc="http://purl.org/dc/elements/1.1/"
   xmlns:cc="http://creativecommons.org/ns#"
   xmlns:rdf="http://www.w3.org/1999/02/22-rdf-syntax-ns#"
   xmlns:svg="http://www.w3.org/2000/svg"
   xmlns="http://www.w3.org/2000/svg"
   xmlns:sodipodi="http://sodipodi.sourceforge.net/DTD/sodipodi-0.dtd"
   xmlns:inkscape="http://www.inkscape.org/namespaces/inkscape"
   width="108.90948mm"
   height="110.28992mm"
   viewBox="0 0 385.89971 390.79101"
   id="svg8763"
   version="1.1"
   inkscape:version="0.91 r13725"
   sodipodi:docname="jar-shape.svg">
  <defs
     id="defs8765" />
  <sodipodi:namedview
     id="base"
     pagecolor="#ffffff"
     bordercolor="#666666"
     borderopacity="1.0"
     inkscape:pageopacity="0.0"
     inkscape:pageshadow="2"
     inkscape:zoom="0.35"
     inkscape:cx="867.03689"
     inkscape:cy="135.96212"
     inkscape:document-units="px"
     inkscape:current-layer="layer1"
     showgrid="false"
     borderlayer="true"
     fit-margin-top="0"
     fit-margin-left="0"
     fit-margin-right="0"
     fit-margin-bottom="0"
     inkscape:window-width="1600"
     inkscape:window-height="838"
     inkscape:window-x="-8"
     inkscape:window-y="-8"
     inkscape:window-maximized="1" />
  <metadata
     id="metadata8768">
    <rdf:RDF>
      <cc:Work
         rdf:about="">
        <dc:format>image/svg+xml</dc:format>
        <dc:type
           rdf:resource="http://purl.org/dc/dcmitype/StillImage" />
        <dc:title></dc:title>
      </cc:Work>
    </rdf:RDF>
  </metadata>
  <g
     inkscape:label="Layer 1"
     inkscape:groupmode="layer"
     id="layer1"
     transform="translate(919.1797,-734.67607)">
    <g
       transform="translate(-3937.8777,-646.04093)"
       id="g4485">
      <g
         id="g4487">
        <path
           style="fill:#f9c321"
           inkscape:connector-curvature="0"
           d="m 3379.83,1771.508 0,0 c -1.178,0 -2.386,-0.044 -3.592,-0.13 -5.11,-0.365 -22.026,-0.55 -50.278,-0.55 -48.3,0 -113.611,0.557 -114.265,0.563 l -0.095,0 c -0.654,-0.01 -65.964,-0.563 -114.265,-0.563 -28.252,0 -45.168,0.185 -50.278,0.55 -1.208,0.086 -2.415,0.13 -3.591,0.13 -11.592,0 -19.834,-3.987 -23.209,-11.229 -4.26,-9.142 0.221,-21.68 13.313,-37.266 27.474,-32.707 114.971,-139.275 129.365,-157.267 11.348,-14.187 10.754,-39.469 10.18,-63.92 -0.123,-5.165 -0.248,-10.505 -0.248,-15.587 0,-30.527 -0.252,-67.451 -0.52,-75.979 -0.01,-0.216 -0.037,-0.299 -0.037,-0.299 -0.412,-0.547 -2.867,-1.346 -4.188,-1.774 -3.945,-1.282 -11.289,-3.668 -11.37,-11.817 -0.018,-1.809 0.483,-4.492 2.976,-7.008 7.072,-7.144 28.597,-8.645 45.408,-8.645 2.439,0 4.791,0.043 6.511,0.115 1.72,-0.072 4.072,-0.115 6.512,-0.115 16.812,0 38.337,1.501 45.408,8.645 2.491,2.516 2.993,5.199 2.976,7.008 -0.082,8.149 -7.426,10.535 -11.37,11.817 -1.315,0.429 -3.759,1.222 -4.2,1.799 0,0 -0.02,0.09 -0.025,0.274 -0.267,8.527 -0.52,45.451 -0.52,75.979 0,5.082 -0.125,10.422 -0.246,15.587 -0.576,24.451 -1.17,49.733 10.178,63.92 14.395,17.991 101.891,124.56 129.365,157.267 13.094,15.587 17.574,28.125 13.313,37.266 -3.374,7.242 -11.616,11.229 -23.208,11.229 z m -53.87,-11.679 c 28.913,0 45.616,0.188 51.062,0.577 0.947,0.067 1.892,0.104 2.808,0.104 6.765,0 11.838,-1.869 13.239,-4.875 0.812,-1.742 2.361,-8.73 -11.767,-25.547 -25.646,-30.533 -113.565,-137.516 -129.53,-157.47 -13.851,-17.313 -13.208,-44.632 -12.586,-71.05 0.124,-5.336 0.243,-10.375 0.243,-15.328 0,-27.543 0.229,-66.883 0.524,-76.322 0.264,-8.436 7.781,-10.879 11.82,-12.19 0.959,-0.313 2.404,-0.782 3.269,-1.208 -3.435,-2.17 -15.974,-4.801 -36.883,-4.801 -2.4,0 -4.681,0.042 -6.257,0.115 l -0.255,0.012 -0.254,-0.012 c -1.576,-0.073 -3.856,-0.115 -6.257,-0.115 -20.911,0 -33.449,2.631 -36.884,4.801 0.864,0.426 2.31,0.896 3.269,1.208 4.039,1.312 11.557,3.755 11.82,12.19 0.295,9.439 0.524,48.779 0.524,76.322 0,4.953 0.119,9.992 0.245,15.328 0.621,26.418 1.264,53.736 -12.587,71.05 -15.965,19.954 -103.884,126.937 -129.531,157.47 -14.126,16.816 -12.577,23.805 -11.765,25.545 1.4,3.008 6.473,4.877 13.238,4.877 0.915,0 1.859,-0.036 2.808,-0.104 5.444,-0.389 22.147,-0.577 51.062,-0.577 47.799,0 112.223,0.545 114.312,0.563 2.089,-0.018 66.515,-0.563 114.313,-0.563 z"
           id="path4489" />
      </g>
    </g>
    <g
       transform="translate(-3937.8777,-646.04093)"
       id="g4491">
      <g
         id="g4493">
        <path
           style="fill:#f9c321"
           inkscape:connector-curvature="0"
           d="m 3361.832,1720.611 c -20.306,-25.385 -89.264,-109.148 -89.264,-109.148 l -60.921,0 -60.921,0 c 0,0 -68.957,83.764 -89.264,109.148 -20.307,25.382 -20.729,30.459 32.575,29.611 53.304,-0.844 86.306,1.113 117.609,0.133 31.305,0.98 64.306,-0.977 117.61,-0.133 53.307,0.848 52.883,-4.229 32.576,-29.611 z m -225.489,-66.843 c 5.14,0 9.308,4.166 9.308,9.309 0,5.139 -4.168,9.307 -9.308,9.307 -5.141,0 -9.307,-4.168 -9.307,-9.307 0,-5.143 4.166,-9.309 9.307,-9.309 z m 12.692,80.38 c -10.748,0 -19.461,-8.713 -19.461,-19.461 0,-10.748 8.713,-19.461 19.461,-19.461 10.748,0 19.459,8.713 19.459,19.461 0,10.748 -8.711,19.461 -19.459,19.461 z m 38.074,-65.998 c -5.607,0 -10.153,-4.544 -10.153,-10.152 0,-5.607 4.546,-10.152 10.153,-10.152 5.607,0 10.152,4.545 10.152,10.152 0,5.608 -4.544,10.152 -10.152,10.152 z m 19.462,42.307 c -2.804,0 -5.077,-2.273 -5.077,-5.077 0,-2.805 2.273,-5.077 5.077,-5.077 2.804,0 5.076,2.272 5.076,5.077 0,2.804 -2.272,5.077 -5.076,5.077 z m 11.844,-43.151 c 0,-2.804 2.272,-5.077 5.076,-5.077 2.804,0 5.077,2.273 5.077,5.077 0,2.804 -2.273,5.077 -5.077,5.077 -2.804,0 -5.076,-2.274 -5.076,-5.077 z m 19.46,66.842 c -7.943,0 -14.384,-6.44 -14.384,-14.385 0,-7.943 6.44,-14.384 14.384,-14.384 7.944,0 14.384,6.44 14.384,14.384 0,7.945 -6.44,14.385 -14.384,14.385 z m 11.846,-33.845 c -2.804,0 -5.076,-2.272 -5.076,-5.076 0,-2.805 2.272,-5.076 5.076,-5.076 2.803,0 5.076,2.271 5.076,5.076 0,2.803 -2.274,5.076 -5.076,5.076 z m 10.153,-32.153 c -5.606,0 -10.153,-4.544 -10.153,-10.152 0,-5.607 4.547,-10.152 10.153,-10.152 5.607,0 10.153,4.545 10.153,10.152 0,5.608 -4.546,10.152 -10.153,10.152 z m 35.536,42.307 c -5.607,0 -10.152,-4.547 -10.152,-10.154 0,-5.607 4.545,-10.152 10.152,-10.152 5.607,0 10.153,4.545 10.153,10.152 0,5.607 -4.545,10.154 -10.153,10.154 z"
           id="path4495" />
      </g>
    </g>
  </g>
</svg>
