<?xml version="1.0" encoding="UTF-8" standalone="no"?>
<!-- Created with Inkscape (http://www.inkscape.org/) -->

<svg
   xmlns:dc="http://purl.org/dc/elements/1.1/"
   xmlns:cc="http://creativecommons.org/ns#"
   xmlns:rdf="http://www.w3.org/1999/02/22-rdf-syntax-ns#"
   xmlns:svg="http://www.w3.org/2000/svg"
   xmlns="http://www.w3.org/2000/svg"
   xmlns:sodipodi="http://sodipodi.sourceforge.net/DTD/sodipodi-0.dtd"
   xmlns:inkscape="http://www.inkscape.org/namespaces/inkscape"
   width="35.340714mm"
   height="45.052544mm"
   viewBox="0 0 125.223 159.635"
   id="svg8708"
   version="1.1"
   inkscape:version="0.91 r13725"
   sodipodi:docname="globe.svg">
  <defs
     id="defs8710" />
  <sodipodi:namedview
     id="base"
     pagecolor="#ffffff"
     bordercolor="#666666"
     borderopacity="1.0"
     inkscape:pageopacity="0.0"
     inkscape:pageshadow="2"
     inkscape:zoom="0.35"
     inkscape:cx="366.7544"
     inkscape:cy="-367.6111"
     inkscape:document-units="px"
     inkscape:current-layer="layer1"
     showgrid="false"
     inkscape:window-width="1600"
     inkscape:window-height="838"
     inkscape:window-x="-8"
     inkscape:window-y="-8"
     inkscape:window-maximized="1"
     fit-margin-top="0"
     fit-margin-left="0"
     fit-margin-right="0"
     fit-margin-bottom="0" />
  <metadata
     id="metadata8713">
    <rdf:RDF>
      <cc:Work
         rdf:about="">
        <dc:format>image/svg+xml</dc:format>
        <dc:type
           rdf:resource="http://purl.org/dc/dcmitype/StillImage" />
        <dc:title></dc:title>
      </cc:Work>
    </rdf:RDF>
  </metadata>
  <g
     inkscape:label="Layer 1"
     inkscape:groupmode="layer"
     id="layer1"
     transform="translate(-8.2456,-5.1161)">
    <g
       transform="translate(-1382.1324,-3432.8809)"
       id="g2151">
      <g
         id="g2153">
        <g
           id="g2155">
          <g
             id="g2157">
            <path
               d="m 1441.929,3539.275 -2.051,-1.563 c -8.664,-6.6 -34.754,-40.789 -34.754,-61.918 0,-36.736 32.729,-37.797 36.461,-37.797 0.151,0 0.268,0 0.344,0 0.077,0 0.193,0 0.344,0 3.731,0 36.462,1.061 36.462,37.797 0,21.129 -26.09,55.318 -34.755,61.918 l -2.051,1.563 z m -0.344,-94.508 c -4.958,0 -29.692,1.496 -29.692,31.027 0,16.285 20.144,45.375 30.036,54.762 9.894,-9.387 30.037,-38.477 30.037,-54.762 0,-29.531 -24.734,-31.027 -29.693,-31.027 l -0.344,0.01 -0.344,-0.01 z m 0.344,49.217 c -8.864,0 -16.075,-7.209 -16.075,-16.074 0,-8.865 7.211,-16.076 16.075,-16.076 8.864,0 16.076,7.211 16.076,16.076 0,8.865 -7.212,16.074 -16.076,16.074 z m 0,-25.381 c -5.132,0 -9.307,4.174 -9.307,9.307 0,5.131 4.175,9.307 9.307,9.307 5.133,0 9.308,-4.176 9.308,-9.307 0,-5.133 -4.175,-9.307 -9.308,-9.307 z"
               id="path2159"
               inkscape:connector-curvature="0"
               style="fill:#9e9d9b" />
          </g>
        </g>
      </g>
      <g
         id="g2161">
        <g
           id="g2163">
          <g
             id="g2165">
            <path
               d="m 1475.323,3476.542 c -0.067,2.16 -0.408,4.467 -0.995,6.887 13.581,5.639 24.478,16.48 30.171,30.035 l -18.858,0 c -2.282,-11.57 -6.374,-21.451 -11.685,-28.625 -0.719,2.615 -1.686,5.334 -2.848,8.1 3.232,5.6 5.842,12.619 7.553,20.525 l -18.824,0 c -3.444,5.191 -7.022,9.943 -10.232,13.746 l 0,25.457 -23.04,0 c -0.964,-5.576 -1.497,-11.512 -1.497,-17.646 0,-5.098 0.37,-10.057 1.046,-14.789 l 2.647,0 c -2.508,-3.391 -5.06,-7.135 -7.476,-11.041 -0.343,1.396 -0.661,2.82 -0.948,4.273 l -18.857,0 c 2.878,-6.855 7.099,-13.008 12.311,-18.154 -1.036,-2.279 -1.954,-4.539 -2.725,-6.748 -12.695,11.465 -20.688,28.045 -20.688,46.459 0,34.523 28.088,62.611 62.612,62.611 34.523,0 62.611,-28.088 62.611,-62.611 0,-26.658 -16.755,-49.463 -40.278,-58.479 z m -78.177,58.479 c 0,-5.119 0.706,-10.074 2.003,-14.789 l 20.095,0 c -0.613,4.73 -0.945,9.676 -0.945,14.789 0,6.154 0.478,12.066 1.354,17.646 l -19.634,0 c -1.853,-5.552 -2.873,-11.48 -2.873,-17.646 z m 5.63,24.414 18.168,0 c 2.646,11.58 7.143,21.295 12.858,28.033 -13.595,-4.988 -24.725,-15.125 -31.026,-28.033 z m 46.828,30.982 c -9.382,-2.387 -17.485,-14.508 -21.617,-30.982 l 21.617,0 0,30.982 z m 6.769,-70.185 23.491,0 c 0.676,4.732 1.046,9.691 1.046,14.789 0,6.135 -0.533,12.07 -1.496,17.646 l -23.041,0 0,-32.435 z m 0,70.185 0,-30.982 21.617,0 c -4.132,16.475 -12.236,28.596 -21.617,30.982 z m 15.801,-2.949 c 5.717,-6.738 10.213,-16.453 12.858,-28.033 l 18.168,0 c -6.3,12.908 -17.43,23.045 -31.026,28.033 z m 14.151,-34.801 c 0.876,-5.58 1.354,-11.492 1.354,-17.646 0,-5.113 -0.332,-10.059 -0.945,-14.789 l 20.096,0 c 1.296,4.715 2.002,9.67 2.002,14.789 0,6.166 -1.02,12.094 -2.873,17.646 l -19.634,0 z"
               id="path2167"
               inkscape:connector-curvature="0"
               style="fill:#9e9d9b" />
          </g>
        </g>
      </g>
    </g>
  </g>
</svg>
