<?xml version="1.0" encoding="UTF-8" standalone="no"?>
<!-- Created with Inkscape (http://www.inkscape.org/) -->

<svg
   xmlns:dc="http://purl.org/dc/elements/1.1/"
   xmlns:cc="http://creativecommons.org/ns#"
   xmlns:rdf="http://www.w3.org/1999/02/22-rdf-syntax-ns#"
   xmlns:svg="http://www.w3.org/2000/svg"
   xmlns="http://www.w3.org/2000/svg"
   xmlns:sodipodi="http://sodipodi.sourceforge.net/DTD/sodipodi-0.dtd"
   xmlns:inkscape="http://www.inkscape.org/namespaces/inkscape"
   width="95.03833mm"
   height="55.651402mm"
   viewBox="0 0 336.74997 197.19"
   id="svg8763"
   version="1.1"
   inkscape:version="0.91 r13725"
   sodipodi:docname="hand.svg">
  <defs
     id="defs8765" />
  <sodipodi:namedview
     id="base"
     pagecolor="#ffffff"
     bordercolor="#666666"
     borderopacity="1.0"
     inkscape:pageopacity="0.0"
     inkscape:pageshadow="2"
     inkscape:zoom="0.35"
     inkscape:cx="-698.359"
     inkscape:cy="233.91695"
     inkscape:document-units="px"
     inkscape:current-layer="layer1"
     showgrid="false"
     borderlayer="true"
     fit-margin-top="0"
     fit-margin-left="0"
     fit-margin-right="0"
     fit-margin-bottom="0"
     inkscape:window-width="1600"
     inkscape:window-height="838"
     inkscape:window-x="-8"
     inkscape:window-y="-8"
     inkscape:window-maximized="1"
     showborder="true" />
  <metadata
     id="metadata8768">
    <rdf:RDF>
      <cc:Work
         rdf:about="">
        <dc:format>image/svg+xml</dc:format>
        <dc:type
           rdf:resource="http://purl.org/dc/dcmitype/StillImage" />
        <dc:title></dc:title>
      </cc:Work>
    </rdf:RDF>
  </metadata>
  <g
     inkscape:label="Layer 1"
     inkscape:groupmode="layer"
     id="layer1"
     transform="translate(-646.21621,-2626.2319)">
    <g
       transform="translate(-1293.7918,2090.5119)"
       id="g4361">
      <g
         id="g4363">
        <polygon
           style="fill:#f9c321"
           points="2276.758,558.563 2235.721,558.563 2235.721,702.401 2276.758,702.401 2276.758,713.4 2224.722,713.4 2224.722,547.564 2276.758,547.564 "
           id="polygon4365" />
      </g>
    </g>
    <g
       transform="translate(-1293.7918,2090.5119)"
       id="g4367">
      <g
         id="g4369">
        <circle
           style="fill:#f9c321"
           cx="2266.604"
           cy="668.979"
           r="10.153"
           id="circle4371" />
      </g>
    </g>
    <g
       transform="translate(-1293.7918,2090.5119)"
       id="g4373">
      <g
         id="g4375">
        <polygon
           style="fill:#f9c321"
           points="1981.044,546.718 1940.008,546.718 1940.008,535.72 1992.043,535.72 1992.043,701.555 1940.008,701.555 1940.008,690.557 1981.044,690.557 "
           id="polygon4377" />
      </g>
    </g>
    <g
       transform="translate(-1293.7918,2090.5119)"
       id="g4379">
      <g
         id="g4381">
        <circle
           style="fill:#f9c321"
           cx="1953.123"
           cy="654.59601"
           r="10.153"
           id="circle4383" />
      </g>
    </g>
    <g
       transform="translate(-1293.7918,2090.5119)"
       id="g4385">
      <g
         id="g4387">
        <g
           id="g4389">
          <path
             style="fill:#f9c321"
             inkscape:connector-curvature="0"
             d="m 2212.765,702.375 c -4.751,0 -9.96,-1.359 -16.796,-5.238 -2.744,-1.557 -10.033,-5.692 -36.995,-52.223 -10.205,-17.612 -19.449,-34.803 -23.019,-41.507 l -25.182,0 c -5.182,5.454 -13.718,13.678 -21.296,20.485 -17.659,15.86 -20.967,16.136 -22.943,16.303 -21.302,1.78 -28.692,-16.588 -29.623,-26.545 l -0.226,-2.406 1.62,-1.793 c 3.592,-3.977 9.997,-11.688 17.414,-20.616 34.222,-41.194 39.954,-46.787 44.591,-47.174 2.712,-0.225 68.576,-2.472 76.342,0.301 12.082,4.315 54.186,24.747 55.972,25.616 l -4.806,9.895 c -0.432,-0.211 -43.11,-20.923 -54.771,-25.117 -6.277,-1.534 -60.729,-0.389 -70.844,0.2 -5.337,3.963 -25.695,28.47 -38.022,43.308 -6.431,7.742 -12.109,14.576 -15.958,18.98 1.021,4.818 4.655,15.195 16.951,14.422 5.183,-2.331 29.047,-24.003 39.147,-35.066 l 1.636,-1.793 36.632,0 1.546,2.945 c 18.557,35.33 48.59,87.299 57.262,92.219 9.438,5.354 12.847,4.287 21.952,1.438 1.595,-0.499 3.401,-1.063 5.361,-1.625 l 3.022,10.576 c -1.828,0.523 -3.491,1.043 -5.1,1.548 -4.925,1.538 -9.173,2.867 -13.867,2.867 z"
             id="path4391" />
        </g>
      </g>
    </g>
    <g
       transform="translate(-1293.7918,2090.5119)"
       id="g4393">
      <g
         id="g4395">
        <path
           style="fill:#f9c321"
           inkscape:connector-curvature="0"
           d="m 2076.176,553.488 -89.632,0 0,10.998 80.161,0 c 3.112,-3.672 6.146,-7.21 8.975,-10.435 0.169,-0.193 0.329,-0.373 0.496,-0.563 z"
           id="path4397" />
      </g>
    </g>
    <g
       transform="translate(-1293.7918,2090.5119)"
       id="g5953">
      <path
         style="fill:#f9c321"
         inkscape:connector-curvature="0"
         d="m 2161.187,709.655 c -7.139,0 -14.729,-3.586 -19.74,-9.432 -6.464,-7.542 -26.289,-41.019 -28.527,-44.811 -1.905,-3.228 -0.835,-7.388 2.393,-9.293 3.225,-1.903 7.388,-0.835 9.292,2.393 5.917,10.021 22.328,37.258 27.147,42.879 2.588,3.019 6.716,4.939 10.013,4.67 2.285,-0.186 4.029,-1.387 5.485,-3.781 l 0.796,-1.307 c 4.217,-6.931 5.351,-8.794 8.055,-12.849 2.079,-3.118 6.292,-3.96 9.409,-1.881 3.118,2.079 3.961,6.292 1.882,9.41 -2.547,3.821 -3.547,5.463 -7.753,12.375 l -0.795,1.308 c -3.698,6.075 -9.373,9.717 -15.982,10.252 -0.555,0.045 -1.114,0.067 -1.675,0.067 z"
         id="path5955" />
    </g>
    <g
       transform="translate(-1293.7918,2090.5119)"
       id="g5957">
      <path
         style="fill:#f9c321"
         inkscape:connector-curvature="0"
         d="m 2131.144,709.056 c -0.01,-0.012 -0.022,-0.027 -0.032,-0.039 -0.934,0.228 -1.849,0.361 -2.728,0.363 -0.01,0 -0.017,0 -0.025,0 -2.907,0 -5.227,-1.351 -7.091,-4.13 -8.546,-12.748 -24.741,-38.015 -24.904,-38.268 -2.021,-3.155 -6.217,-4.074 -9.374,-2.053 -3.155,2.022 -4.073,6.219 -2.052,9.375 0.163,0.255 16.434,25.639 25.06,38.503 4.387,6.543 10.905,10.144 18.361,10.144 0.02,0 0.041,0 0.062,0 4.835,-0.013 9.843,-1.581 14.593,-4.392 -4.453,-2.374 -8.515,-5.59 -11.87,-9.503 z"
         id="path5959" />
    </g>
    <g
       transform="translate(-1293.7918,2090.5119)"
       id="g5961">
      <path
         style="fill:#f9c321"
         inkscape:connector-curvature="0"
         d="m 2098.725,720.365 c -0.57,-0.852 -1.176,-1.759 -1.806,-2.708 -0.667,0.121 -1.321,0.195 -1.956,0.196 -0.01,0 -0.017,0 -0.025,0 -2.906,0 -5.227,-1.351 -7.091,-4.131 -8.543,-12.741 -17.81,-27.23 -17.902,-27.375 -2.018,-3.158 -6.217,-4.081 -9.372,-2.063 -3.157,2.019 -4.081,6.215 -2.063,9.372 0.094,0.146 9.438,14.756 18.066,27.624 4.387,6.543 10.904,10.144 18.361,10.144 0.02,0 0.041,0 0.061,0 3.746,-0.01 7.595,-0.958 11.348,-2.683 -2.873,-2.324 -5.445,-5.129 -7.621,-8.376 z"
         id="path5963" />
    </g>
    <g
       transform="translate(-1293.7918,2090.5119)"
       id="g5965">
      <path
         style="fill:#f9c321"
         inkscape:connector-curvature="0"
         d="m 2058.528,718.618 c -7.458,-1.93 -13.138,-7.856 -17.929,-14.16 -5.062,-6.662 -19.464,-30.981 -28.789,-46.284 -1.231,-2.021 -3.427,-3.254 -5.794,-3.254 l -15.659,0 c -3.748,0 -6.785,3.038 -6.785,6.786 0,3.748 3.037,6.786 6.785,6.786 l 11.854,0 c 6.445,10.532 21.832,36.61 27.584,44.178 4.199,5.526 10.106,12.406 18.577,16.592 4.922,2.433 10.027,3.648 15.29,3.648 1.49,0 2.996,-0.113 4.512,-0.309 -1.018,-1.179 -1.979,-2.433 -2.87,-3.763 -2.266,-3.379 -4.584,-6.882 -6.776,-10.22 z"
         id="path5967" />
    </g>
  </g>
</svg>
