<?xml version="1.0" encoding="UTF-8" standalone="no"?>
<!-- Created with Inkscape (http://www.inkscape.org/) -->

<svg
   xmlns:dc="http://purl.org/dc/elements/1.1/"
   xmlns:cc="http://creativecommons.org/ns#"
   xmlns:rdf="http://www.w3.org/1999/02/22-rdf-syntax-ns#"
   xmlns:svg="http://www.w3.org/2000/svg"
   xmlns="http://www.w3.org/2000/svg"
   xmlns:sodipodi="http://sodipodi.sourceforge.net/DTD/sodipodi-0.dtd"
   xmlns:inkscape="http://www.inkscape.org/namespaces/inkscape"
   width="210mm"
   height="297mm"
   viewBox="0 0 744.09448819 1052.3622047"
   id="svg8737"
   version="1.1"
   inkscape:version="0.91 r13725">
  <defs
     id="defs8739" />
  <sodipodi:namedview
     id="base"
     pagecolor="#ffffff"
     bordercolor="#666666"
     borderopacity="1.0"
     inkscape:pageopacity="0.0"
     inkscape:pageshadow="2"
     inkscape:zoom="0.35"
     inkscape:cx="375"
     inkscape:cy="520"
     inkscape:document-units="px"
     inkscape:current-layer="layer1"
     showgrid="false"
     inkscape:window-width="1600"
     inkscape:window-height="838"
     inkscape:window-x="-8"
     inkscape:window-y="-8"
     inkscape:window-maximized="1" />
  <metadata
     id="metadata8742">
    <rdf:RDF>
      <cc:Work
         rdf:about="">
        <dc:format>image/svg+xml</dc:format>
        <dc:type
           rdf:resource="http://purl.org/dc/dcmitype/StillImage" />
        <dc:title></dc:title>
      </cc:Work>
    </rdf:RDF>
  </metadata>
  <g
     inkscape:label="Layer 1"
     inkscape:groupmode="layer"
     id="layer1">
    <g
       transform="translate(-2905.9123,-2816.2301)"
       id="g2413">
      <g
         id="g2415">
        <g
           id="g2417">
          <path
             d="m 3089.272,2833.841 c -35.537,0 -49.074,22.844 -49.074,22.844 0,0 -13.539,-22.844 -49.074,-22.844 -35.537,0 -74.457,21.996 -74.457,76.148 0,7.256 1.201,14.619 3.342,21.998 l 34.059,0 11.893,-23.412 c 1.069,-2.105 3.273,-3.383 5.645,-3.229 2.356,0.145 4.402,1.676 5.207,3.896 l 20.529,56.779 20.196,-79.076 c 0.646,-2.533 2.88,-4.344 5.493,-4.451 2.587,-0.123 4.988,1.512 5.844,3.982 l 19.992,57.836 7.703,-10.533 c 1.115,-1.525 2.891,-2.428 4.78,-2.428 l 51.19,0 c 3.271,0 5.922,2.65 5.922,5.922 0,3.272 -2.651,5.924 -5.922,5.924 l -48.184,0 -12.609,17.244 c -1.301,1.779 -3.478,2.693 -5.662,2.361 -2.18,-0.326 -3.996,-1.838 -4.717,-3.924 l -17.24,-49.873 -20.074,78.596 c -0.644,2.52 -2.854,4.324 -5.451,4.451 -0.097,0 -0.193,0.01 -0.289,0.01 -2.482,0 -4.717,-1.555 -5.566,-3.908 l -22.422,-62.012 -7.342,14.451 c -1.01,1.988 -3.051,3.242 -5.281,3.242 l -33.471,0 c 26.833,63.855 115.967,125.223 115.967,125.223 0,0 123.53,-85.033 123.53,-159.066 0,-54.151 -38.921,-76.147 -74.457,-76.147 z"
             id="path2419"
             inkscape:connector-curvature="0"
             style="fill:#f9c321" />
        </g>
      </g>
    </g>
  </g>
</svg>
