<?xml version="1.0" encoding="UTF-8" standalone="no"?>
<!-- Created with Inkscape (http://www.inkscape.org/) -->

<svg
   xmlns:dc="http://purl.org/dc/elements/1.1/"
   xmlns:cc="http://creativecommons.org/ns#"
   xmlns:rdf="http://www.w3.org/1999/02/22-rdf-syntax-ns#"
   xmlns:svg="http://www.w3.org/2000/svg"
   xmlns="http://www.w3.org/2000/svg"
   xmlns:sodipodi="http://sodipodi.sourceforge.net/DTD/sodipodi-0.dtd"
   xmlns:inkscape="http://www.inkscape.org/namespaces/inkscape"
   width="60.209686mm"
   height="59.923115mm"
   viewBox="0 0 213.34141 212.32599"
   id="svg2"
   version="1.1"
   inkscape:version="0.91 r13725"
   sodipodi:docname="help-desk.svg">
  <defs
     id="defs4" />
  <sodipodi:namedview
     id="base"
     pagecolor="#ffffff"
     bordercolor="#666666"
     borderopacity="1.0"
     inkscape:pageopacity="0.0"
     inkscape:pageshadow="2"
     inkscape:zoom="0.35"
     inkscape:cx="-121.25336"
     inkscape:cy="-499.05286"
     inkscape:document-units="px"
     inkscape:current-layer="layer1"
     showgrid="false"
     fit-margin-top="0"
     fit-margin-left="0"
     fit-margin-right="0"
     fit-margin-bottom="0"
     inkscape:window-width="1600"
     inkscape:window-height="838"
     inkscape:window-x="-8"
     inkscape:window-y="-8"
     inkscape:window-maximized="1" />
  <metadata
     id="metadata7">
    <rdf:RDF>
      <cc:Work
         rdf:about="">
        <dc:format>image/svg+xml</dc:format>
        <dc:type
           rdf:resource="http://purl.org/dc/dcmitype/StillImage" />
        <dc:title></dc:title>
      </cc:Work>
    </rdf:RDF>
  </metadata>
  <g
     inkscape:label="Layer 1"
     inkscape:groupmode="layer"
     id="layer1"
     transform="translate(-496.25338,-1763.8405)">
    <g
       transform="translate(-729.88261,118.34647)"
       id="g725">
      <g
         id="g727">
        <path
           d="m 1331.728,1857.82 c -10e-4,0 -10e-4,0 0,0 -6.217,0 -12.63,-1.882 -19.06,-5.596 -8.962,-5.175 -28.344,-25.226 -30.524,-27.494 -42.089,-44.4 -58.388,-88.355 -55.731,-110.42 1.084,-9.006 5.063,-13.313 8.208,-15.342 10.229,-6.592 17.192,-9.405 23.283,-9.405 11.008,0 16.397,9.081 23.221,20.578 0.582,0.979 1.182,1.991 1.807,3.034 4.773,7.97 6.013,15.676 3.685,22.902 -2.525,7.842 -8.741,13.016 -13.047,15.791 3.341,9.19 13.468,32.271 35.583,48.856 1.328,0.994 2.68,1.419 4.521,1.419 2.093,0 4.512,-0.568 7.072,-1.17 3.1,-0.73 6.305,-1.482 9.756,-1.482 6.277,0 11.414,2.548 15.707,7.787 l 0.608,0.742 c 3.873,4.718 8.693,10.591 11.203,17.039 4.188,10.758 0.027,18.323 -4.2,22.771 -6.209,6.537 -13.847,9.99 -22.09,9.99 z m -73.827,-157.257 c -3.668,0 -9.335,2.502 -17.325,7.652 -1.646,1.061 -2.799,3.693 -3.246,7.412 -1.969,16.351 10.46,56.877 52.769,101.509 5.601,5.827 21.616,21.837 28.067,25.563 4.67,2.696 9.358,4.122 13.561,4.122 l 10e-4,0 c 5.302,0 9.918,-2.146 14.114,-6.563 6.022,-6.34 2.37,-13.196 -7.531,-25.258 l -0.615,-0.75 c -2.705,-3.305 -5.058,-3.758 -7.197,-3.758 -2.176,0 -4.635,0.577 -7.238,1.188 -3.059,0.722 -6.221,1.466 -9.59,1.466 -4.233,0 -7.871,-1.185 -11.119,-3.62 -31.209,-23.404 -40.554,-57.393 -40.937,-58.828 -0.702,-2.633 0.631,-5.383 3.132,-6.463 0.069,-0.031 9.031,-4.071 11.414,-11.578 1.291,-4.064 0.394,-8.718 -2.668,-13.828 -0.632,-1.058 -1.24,-2.081 -1.828,-3.074 -6.254,-10.534 -9.21,-15.192 -13.764,-15.192 z"
           id="path729"
           inkscape:connector-curvature="0"
           style="fill:#f9c321" />
      </g>
    </g>
    <g
       transform="translate(-729.88261,118.34647)"
       id="g731">
      <g
         id="g733">
        <path
           d="m 1348.952,1675.719 c 0,2.932 -2.377,5.311 -5.311,5.311 l 0,0 c -2.933,0 -5.311,-2.379 -5.311,-5.311 l 0,-24.915 c 0,-2.933 2.378,-5.31 5.311,-5.31 l 0,0 c 2.934,0 5.311,2.377 5.311,5.31 l 0,24.915 z"
           id="path735"
           inkscape:connector-curvature="0"
           style="fill:#f9c321" />
      </g>
    </g>
    <g
       transform="translate(-729.88261,118.34647)"
       id="g737">
      <g
         id="g739">
        <g
           id="g741">
          <path
             d="m 1323.967,1678.51 c 1.099,2.719 -0.215,5.814 -2.935,6.914 l 0,0 c -2.719,1.099 -5.813,-0.214 -6.912,-2.935 l -9.334,-23.102 c -1.099,-2.718 0.215,-5.813 2.935,-6.912 l 0,0 c 2.719,-1.099 5.814,0.215 6.913,2.935 l 9.333,23.1 z"
             id="path743"
             inkscape:connector-curvature="0"
             style="fill:#f9c321" />
        </g>
      </g>
      <g
         id="g745">
        <g
           id="g747">
          <path
             d="m 1373.164,1800.279 c -1.098,-2.721 -4.193,-4.033 -6.913,-2.936 l 0,0 c -2.719,1.1 -4.032,4.193 -2.935,6.915 l 9.334,23.101 c 1.099,2.719 4.193,4.031 6.913,2.933 l 0,0 c 2.72,-1.098 4.033,-4.193 2.935,-6.912 l -9.334,-23.101 z"
             id="path749"
             inkscape:connector-curvature="0"
             style="fill:#f9c321" />
        </g>
      </g>
    </g>
    <g
       transform="translate(-729.88261,118.34647)"
       id="g751">
      <g
         id="g753">
        <g
           id="g755">
          <path
             d="m 1301.847,1690.459 c 2.037,2.109 1.979,5.471 -0.131,7.51 l 0,0 c -2.109,2.037 -5.472,1.979 -7.509,-0.13 l -17.308,-17.925 c -2.037,-2.109 -1.979,-5.473 0.131,-7.508 l 0,0 c 2.11,-2.037 5.472,-1.979 7.509,0.131 l 17.308,17.922 z"
             id="path757"
             inkscape:connector-curvature="0"
             style="fill:#f9c321" />
        </g>
      </g>
      <g
         id="g759">
        <g
           id="g761">
          <path
             d="m 1393.077,1784.93 c -2.037,-2.108 -5.399,-2.168 -7.51,-0.129 l 0,0 c -2.109,2.036 -2.167,5.399 -0.131,7.51 l 17.308,17.922 c 2.038,2.109 5.399,2.167 7.51,0.129 l 0,0 c 2.109,-2.036 2.168,-5.398 0.131,-7.508 l -17.308,-17.924 z"
             id="path763"
             inkscape:connector-curvature="0"
             style="fill:#f9c321" />
        </g>
      </g>
    </g>
    <g
       transform="translate(-729.88261,118.34647)"
       id="g765">
      <g
         id="g767">
        <path
           d="m 1405.791,1763.242 c -2.68,-1.193 -5.819,0.011 -7.013,2.689 l 0,0 c -1.191,2.682 0.013,5.82 2.692,7.013 l 22.761,10.134 c 2.68,1.193 5.818,-0.012 7.012,-2.691 l 0,0 c 1.193,-2.68 -0.012,-5.818 -2.691,-7.012 l -22.761,-10.133 z"
           id="path769"
           inkscape:connector-curvature="0"
           style="fill:#f9c321" />
      </g>
    </g>
    <g
       transform="translate(-729.88261,118.34647)"
       id="g771">
      <g
         id="g773">
        <path
           d="m 1409.453,1738.369 c -2.931,-0.104 -5.391,2.189 -5.493,5.122 l 0,0 c -0.102,2.931 2.191,5.39 5.122,5.491 l 24.9,0.869 c 2.932,0.104 5.39,-2.189 5.492,-5.121 l 0,0 c 0.104,-2.931 -2.19,-5.391 -5.121,-5.493 l -24.9,-0.868 z"
           id="path775"
           inkscape:connector-curvature="0"
           style="fill:#f9c321" />
      </g>
    </g>
    <g
       transform="translate(-729.88261,118.34647)"
       id="g777">
      <g
         id="g779">
        <path
           d="m 1403.531,1713.936 c -2.755,1.002 -4.178,4.051 -3.175,6.807 l 0,0 c 1.004,2.755 4.052,4.176 6.807,3.174 l 23.413,-8.523 c 2.757,-1.002 4.177,-4.05 3.174,-6.805 l 0,0 c -1.002,-2.757 -4.051,-4.177 -6.807,-3.174 l -23.412,8.521 z"
           id="path781"
           inkscape:connector-curvature="0"
           style="fill:#f9c321" />
      </g>
    </g>
    <g
       transform="translate(-729.88261,118.34647)"
       id="g783">
      <g
         id="g785">
        <path
           d="m 1388.888,1693.498 c -2.179,1.963 -2.356,5.32 -0.394,7.502 l 0,0 c 1.963,2.178 5.321,2.354 7.5,0.393 l 18.516,-16.672 c 2.181,-1.964 2.355,-5.32 0.394,-7.5 l 0,0 c -1.962,-2.181 -5.321,-2.356 -7.5,-0.393 l -18.516,16.67 z"
           id="path787"
           inkscape:connector-curvature="0"
           style="fill:#f9c321" />
      </g>
    </g>
    <g
       transform="translate(-729.88261,118.34647)"
       id="g789">
      <g
         id="g791">
        <path
           d="m 1367.655,1680.036 c -1.286,2.636 -0.191,5.815 2.445,7.102 l 0,0 c 2.636,1.286 5.814,0.19 7.101,-2.444 l 10.922,-22.395 c 1.286,-2.637 0.191,-5.816 -2.445,-7.102 l 0,0 c -2.636,-1.287 -5.815,-0.189 -7.101,2.446 l -10.922,22.393 z"
           id="path793"
           inkscape:connector-curvature="0"
           style="fill:#f9c321" />
      </g>
    </g>
    <g
       transform="translate(-729.88261,118.34647)"
       id="g795">
      <g
         id="g797">
        <path
           d="m 1311.463,1727.939 c 0,0 -1.128,-15.37 15.652,-14.736 16.781,0.635 15.976,19.199 10.295,26.018 -6.346,7.616 -13.538,14.807 -13.538,14.807 l 15.23,0 0.281,9.519 -27.937,0 0,-11.069 c 0,0 25.027,-20.959 16.938,-27.641 -3.243,-2.679 -7.615,-0.846 -7.615,2.82 l -9.306,0.282 z"
           id="path799"
           inkscape:connector-curvature="0"
           style="fill:#f9c321" />
      </g>
    </g>
    <g
       transform="translate(-729.88261,118.34647)"
       id="g801">
      <g
         id="g803">
        <path
           d="m 1372.976,1744.5 0,-31.297 -10.253,0 -17.558,31.297 0,10.164 17.558,0 0,8.882 8.672,0 0,-9.097 4.442,0 0,-9.949 -2.861,0 z m -6.346,0 -13.82,0 11.07,-20.729 2.75,0 0,20.729 z"
           id="path805"
           inkscape:connector-curvature="0"
           style="fill:#f9c321" />
      </g>
    </g>
  </g>
</svg>
