<?xml version="1.0" encoding="UTF-8" standalone="no"?>
<!-- Created with Inkscape (http://www.inkscape.org/) -->

<svg
   xmlns:dc="http://purl.org/dc/elements/1.1/"
   xmlns:cc="http://creativecommons.org/ns#"
   xmlns:rdf="http://www.w3.org/1999/02/22-rdf-syntax-ns#"
   xmlns:svg="http://www.w3.org/2000/svg"
   xmlns="http://www.w3.org/2000/svg"
   xmlns:sodipodi="http://sodipodi.sourceforge.net/DTD/sodipodi-0.dtd"
   xmlns:inkscape="http://www.inkscape.org/namespaces/inkscape"
   width="210mm"
   height="297mm"
   viewBox="0 0 744.09448819 1052.3622047"
   id="svg8814"
   version="1.1"
   inkscape:version="0.91 r13725">
  <defs
     id="defs8816" />
  <sodipodi:namedview
     id="base"
     pagecolor="#ffffff"
     bordercolor="#666666"
     borderopacity="1.0"
     inkscape:pageopacity="0.0"
     inkscape:pageshadow="2"
     inkscape:zoom="0.35"
     inkscape:cx="397.85714"
     inkscape:cy="497.14286"
     inkscape:document-units="px"
     inkscape:current-layer="layer1"
     showgrid="false"
     inkscape:window-width="1600"
     inkscape:window-height="838"
     inkscape:window-x="-8"
     inkscape:window-y="-8"
     inkscape:window-maximized="1" />
  <metadata
     id="metadata8819">
    <rdf:RDF>
      <cc:Work
         rdf:about="">
        <dc:format>image/svg+xml</dc:format>
        <dc:type
           rdf:resource="http://purl.org/dc/dcmitype/StillImage" />
        <dc:title></dc:title>
      </cc:Work>
    </rdf:RDF>
  </metadata>
  <g
     inkscape:label="Layer 1"
     inkscape:groupmode="layer"
     id="layer1">
    <g
       transform="translate(-3429.8408,-2019.5189)"
       id="g1775">
      <g
         id="g1777">
        <path
           d="m 3549.837,2227.002 c -0.942,0 -1.899,-0.244 -2.772,-0.754 l -50.289,-29.424 -51.958,29.461 c -2.076,1.176 -4.674,0.881 -6.432,-0.732 -1.758,-1.613 -2.275,-4.176 -1.28,-6.344 l 34.407,-75.021 c 0.594,-1.295 1.666,-2.307 2.991,-2.828 l 28.768,-11.281 c 2.828,-1.105 6.019,0.285 7.128,3.111 1.109,2.828 -0.284,6.02 -3.111,7.131 l -26.702,10.471 -26.386,57.529 39.906,-22.627 c 1.705,-0.969 3.797,-0.953 5.489,0.037 l 53.023,31.023 c 2.622,1.533 3.504,4.9 1.97,7.523 -1.023,1.751 -2.863,2.725 -4.752,2.725 z"
           id="path1779"
           inkscape:connector-curvature="0"
           style="fill:#f9c321" />
      </g>
    </g>
    <g
       transform="translate(-3429.8408,-2019.5189)"
       id="g1781">
      <g
         id="g1783">
        <path
           d="m 3657.576,2227 c -0.929,0 -1.863,-0.234 -2.711,-0.715 l -51.958,-29.461 -50.288,29.424 c -1.7,0.994 -3.804,1.004 -5.513,0.023 -1.71,-0.98 -2.764,-2.801 -2.764,-4.77 l 0,-26.512 c 0,-3.037 2.462,-5.5 5.5,-5.5 3.037,0 5.499,2.463 5.499,5.5 l 0,16.92 44.745,-26.18 c 1.692,-0.99 3.783,-1.006 5.49,-0.037 l 39.905,22.627 -26.386,-57.529 -26.701,-10.471 c -2.828,-1.111 -4.222,-4.303 -3.112,-7.131 1.108,-2.826 4.3,-4.219 7.128,-3.111 l 28.768,11.281 c 1.325,0.521 2.397,1.533 2.991,2.828 l 34.407,75.021 c 0.994,2.168 0.478,4.73 -1.28,6.344 -1.04,0.955 -2.373,1.449 -3.72,1.449 z"
           id="path1785"
           inkscape:connector-curvature="0"
           style="fill:#f9c321" />
      </g>
    </g>
    <g
       transform="translate(-3429.8408,-2019.5189)"
       id="g1787">
      <g
         id="g1789">
        <path
           d="m 3496.814,2195.979 c -0.789,0 -1.59,-0.17 -2.351,-0.531 -2.745,-1.299 -3.916,-4.578 -2.615,-7.324 l 15.229,-32.152 c 1.3,-2.744 4.579,-3.916 7.325,-2.615 2.744,1.301 3.915,4.578 2.615,7.324 l -15.229,32.152 c -0.939,1.984 -2.915,3.146 -4.974,3.146 z"
           id="path1791"
           inkscape:connector-curvature="0"
           style="fill:#f9c321" />
      </g>
    </g>
    <g
       transform="translate(-3429.8408,-2019.5189)"
       id="g1793">
      <g
         id="g1795">
        <path
           d="m 3602.867,2195.979 c -2.059,0 -4.033,-1.162 -4.974,-3.146 l -15.229,-32.152 c -1.3,-2.746 -0.13,-6.023 2.616,-7.324 2.745,-1.301 6.023,-0.129 7.324,2.615 l 15.229,32.152 c 1.3,2.746 0.129,6.025 -2.615,7.324 -0.76,0.361 -1.562,0.531 -2.351,0.531 z"
           id="path1797"
           inkscape:connector-curvature="0"
           style="fill:#f9c321" />
      </g>
    </g>
    <g
       transform="translate(-3429.8408,-2019.5189)"
       id="g1799">
      <g
         id="g1801">
        <path
           d="m 3549.843,2176.797 c -1.227,0 -2.452,-0.408 -3.461,-1.227 -11.7,-9.473 -44.19,-64.184 -44.19,-92.893 0,-25.986 11.886,-38.584 21.857,-44.576 10.891,-6.545 22.164,-7.055 25.36,-7.055 0.184,0 0.328,0 0.433,0 0.104,0 0.249,0 0.434,0 3.195,0 14.47,0.51 25.36,7.055 9.97,5.994 21.854,18.592 21.854,44.576 0,28.707 -32.488,83.42 -44.187,92.893 -1.009,0.819 -2.235,1.227 -3.46,1.227 z m -0.434,-134.752 c -1.765,0 -11.013,0.266 -19.694,5.484 -10.966,6.588 -16.524,18.412 -16.524,35.148 0,21.893 24.629,66.373 36.651,80.762 12.021,-14.389 36.649,-58.871 36.649,-80.762 0,-38.672 -30.169,-40.633 -36.216,-40.633 l -0.255,0 c -0.119,0 -0.258,0 -0.376,0 l -0.235,0 z m 0.434,65.981 c -11.86,0 -21.508,-10.1 -21.508,-22.514 0,-12.414 9.647,-22.514 21.508,-22.514 11.857,0 21.506,10.1 21.506,22.514 0,12.414 -9.649,22.514 -21.506,22.514 z m 0,-34.027 c -5.795,0 -10.509,5.164 -10.509,11.514 0,6.35 4.714,11.514 10.509,11.514 5.793,0 10.506,-5.164 10.506,-11.514 0,-6.35 -4.713,-11.514 -10.506,-11.514 z"
           id="path1803"
           inkscape:connector-curvature="0"
           style="fill:#f9c321" />
      </g>
    </g>
  </g>
</svg>
