<?xml version="1.0" encoding="UTF-8" standalone="no"?>
<!-- Created with Inkscape (http://www.inkscape.org/) -->

<svg
   xmlns:dc="http://purl.org/dc/elements/1.1/"
   xmlns:cc="http://creativecommons.org/ns#"
   xmlns:rdf="http://www.w3.org/1999/02/22-rdf-syntax-ns#"
   xmlns:svg="http://www.w3.org/2000/svg"
   xmlns="http://www.w3.org/2000/svg"
   xmlns:sodipodi="http://sodipodi.sourceforge.net/DTD/sodipodi-0.dtd"
   xmlns:inkscape="http://www.inkscape.org/namespaces/inkscape"
   width="55.475681mm"
   height="53.617008mm"
   viewBox="0 0 196.56737 189.98152"
   id="svg9987"
   version="1.1"
   inkscape:version="0.91 r13725"
   sodipodi:docname="insurance.svg">
  <defs
     id="defs9989" />
  <sodipodi:namedview
     id="base"
     pagecolor="#ffffff"
     bordercolor="#666666"
     borderopacity="1.0"
     inkscape:pageopacity="0.0"
     inkscape:pageshadow="2"
     inkscape:zoom="0.35"
     inkscape:cx="923.28364"
     inkscape:cy="223.56224"
     inkscape:document-units="px"
     inkscape:current-layer="layer1"
     showgrid="false"
     fit-margin-top="0"
     fit-margin-left="0"
     fit-margin-right="0"
     fit-margin-bottom="0"
     inkscape:window-width="1600"
     inkscape:window-height="838"
     inkscape:window-x="-8"
     inkscape:window-y="-8"
     inkscape:window-maximized="1" />
  <metadata
     id="metadata9992">
    <rdf:RDF>
      <cc:Work
         rdf:about="">
        <dc:format>image/svg+xml</dc:format>
        <dc:type
           rdf:resource="http://purl.org/dc/dcmitype/StillImage" />
        <dc:title></dc:title>
      </cc:Work>
    </rdf:RDF>
  </metadata>
  <g
     inkscape:label="Layer 1"
     inkscape:groupmode="layer"
     id="layer1"
     transform="translate(975.4265,-1023.0858)">
    <g
       id="g5165"
       transform="translate(-1135.7368,-2680.8147)">
      <g
         id="g5167">
        <g
           id="g5169">
          <g
             id="g5171">
            <path
               id="path5173"
               d="m 266.281,3893.882 c -18.661,0 -33.844,-15.182 -33.844,-33.842 0,-18.662 15.183,-33.846 33.844,-33.846 18.662,0 33.844,15.184 33.844,33.846 0,18.661 -15.182,33.842 -33.844,33.842 z m 0,-60.918 c -14.929,0 -27.075,12.145 -27.075,27.076 0,14.928 12.146,27.074 27.075,27.074 14.929,0 27.076,-12.146 27.076,-27.074 0,-14.931 -12.147,-27.076 -27.076,-27.076 z"
               inkscape:connector-curvature="0"
               style="fill:#9e9d9b" />
          </g>
        </g>
      </g>
      <g
         id="g5175">
        <g
           id="g5177">
          <circle
             id="circle5179"
             r="10.296"
             cy="3860.041"
             cx="266.28101"
             style="fill:#9e9d9b" />
        </g>
      </g>
      <g
         id="g5181">
        <g
           id="g5183">
          <g
             id="g5185">
            <path
               id="path5187"
               d="m 296.744,3851.392 c -1.215,0 -2.388,-0.656 -2.995,-1.805 -0.873,-1.652 -0.242,-3.699 1.41,-4.572 l 52.459,-27.734 c 1.652,-0.877 3.7,-0.242 4.573,1.412 0.873,1.65 0.242,3.699 -1.41,4.572 l -52.459,27.732 c -0.504,0.268 -1.045,0.395 -1.578,0.395 z"
               inkscape:connector-curvature="0"
               style="fill:#9e9d9b" />
          </g>
        </g>
      </g>
      <g
         id="g5189">
        <g
           id="g5191">
          <g
             id="g5193">
            <path
               id="path5195"
               d="m 247.218,3835.64 c -0.44,-0.889 -44.187,-89.199 -55.905,-113.607 -4.234,-8.82 -10.03,-12.807 -15.901,-10.955 -5.491,1.736 -9.155,7.961 -8.17,13.875 l -6.677,1.113 c -1.544,-9.264 4.082,-18.684 12.805,-21.443 3.482,-1.1 15.502,-3.311 24.045,14.48 11.701,24.373 55.428,112.645 55.868,113.533 l -6.065,3.004 z"
               inkscape:connector-curvature="0"
               style="fill:#9e9d9b" />
          </g>
        </g>
      </g>
      <g
         id="g5197">
        <g
           id="g5199">
          <g
             id="g5201">
            <path
               id="path5203"
               d="m 283.969,3838.494 c -0.605,0 -1.209,-0.162 -1.746,-0.484 -3.837,-2.309 -8.146,-4.084 -11.247,-4.637 -1.016,-0.18 -1.896,-0.814 -2.386,-1.723 l -36.655,-67.9 c -0.888,-1.645 -0.274,-3.699 1.37,-4.588 l 77.006,-41.572 c 1.646,-0.887 3.699,-0.275 4.586,1.369 l 41.574,77.008 c 0.888,1.645 0.273,3.697 -1.37,4.584 l -69.524,37.537 c -0.503,0.271 -1.056,0.406 -1.608,0.406 z m -10.161,-11.43 c 3.118,0.781 6.748,2.262 10.212,4.17 l 64.887,-35.029 -38.357,-71.051 -71.051,38.357 34.309,63.553 z"
               inkscape:connector-curvature="0"
               style="fill:#9e9d9b" />
          </g>
        </g>
      </g>
      <g
         id="g5205">
        <g
           id="g5207">
          <g
             id="g5209">
            <path
               id="path5211"
               d="m 296.734,3805.457 c -1.241,0 -2.437,-0.688 -3.029,-1.873 l -7.193,-14.379 -5.35,2.861 c -1.125,0.602 -2.492,0.52 -3.537,-0.213 -1.045,-0.733 -1.591,-1.99 -1.408,-3.252 l 4.8,-33.402 c 0.157,-1.102 0.849,-2.055 1.846,-2.551 0.997,-0.494 2.175,-0.467 3.149,0.076 l 29.337,16.326 c 1.112,0.617 1.782,1.805 1.736,3.076 -0.046,1.271 -0.8,2.41 -1.952,2.947 l -5.5,2.566 7.194,14.379 c 0.401,0.803 0.468,1.732 0.185,2.584 -0.283,0.852 -0.895,1.557 -1.697,1.957 l -17.068,8.535 c -0.487,0.247 -1.004,0.363 -1.513,0.363 z m -8.751,-24.262 c 0.345,0 0.69,0.053 1.025,0.16 0.87,0.277 1.593,0.893 2.001,1.711 l 7.235,14.463 11.014,-5.508 -7.235,-14.465 c -0.409,-0.816 -0.471,-1.764 -0.17,-2.627 0.301,-0.863 0.938,-1.568 1.766,-1.955 l 2.646,-1.234 -19.249,-10.709 -3.149,21.912 2.52,-1.35 c 0.497,-0.263 1.045,-0.398 1.596,-0.398 z"
               inkscape:connector-curvature="0"
               style="fill:#9e9d9b" />
          </g>
        </g>
      </g>
    </g>
  </g>
</svg>
