<?xml version="1.0" encoding="UTF-8" standalone="no"?>
<!-- Created with Inkscape (http://www.inkscape.org/) -->

<svg
   xmlns:dc="http://purl.org/dc/elements/1.1/"
   xmlns:cc="http://creativecommons.org/ns#"
   xmlns:rdf="http://www.w3.org/1999/02/22-rdf-syntax-ns#"
   xmlns:svg="http://www.w3.org/2000/svg"
   xmlns="http://www.w3.org/2000/svg"
   xmlns:sodipodi="http://sodipodi.sourceforge.net/DTD/sodipodi-0.dtd"
   xmlns:inkscape="http://www.inkscape.org/namespaces/inkscape"
   width="46.802605mm"
   height="53.888077mm"
   viewBox="0 0 165.83601 190.942"
   id="svg2"
   version="1.1"
   inkscape:version="0.91 r13725"
   sodipodi:docname="laundry-shape.svg">
  <defs
     id="defs4" />
  <sodipodi:namedview
     id="base"
     pagecolor="#ffffff"
     bordercolor="#666666"
     borderopacity="1.0"
     inkscape:pageopacity="0.0"
     inkscape:pageshadow="2"
     inkscape:zoom="0.35"
     inkscape:cx="-724.37676"
     inkscape:cy="639.61366"
     inkscape:document-units="px"
     inkscape:current-layer="layer1"
     showgrid="false"
     fit-margin-top="0"
     fit-margin-left="0"
     fit-margin-right="0"
     fit-margin-bottom="0"
     inkscape:window-width="1600"
     inkscape:window-height="838"
     inkscape:window-x="-8"
     inkscape:window-y="-8"
     inkscape:window-maximized="1" />
  <metadata
     id="metadata7">
    <rdf:RDF>
      <cc:Work
         rdf:about="">
        <dc:format>image/svg+xml</dc:format>
        <dc:type
           rdf:resource="http://purl.org/dc/dcmitype/StillImage" />
        <dc:title></dc:title>
      </cc:Work>
    </rdf:RDF>
  </metadata>
  <g
     inkscape:label="Layer 1"
     inkscape:groupmode="layer"
     id="layer1"
     transform="translate(-1099.3768,-2923.891)">
    <g
       transform="translate(846.50278,1256.827)"
       id="g235">
      <g
         id="g237">
        <g
           id="g239">
          <rect
             x="332.21399"
             y="1726.1541"
             width="10.999"
             height="126.353"
             id="rect241"
             style="fill:#f9c321" />
        </g>
      </g>
    </g>
    <g
       transform="translate(846.50278,1256.827)"
       id="g243">
      <g
         id="g245">
        <rect
           x="368.366"
           y="1783.829"
           width="44.845001"
           height="11.001"
           id="rect247"
           style="fill:#f9c321" />
      </g>
    </g>
    <g
       transform="translate(846.50278,1256.827)"
       id="g249">
      <g
         id="g251">
        <g
           id="g253">
          <path
             d="m 378.137,1758.165 c -1.015,0 -2.028,-0.28 -2.919,-0.839 l -42.344,-26.51 c -1.606,-1.008 -2.582,-2.768 -2.582,-4.662 0,-1.894 0.976,-3.656 2.582,-4.662 l 42.344,-26.512 c 1.695,-1.062 3.833,-1.118 5.583,-0.148 1.75,0.969 2.835,2.811 2.835,4.811 l 0,53.021 c 0,2.002 -1.085,3.844 -2.835,4.813 -0.83,0.461 -1.748,0.688 -2.664,0.688 z m -31.982,-32.011 26.481,16.579 0,-33.159 -26.481,16.58 z"
             id="path255"
             inkscape:connector-curvature="0"
             style="fill:#f9c321" />
        </g>
      </g>
    </g>
    <g
       transform="translate(846.50278,1256.827)"
       id="g257">
      <g
         id="g259">
        <g
           id="g261">
          <path
             d="m 294.625,1756.098 c -1.749,-0.97 -2.835,-2.813 -2.835,-4.813 l 0,-53.022 c 0,-1.999 1.086,-3.841 2.835,-4.812 1.75,-0.971 3.888,-0.912 5.583,0.149 l 42.345,26.512 c 1.605,1.007 2.581,2.767 2.581,4.661 0,1.896 -0.976,3.658 -2.581,4.662 l -42.345,26.511 c -0.891,0.56 -1.904,0.839 -2.918,0.839 -0.916,0 -1.834,-0.229 -2.665,-0.687 z m 8.164,-47.903 0,33.158 26.481,-16.58 -26.481,-16.578 z"
             id="path263"
             inkscape:connector-curvature="0"
             style="fill:#f9c321" />
        </g>
      </g>
    </g>
    <g
       transform="translate(846.50278,1256.827)"
       id="g1485">
      <g
         id="g1487">
        <path
           d="m 362.061,1667.064 -48.695,0 c -11.896,0 -21.575,9.68 -21.575,21.576 l 0,9.029 c 0,3.037 2.462,5.5 5.5,5.5 l 5.499,0 0,-10.998 0,-3.531 c 0,-5.832 4.744,-10.577 10.576,-10.577 l 48.695,0 c 5.832,0 10.576,4.745 10.576,10.577 l 0,3.531 0,10.998 5.5,0 c 3.038,0 5.499,-2.463 5.499,-5.5 l 0,-9.029 c 0,-11.896 -9.679,-21.576 -21.575,-21.576 z"
           id="path1489"
           inkscape:connector-curvature="0"
           style="fill:#f9c321" />
      </g>
    </g>
    <g
       transform="translate(846.50278,1256.827)"
       id="g1491">
      <g
         id="g1493">
        <path
           d="m 402.211,1692.172 -12.832,0 0,10.998 12.832,0 c 3.032,0 5.5,2.467 5.5,5.499 l 0,138.338 -143.838,0 0,-138.338 c 0,-3.032 2.468,-5.499 5.5,-5.499 l 16.65,0 0,-10.998 -16.65,0 c -9.098,0 -16.499,7.4 -16.499,16.497 l 0,149.337 165.836,0 0,-149.337 c 0,-9.097 -7.401,-16.497 -16.499,-16.497 z"
           id="path1495"
           inkscape:connector-curvature="0"
           style="fill:#f9c321" />
      </g>
    </g>
  </g>
</svg>
