<?xml version="1.0" encoding="utf-8"?>
<!-- Generator: Adobe Illustrator 18.1.0, SVG Export Plug-In . SVG Version: 6.00 Build 0)  -->
<svg version="1.1" baseProfile="tiny" id="Layer_1" xmlns="http://www.w3.org/2000/svg" xmlns:xlink="http://www.w3.org/1999/xlink"
	 x="0px" y="0px" viewBox="0 0 55 26" xml:space="preserve">
<g>
	<path fill="none" stroke="#F8C31F" stroke-width="4" stroke-miterlimit="10" d="M20.3,5c2.7,2.3,5.2,6.3,11.1,12.6
		c2.3,2.5,4.6,4.9,7.9,5.7c3.4,0.8,7.7,0.7,10.5-3.2c2.6-3.5,2.5-8.2,0.5-12.1c-2.4-4.7-9-9.2-16.2-0.4"/>
	<path fill="none" stroke="#F8C31F" stroke-width="4" stroke-miterlimit="10" d="M24,9c-2-2.7-4.6-5.4-8.1-6.1
		C12.4,2.3,8.2,2.2,5.3,6.1c-2.6,3.5-2.5,8.2-0.5,12.1c2.4,4.7,9,9.2,16.2,0.4"/>
</g>
</svg>