<?xml version="1.0" encoding="UTF-8" standalone="no"?>
<!-- Created with Inkscape (http://www.inkscape.org/) -->

<svg
   xmlns:dc="http://purl.org/dc/elements/1.1/"
   xmlns:cc="http://creativecommons.org/ns#"
   xmlns:rdf="http://www.w3.org/1999/02/22-rdf-syntax-ns#"
   xmlns:svg="http://www.w3.org/2000/svg"
   xmlns="http://www.w3.org/2000/svg"
   xmlns:sodipodi="http://sodipodi.sourceforge.net/DTD/sodipodi-0.dtd"
   xmlns:inkscape="http://www.inkscape.org/namespaces/inkscape"
   width="49.827744mm"
   height="51.499065mm"
   viewBox="0 0 176.555 182.477"
   id="svg5294"
   version="1.1"
   inkscape:version="0.91 r13725">
  <defs
     id="defs5296" />
  <sodipodi:namedview
     id="base"
     pagecolor="#ffffff"
     bordercolor="#666666"
     borderopacity="1.0"
     inkscape:pageopacity="0.0"
     inkscape:pageshadow="2"
     inkscape:zoom="0.35"
     inkscape:cx="88.2775"
     inkscape:cy="91.238495"
     inkscape:document-units="px"
     inkscape:current-layer="layer1"
     showgrid="false"
     fit-margin-top="0"
     fit-margin-left="0"
     fit-margin-right="0"
     fit-margin-bottom="0"
     inkscape:window-width="1600"
     inkscape:window-height="838"
     inkscape:window-x="-8"
     inkscape:window-y="-8"
     inkscape:window-maximized="1" />
  <metadata
     id="metadata5299">
    <rdf:RDF>
      <cc:Work
         rdf:about="">
        <dc:format>image/svg+xml</dc:format>
        <dc:type
           rdf:resource="http://purl.org/dc/dcmitype/StillImage" />
        <dc:title></dc:title>
      </cc:Work>
    </rdf:RDF>
  </metadata>
  <g
     inkscape:label="Layer 1"
     inkscape:groupmode="layer"
     id="layer1"
     transform="translate(-286.7225,-441.1237)">
    <g
       transform="translate(-1786.8935,-2390.3733)"
       id="g2309">
      <g
         id="g2311">
        <g
           id="g2313">
          <path
             d="m 2161.893,3013.974 c -28.68,0 -48.103,-0.691 -62.501,-4.223 -17.345,-4.254 -25.776,-12.834 -25.776,-26.238 0,-33.645 55.346,-40.59 57.702,-40.871 1.541,-0.18 3.005,0.705 3.558,2.15 0.233,0.584 6.104,14.748 27.018,14.748 l 0,6.771 c -20.303,0 -29.139,-11.412 -32.107,-16.602 -10.082,1.635 -49.4,9.57 -49.4,33.803 0,20.271 25.145,23.691 81.508,23.691 l 0,6.771 z"
             id="path2315"
             inkscape:connector-curvature="0"
             style="fill:#f9c321" />
        </g>
      </g>
    </g>
    <g
       transform="translate(-1786.8935,-2390.3733)"
       id="g2317">
      <g
         id="g2319">
        <g
           id="g2321">
          <path
             d="m 2134.354,2951.447 -2.841,-6.143 c 4.757,-2.199 5.56,-7.826 5.56,-19.607 l 6.769,0 c 0,10.013 0,21.363 -9.488,25.75 z"
             id="path2323"
             inkscape:connector-curvature="0"
             style="fill:#f9c321" />
        </g>
      </g>
    </g>
    <g
       transform="translate(-1786.8935,-2390.3733)"
       id="g2325">
      <g
         id="g2327">
        <g
           id="g2329">
          <path
             d="m 2161.627,2938.107 c -3.801,0 -12.409,-0.074 -20.166,-6.271 -9.461,-7.559 -14.259,-21.486 -14.259,-41.393 l 6.77,0 c 0,17.746 3.941,29.895 11.715,36.104 5.998,4.793 12.787,4.77 16.079,4.791 l 0.127,0 0,6.77 -0.126,0 c -0.046,0 -0.093,0 -0.14,0 z"
             id="path2331"
             inkscape:connector-curvature="0"
             style="fill:#f9c321" />
        </g>
      </g>
    </g>
    <g
       transform="translate(-1786.8935,-2390.3733)"
       id="g2333">
      <g
         id="g2335">
        <g
           id="g2337">
          <path
             d="m 2161.893,3013.974 0,-6.77 c 56.363,0 81.509,-3.42 81.509,-23.691 0,-24.268 -39.319,-32.18 -49.399,-33.805 -2.969,5.189 -11.805,16.604 -32.109,16.604 l 0,-6.771 c 20.913,0 26.785,-14.164 27.024,-14.768 0.566,-1.424 2.028,-2.299 3.551,-2.131 2.356,0.281 57.702,7.227 57.702,40.871 0,13.404 -8.432,21.984 -25.776,26.238 -14.4,3.532 -33.823,4.223 -62.502,4.223 z"
             id="path2339"
             inkscape:connector-curvature="0"
             style="fill:#f9c321" />
        </g>
      </g>
    </g>
    <g
       transform="translate(-1786.8935,-2390.3733)"
       id="g2341">
      <g
         id="g2343">
        <g
           id="g2345">
          <path
             d="m 2189.431,2951.447 c -9.487,-4.387 -9.487,-15.736 -9.487,-25.75 l 6.77,0 c 0,11.781 0.802,17.408 5.559,19.607 l -2.842,6.143 z"
             id="path2347"
             inkscape:connector-curvature="0"
             style="fill:#f9c321" />
        </g>
      </g>
    </g>
    <g
       transform="translate(-1786.8935,-2390.3733)"
       id="g2349">
      <g
         id="g2351">
        <g
           id="g2353">
          <path
             d="m 2161.893,2938.107 0,-6.77 c 10.428,0 27.922,-4.543 27.922,-34.965 l 6.769,0 c -10e-4,38.725 -26.554,41.735 -34.691,41.735 z"
             id="path2355"
             inkscape:connector-curvature="0"
             style="fill:#f9c321" />
        </g>
      </g>
    </g>
    <g
       transform="translate(-1786.8935,-2390.3733)"
       id="g2357">
      <g
         id="g2359">
        <g
           id="g2361">
          <path
             d="m 2194.411,2901.865 c -3.601,0 -10.279,-1.662 -14.539,-12.803 -1.778,-4.648 -4.226,-9.766 -6.092,-13.473 -2.916,4.248 -7.529,9.791 -12.887,11.934 -1.701,0.678 -3.632,-0.117 -4.36,-1.793 l -2.181,-5.016 c -5.173,5.111 -15.151,13.533 -25.565,14.51 -1.246,0.119 -2.455,-0.465 -3.144,-1.512 -0.39,-0.592 -3.8,-6.137 -3.8,-18.498 0,-6.453 2.232,-17.254 8.521,-26.463 5.376,-7.871 15.601,-17.254 33.783,-17.254 14.561,0 27.208,6.98 34.697,19.15 8.733,14.188 8.965,32.535 0.618,49.076 -0.392,0.777 -1.068,1.373 -1.887,1.664 -0.313,0.113 -1.47,0.478 -3.164,0.478 z m -20.391,-36.522 c 1.236,0 2.375,0.674 2.97,1.76 0.234,0.428 5.786,10.598 9.206,19.543 2.035,5.322 4.865,8.309 7.991,8.445 6.495,-13.998 6.114,-29.168 -1.105,-40.896 -6.229,-10.121 -16.774,-15.926 -28.933,-15.926 -29.007,0 -35.536,27.359 -35.536,36.945 0,6.498 1.073,10.688 1.864,12.891 11.224,-2.584 22.223,-15.496 22.341,-15.635 0.755,-0.895 1.922,-1.334 3.077,-1.168 1.16,0.17 2.148,0.924 2.615,2 l 2.717,6.246 c 4.389,-3.381 8.41,-9.777 9.802,-12.404 0.583,-1.1 1.724,-1.791 2.969,-1.801 0.01,0 0.015,0 0.022,0 z"
             id="path2363"
             inkscape:connector-curvature="0"
             style="fill:#f9c321" />
        </g>
      </g>
    </g>
  </g>
</svg>
