<?xml version="1.0" encoding="UTF-8" standalone="no"?>
<!-- Created with Inkscape (http://www.inkscape.org/) -->

<svg
   xmlns:dc="http://purl.org/dc/elements/1.1/"
   xmlns:cc="http://creativecommons.org/ns#"
   xmlns:rdf="http://www.w3.org/1999/02/22-rdf-syntax-ns#"
   xmlns:svg="http://www.w3.org/2000/svg"
   xmlns="http://www.w3.org/2000/svg"
   xmlns:sodipodi="http://sodipodi.sourceforge.net/DTD/sodipodi-0.dtd"
   xmlns:inkscape="http://www.inkscape.org/namespaces/inkscape"
   width="53.846588mm"
   height="52.294647mm"
   viewBox="0 0 190.795 185.29599"
   id="svg5222"
   version="1.1"
   inkscape:version="0.91 r13725">
  <defs
     id="defs5224" />
  <sodipodi:namedview
     id="base"
     pagecolor="#ffffff"
     bordercolor="#666666"
     borderopacity="1.0"
     inkscape:pageopacity="0.0"
     inkscape:pageshadow="2"
     inkscape:zoom="0.35"
     inkscape:cx="95.3975"
     inkscape:cy="92.647995"
     inkscape:document-units="px"
     inkscape:current-layer="layer1"
     showgrid="false"
     fit-margin-top="0"
     fit-margin-left="0"
     fit-margin-right="0"
     fit-margin-bottom="0"
     inkscape:window-width="1600"
     inkscape:window-height="838"
     inkscape:window-x="-8"
     inkscape:window-y="-8"
     inkscape:window-maximized="1" />
  <metadata
     id="metadata5227">
    <rdf:RDF>
      <cc:Work
         rdf:about="">
        <dc:format>image/svg+xml</dc:format>
        <dc:type
           rdf:resource="http://purl.org/dc/dcmitype/StillImage" />
        <dc:title></dc:title>
      </cc:Work>
    </rdf:RDF>
  </metadata>
  <g
     inkscape:label="Layer 1"
     inkscape:groupmode="layer"
     id="layer1"
     transform="translate(-279.6025,-439.7142)">
    <g
       transform="translate(-595.1575,-1495.2888)"
       id="g573">
      <g
         id="g575">
        <path
           d="m 1052.441,2120.299 -164.567,0 c -7.231,0 -13.114,-5.885 -13.114,-13.115 l 0,-159.066 c 0,-7.232 5.883,-13.115 13.114,-13.115 l 164.567,0 c 7.231,0 13.114,5.883 13.114,13.115 l 0,159.066 c 10e-4,7.231 -5.882,13.115 -13.114,13.115 z M 887.874,1946.002 c -1.166,0 -2.115,0.947 -2.115,2.115 l 0,159.066 c 0,1.166 0.949,2.115 2.115,2.115 l 164.567,0 c 1.166,0 2.115,-0.949 2.115,-2.115 l 0,-159.066 c 0,-1.168 -0.949,-2.115 -2.115,-2.115 l -164.567,0 z"
           id="path577"
           inkscape:connector-curvature="0"
           style="fill:#f9c321" />
      </g>
    </g>
    <g
       transform="translate(-595.1575,-1495.2888)"
       id="g579">
      <g
         id="g581">
        <path
           d="m 946.586,2073 c -0.947,0 -1.895,-0.246 -2.743,-0.734 -1.705,-0.98 -2.756,-2.799 -2.756,-4.768 l 0,-72.93 c 0,-1.967 1.051,-3.783 2.756,-4.766 1.705,-0.98 3.804,-0.977 5.506,0.01 l 62.796,36.465 c 1.695,0.984 2.737,2.797 2.737,4.758 0,1.959 -1.042,3.771 -2.737,4.756 l -62.796,36.465 c -0.855,0.496 -1.809,0.744 -2.763,0.744 z m 5.5,-68.876 0,53.824 46.345,-26.912 -46.345,-26.912 z"
           id="path583"
           inkscape:connector-curvature="0"
           style="fill:#f9c321" />
      </g>
    </g>
    <g
       transform="translate(-595.1575,-1495.2888)"
       id="g585">
      <g
         id="g587">
        <path
           d="m 898.592,1956.028 0,11.254 142.991,0 0,-11.254 -142.991,0 z m 73.567,11.127 c -3.037,0 -5.5,-2.463 -5.5,-5.5 0,-3.037 2.463,-5.5 5.5,-5.5 3.037,0 5.499,2.463 5.499,5.5 0,3.037 -2.462,5.5 -5.499,5.5 z"
           id="path589"
           inkscape:connector-curvature="0"
           style="fill:#f9c321" />
      </g>
    </g>
    <g
       transform="translate(-595.1575,-1495.2888)"
       id="g591">
      <g
         id="g593">
        <path
           d="m 972.159,1950.374 c -6.23,0 -11.281,5.051 -11.281,11.281 0,6.229 5.051,11.279 11.281,11.279 6.23,0 11.281,-5.051 11.281,-11.279 0,-6.231 -5.05,-11.281 -11.281,-11.281 z m 0,16.781 c -3.037,0 -5.5,-2.463 -5.5,-5.5 0,-3.037 2.463,-5.5 5.5,-5.5 3.037,0 5.499,2.463 5.499,5.5 0,3.037 -2.462,5.5 -5.499,5.5 z"
           id="path595"
           inkscape:connector-curvature="0"
           style="fill:#f9c321" />
      </g>
    </g>
  </g>
</svg>
