<?xml version="1.0" encoding="UTF-8" standalone="no"?>
<!-- Created with Inkscape (http://www.inkscape.org/) -->

<svg
   xmlns:dc="http://purl.org/dc/elements/1.1/"
   xmlns:cc="http://creativecommons.org/ns#"
   xmlns:rdf="http://www.w3.org/1999/02/22-rdf-syntax-ns#"
   xmlns:svg="http://www.w3.org/2000/svg"
   xmlns="http://www.w3.org/2000/svg"
   xmlns:sodipodi="http://sodipodi.sourceforge.net/DTD/sodipodi-0.dtd"
   xmlns:inkscape="http://www.inkscape.org/namespaces/inkscape"
   width="68.850784mm"
   height="67.446877mm"
   viewBox="0 0 243.95947 238.98499"
   id="svg5376"
   version="1.1"
   inkscape:version="0.91 r13725">
  <defs
     id="defs5378" />
  <sodipodi:namedview
     id="base"
     pagecolor="#ffffff"
     bordercolor="#666666"
     borderopacity="1.0"
     inkscape:pageopacity="0.0"
     inkscape:pageshadow="2"
     inkscape:zoom="0.35"
     inkscape:cx="121.97977"
     inkscape:cy="119.4925"
     inkscape:document-units="px"
     inkscape:current-layer="layer1"
     showgrid="false"
     fit-margin-top="0"
     fit-margin-left="0"
     fit-margin-right="0"
     fit-margin-bottom="0"
     inkscape:window-width="1600"
     inkscape:window-height="838"
     inkscape:window-x="-8"
     inkscape:window-y="-8"
     inkscape:window-maximized="1" />
  <metadata
     id="metadata5381">
    <rdf:RDF>
      <cc:Work
         rdf:about="">
        <dc:format>image/svg+xml</dc:format>
        <dc:type
           rdf:resource="http://purl.org/dc/dcmitype/StillImage" />
        <dc:title></dc:title>
      </cc:Work>
    </rdf:RDF>
  </metadata>
  <g
     inkscape:label="Layer 1"
     inkscape:groupmode="layer"
     id="layer1"
     transform="translate(-253.02023,-412.8697)">
    <g
       transform="translate(-2417.4508,-1490.6203)"
       id="g2603">
      <g
         id="g2605">
        <path
           d="m 2827.033,2142.475 c -6.35,0 -17.712,-2.092 -22.469,-16.102 -0.117,-0.35 -0.249,-0.814 -0.403,-1.367 -1.298,-4.662 -3.056,-8.979 -7.092,-9.027 -3.068,0.158 -6.165,0.158 -9.234,0 -4.038,0.053 -5.796,4.365 -7.092,9.025 -0.154,0.555 -0.286,1.02 -0.403,1.363 -4.758,14.016 -16.12,16.107 -22.47,16.107 -4.001,0 -6.941,-0.807 -7.064,-0.84 l -0.312,-0.105 c -7.41,-2.984 -19.901,-13.113 -14.14,-30.086 0.146,-0.43 0.356,-0.936 0.623,-1.574 2.028,-4.857 3.675,-10.15 0.521,-12.572 -0.169,-0.133 -0.298,-0.246 -0.424,-0.363 -1.897,-1.492 -3.573,-2.906 -5.117,-4.314 -0.06,-0.049 -0.12,-0.102 -0.181,-0.16 -0.751,-0.688 -1.662,-1.02 -2.844,-1.02 -3.457,0 -7.747,2.785 -10.052,4.281 -0.636,0.412 -1.137,0.738 -1.555,0.967 -3.927,2.145 -7.88,3.234 -11.753,3.234 -12.729,0 -20.016,-11.494 -20.32,-11.98 l -0.158,-0.291 c -3.436,-7.211 -5.777,-23.119 9.947,-31.717 0.458,-0.25 1.021,-0.498 1.734,-0.811 4.713,-2.066 8.983,-4.502 8.326,-8.279 -0.015,-0.09 -0.025,-0.174 -0.034,-0.252 -0.872,-3.785 -1.5,-7.6 -1.867,-11.34 -1.071,-4.105 -8.417,-4.996 -11.575,-5.379 -0.682,-0.082 -1.236,-0.152 -1.617,-0.223 -17.623,-3.256 -20.365,-19.102 -19.354,-27.025 l 0.06,-0.326 c 1.581,-6.506 8.338,-18.814 22.594,-18.814 1.651,0 3.382,0.166 5.142,0.49 0.281,0.053 0.66,0.135 1.123,0.236 1.808,0.398 4.833,1.064 7.842,1.064 3.466,0 5.722,-0.889 6.705,-2.643 0.164,-0.291 0.33,-0.551 0.506,-0.791 1.041,-1.818 2.047,-3.455 3.064,-4.992 0.158,-0.352 0.339,-0.682 0.548,-1.002 2.69,-4.117 -3.231,-11.217 -5.178,-13.551 -0.286,-0.342 -0.522,-0.625 -0.69,-0.842 -11.044,-14.119 -2.6,-27.801 3.408,-33.064 l 0.26,-0.203 c 0.273,-0.189 6.797,-4.664 15.023,-4.664 6.938,0 13.125,3.221 17.893,9.318 l 0.258,0.334 c 5.717,7.393 9.535,8.945 11.732,8.945 0.5,0 0.969,-0.078 1.433,-0.242 0.136,-0.045 0.265,-0.084 0.394,-0.117 1.379,-0.482 2.814,-0.945 4.272,-1.373 0.076,-0.031 0.155,-0.061 0.237,-0.088 3.049,-1.039 3.138,-4.523 2.25,-10.186 -0.17,-1.084 -0.304,-1.941 -0.304,-2.668 0,-17.922 15.083,-23.499 23.06,-23.946 l 0.165,-0.01 0.165,0.01 c 7.976,0.447 23.061,6.024 23.061,23.946 0,0.727 -0.135,1.584 -0.305,2.67 -0.889,5.66 -0.801,9.145 2.275,10.191 0.068,0.023 0.141,0.051 0.216,0.082 1.416,0.416 2.871,0.883 4.268,1.371 0.142,0.037 0.269,0.074 0.405,0.123 0.452,0.158 0.92,0.236 1.42,0.236 2.197,0 6.016,-1.553 11.734,-8.947 l 0.258,-0.334 c 4.768,-6.096 10.955,-9.316 17.891,-9.316 8.227,0 14.751,4.475 15.025,4.664 l 0.259,0.203 c 6.009,5.264 14.454,18.945 3.412,33.063 -0.17,0.219 -0.405,0.5 -0.689,0.842 -1.948,2.332 -7.876,9.434 -5.186,13.549 0.21,0.322 0.392,0.652 0.551,1.006 1.019,1.537 2.024,3.176 3.066,4.994 0.175,0.24 0.342,0.5 0.499,0.779 0.989,1.764 3.244,2.652 6.709,2.652 3.009,0 6.035,-0.666 7.843,-1.064 0.462,-0.102 0.841,-0.184 1.119,-0.236 1.763,-0.324 3.493,-0.49 5.146,-0.49 14.254,0 21.012,12.307 22.594,18.814 l 0.06,0.326 c 1.013,7.924 -1.731,23.77 -19.357,27.025 -0.376,0.07 -0.931,0.141 -1.613,0.223 -3.158,0.383 -10.503,1.273 -11.574,5.379 -0.37,3.758 -0.998,7.572 -1.869,11.348 -0.01,0.066 -0.015,0.131 -0.025,0.197 -0.665,3.824 3.604,6.258 8.317,8.324 0.713,0.314 1.277,0.563 1.732,0.811 15.729,8.6 13.387,24.508 9.952,31.719 l -0.158,0.289 c -0.304,0.488 -7.591,11.982 -20.319,11.982 0,0 0,0 0,0 -3.874,0 -7.828,-1.09 -11.752,-3.232 -0.422,-0.23 -0.922,-0.557 -1.558,-0.971 -2.306,-1.494 -6.595,-4.279 -10.052,-4.279 -1.18,0 -2.092,0.332 -2.869,1.045 l -0.162,0.141 c -1.562,1.428 -3.232,2.838 -5.104,4.305 -0.147,0.135 -0.27,0.244 -0.409,0.352 -3.175,2.438 -1.525,7.732 0.504,12.59 0.267,0.639 0.476,1.143 0.622,1.57 5.762,16.975 -6.73,27.104 -14.142,30.088 l -0.312,0.105 c -0.122,0.033 -3.061,0.84 -7.064,0.84 z m -30.111,-32.42 0.078,0 c 9.152,0.01 11.851,9.713 12.867,13.363 0.119,0.428 0.217,0.787 0.307,1.053 2.721,8.016 8.394,12.082 16.859,12.082 2.676,0 4.748,-0.447 5.324,-0.586 1.77,-0.773 15.743,-7.422 10.586,-22.619 -0.098,-0.289 -0.271,-0.695 -0.479,-1.193 -1.603,-3.836 -5.86,-14.029 1.333,-19.555 l 0.289,-0.258 c 1.807,-1.416 3.408,-2.764 4.896,-4.125 l 0.205,-0.178 c 1.887,-1.684 4.159,-2.521 6.781,-2.521 5.211,0 10.457,3.404 13.275,5.234 0.49,0.318 0.953,0.619 1.178,0.74 3.04,1.662 6.037,2.506 8.908,2.506 8.762,0 14.432,-7.91 15.205,-9.057 0.783,-1.77 6.559,-16.117 -7.518,-23.813 -0.229,-0.125 -0.736,-0.348 -1.272,-0.584 -3.97,-1.74 -13.239,-5.807 -11.802,-14.596 0.01,-0.08 0.016,-0.158 0.027,-0.238 l 0.047,-0.254 c 0.853,-3.656 1.461,-7.348 1.809,-10.975 l 0.055,-0.354 c 1.834,-8.338 12.239,-9.598 16.683,-10.135 0.526,-0.064 0.956,-0.113 1.249,-0.168 15.789,-2.918 14.768,-18.371 14.578,-20.289 -0.452,-1.65 -4.281,-14.129 -16.797,-14.129 -1.293,0 -2.66,0.131 -4.066,0.391 -0.227,0.041 -0.541,0.111 -0.924,0.197 -1.91,0.42 -5.463,1.201 -9.117,1.203 -7.184,0 -10.42,-3.084 -11.869,-5.67 -0.041,-0.074 -0.09,-0.15 -0.141,-0.215 l -0.247,-0.369 c -1.06,-1.857 -2.071,-3.504 -3.097,-5.037 l -0.172,-0.256 -0.114,-0.287 c -0.045,-0.113 -0.087,-0.197 -0.146,-0.285 -5.087,-7.783 2.676,-17.08 5.6,-20.582 0.237,-0.285 0.433,-0.52 0.572,-0.695 9.938,-12.705 -1.076,-23.514 -2.518,-24.836 -0.837,-0.539 -5.738,-3.521 -11.516,-3.521 -5.12,0 -9.57,2.369 -13.227,7.045 l -0.237,0.307 c -2.15,2.781 -8.696,11.244 -16.419,11.248 -1.143,0 -2.267,-0.188 -3.34,-0.559 l -0.34,-0.1 c -1.361,-0.477 -2.789,-0.936 -4.242,-1.363 -0.173,-0.053 -0.291,-0.098 -0.398,-0.145 -8.272,-2.92 -6.762,-12.555 -6.115,-16.68 0.104,-0.662 0.233,-1.486 0.233,-1.752 0,-16.051 -15.384,-17.857 -17.304,-18.02 -1.892,0.16 -17.301,1.953 -17.301,18.02 0,0.266 0.129,1.09 0.232,1.752 0.647,4.131 2.16,13.781 -6.121,16.68 -0.095,0.043 -0.188,0.08 -0.287,0.113 l -0.105,0.031 c -1.451,0.426 -2.879,0.885 -4.242,1.363 l -0.35,0.104 c -1.075,0.367 -2.193,0.555 -3.332,0.555 -7.722,0 -14.268,-8.465 -16.418,-11.246 l -0.238,-0.309 c -3.656,-4.676 -8.105,-7.045 -13.227,-7.045 -5.755,0 -10.641,2.959 -11.51,3.52 -1.417,1.314 -12.403,12.203 -2.518,24.84 0.139,0.18 0.336,0.414 0.574,0.699 2.92,3.5 10.677,12.797 5.59,20.578 -0.056,0.086 -0.098,0.17 -0.143,0.283 l -0.115,0.287 -0.172,0.256 c -1.023,1.533 -2.036,3.18 -3.095,5.037 l -0.254,0.375 c -0.017,0.021 -0.063,0.084 -0.136,0.215 -1.448,2.58 -4.686,5.662 -11.868,5.664 -3.654,0 -7.208,-0.783 -9.118,-1.203 -0.382,-0.086 -0.695,-0.156 -0.926,-0.197 -1.403,-0.26 -2.771,-0.391 -4.063,-0.391 -12.462,0 -16.364,12.582 -16.797,14.135 -0.188,1.9 -1.216,17.365 14.576,20.283 0.295,0.055 0.725,0.104 1.251,0.168 4.443,0.537 14.85,1.797 16.683,10.135 l 0.056,0.354 c 0.346,3.615 0.954,7.309 1.809,10.977 l 0.057,0.32 c 0.01,0.059 0.012,0.113 0.016,0.17 1.449,8.785 -7.83,12.855 -11.803,14.598 -0.535,0.236 -1.042,0.457 -1.273,0.586 -14.152,7.734 -8.318,22.018 -7.516,23.805 0.741,1.102 6.42,9.061 15.207,9.061 2.869,0 5.867,-0.844 8.91,-2.508 0.222,-0.119 0.684,-0.42 1.172,-0.736 2.819,-1.832 8.066,-5.236 13.277,-5.236 2.643,0 4.931,0.854 6.8,2.533 0.062,0.053 0.123,0.105 0.188,0.166 1.441,1.32 3.055,2.682 4.897,4.127 l 0.325,0.287 c 7.154,5.492 2.9,15.684 1.299,19.52 -0.209,0.5 -0.383,0.906 -0.48,1.197 -5.188,15.281 8.783,21.846 10.578,22.619 0.556,0.133 2.637,0.586 5.329,0.586 8.466,0 14.138,-4.066 16.861,-12.086 0.089,-0.262 0.187,-0.623 0.306,-1.051 1.017,-3.654 3.716,-13.352 12.854,-13.361 l 0.168,0 c 2.919,0.154 5.866,0.154 8.784,0 l 0.082,0 z"
           id="path2607"
           inkscape:connector-curvature="0"
           style="fill:#f9c321" />
      </g>
    </g>
    <g
       transform="translate(-2417.4508,-1490.6203)"
       id="g2609">
      <g
         id="g2611">
        <path
           d="m 2792.452,2072.772 c -27.452,0 -49.784,-22.332 -49.784,-49.785 0,-27.451 22.332,-49.785 49.784,-49.785 27.45,0 49.784,22.334 49.784,49.785 0,27.453 -22.334,49.785 -49.784,49.785 z m 0,-93.647 c -24.186,0 -43.861,19.676 -43.861,43.861 0,24.185 19.676,43.861 43.861,43.861 24.185,0 43.86,-19.676 43.86,-43.861 0,-24.185 -19.675,-43.861 -43.86,-43.861 z"
           id="path2613"
           inkscape:connector-curvature="0"
           style="fill:#f9c321" />
      </g>
    </g>
  </g>
</svg>
