<?xml version="1.0" encoding="UTF-8" standalone="no"?>
<!-- Created with Inkscape (http://www.inkscape.org/) -->

<svg
   xmlns:dc="http://purl.org/dc/elements/1.1/"
   xmlns:cc="http://creativecommons.org/ns#"
   xmlns:rdf="http://www.w3.org/1999/02/22-rdf-syntax-ns#"
   xmlns:svg="http://www.w3.org/2000/svg"
   xmlns="http://www.w3.org/2000/svg"
   xmlns:sodipodi="http://sodipodi.sourceforge.net/DTD/sodipodi-0.dtd"
   xmlns:inkscape="http://www.inkscape.org/namespaces/inkscape"
   width="210mm"
   height="297mm"
   viewBox="0 0 744.09448819 1052.3622047"
   id="svg8831"
   version="1.1"
   inkscape:version="0.91 r13725">
  <defs
     id="defs8833" />
  <sodipodi:namedview
     id="base"
     pagecolor="#ffffff"
     bordercolor="#666666"
     borderopacity="1.0"
     inkscape:pageopacity="0.0"
     inkscape:pageshadow="2"
     inkscape:zoom="0.35"
     inkscape:cx="375"
     inkscape:cy="520"
     inkscape:document-units="px"
     inkscape:current-layer="layer1"
     showgrid="false"
     inkscape:window-width="1600"
     inkscape:window-height="838"
     inkscape:window-x="-8"
     inkscape:window-y="-8"
     inkscape:window-maximized="1" />
  <metadata
     id="metadata8836">
    <rdf:RDF>
      <cc:Work
         rdf:about="">
        <dc:format>image/svg+xml</dc:format>
        <dc:type
           rdf:resource="http://purl.org/dc/dcmitype/StillImage" />
        <dc:title></dc:title>
      </cc:Work>
    </rdf:RDF>
  </metadata>
  <g
     inkscape:label="Layer 1"
     inkscape:groupmode="layer"
     id="layer1">
    <g
       transform="translate(-2083.7001,-3213.7466)"
       id="g2387">
      <g
         id="g2389">
        <path
           d="m 2247.902,3298.854 0,-41.082 c 0,-3.27 -2.651,-5.922 -5.923,-5.922 l -20.165,0 c -3.202,-13.123 -16.768,-21.576 -29.543,-21.576 -12.776,0 -26.341,8.453 -29.544,21.576 l -20.164,0 c -3.271,0 -5.924,2.652 -5.924,5.922 l 0,41.082 c -10.607,0.656 -19.037,9.492 -19.037,20.262 l 0,166.682 c 0,11.197 9.109,20.307 20.307,20.307 l 108.725,0 c 11.196,0 20.306,-9.109 20.306,-20.307 l 0,-166.682 c 0,-10.77 -8.429,-19.606 -19.038,-20.262 z m -79.956,-35.158 c 3.271,0 5.922,-2.652 5.922,-5.924 0,-10.078 10.882,-15.652 18.403,-15.652 7.521,0 18.402,5.574 18.402,15.652 0,3.271 2.651,5.924 5.923,5.924 l 19.461,0 0,35.113 -87.572,0 0,-35.113 19.461,0 z m 87.149,222.101 c 0,4.666 -3.797,8.461 -8.461,8.461 l -108.725,0 c -4.665,0 -8.461,-3.795 -8.461,-8.461 l 0,-166.682 c 0,-4.664 3.796,-8.461 8.461,-8.461 l 108.725,0 c 4.664,0 8.461,3.797 8.461,8.461 l 0,166.682 z"
           id="path2391"
           inkscape:connector-curvature="0"
           style="fill:#f9c321" />
      </g>
    </g>
    <g
       transform="translate(-2083.7001,-3213.7466)"
       id="g2393">
      <g
         id="g2395">
        <g
           id="g2397">
          <path
             d="m 2269.552,3272.506 -23.427,0 0,11.467 23.427,0 c 4.517,0 8.191,3.676 8.191,8.191 l 0,218.695 c 0,4.516 -3.675,8.189 -8.191,8.189 l -154.561,0 c -4.516,0 -8.191,-3.674 -8.191,-8.189 l 0,-218.695 c 0,-4.516 3.676,-8.191 8.191,-8.191 l 23.426,0 0,-11.467 -23.426,0 c -10.84,0 -19.658,8.818 -19.658,19.658 l 0,218.695 c 0,10.838 8.818,19.656 19.658,19.656 l 154.561,0 c 10.839,0 19.658,-8.818 19.658,-19.656 l 0,-218.695 c 0,-10.839 -8.819,-19.658 -19.658,-19.658 z"
             id="path2399"
             inkscape:connector-curvature="0"
             style="fill:#f9c321" />
        </g>
      </g>
    </g>
    <g
       transform="translate(-2083.7001,-3213.7466)"
       id="g2401">
      <g
         id="g2403">
        <circle
           cx="2192.271"
           cy="3257.844"
           r="5.1469998"
           id="circle2405"
           style="fill:#f9c321" />
      </g>
    </g>
    <g
       transform="translate(-2083.7001,-3213.7466)"
       id="g2407">
      <g
         id="g2409">
        <path
           d="m 2206.726,3372.42 c -10.437,0.275 -14.454,10.906 -14.454,10.906 0,0 -4.019,-10.631 -14.454,-10.906 -10.436,-0.277 -19.885,7.869 -17.205,21.676 2.68,13.809 31.659,37.834 31.659,37.834 0,0 28.979,-24.025 31.659,-37.834 2.678,-13.806 -6.77,-21.953 -17.205,-21.676 z"
           id="path2411"
           inkscape:connector-curvature="0"
           style="fill:#f9c321" />
      </g>
    </g>
  </g>
</svg>
