<?xml version="1.0" encoding="UTF-8" standalone="no"?>
<!-- Created with Inkscape (http://www.inkscape.org/) -->

<svg
   xmlns:dc="http://purl.org/dc/elements/1.1/"
   xmlns:cc="http://creativecommons.org/ns#"
   xmlns:rdf="http://www.w3.org/1999/02/22-rdf-syntax-ns#"
   xmlns:svg="http://www.w3.org/2000/svg"
   xmlns="http://www.w3.org/2000/svg"
   xmlns:sodipodi="http://sodipodi.sourceforge.net/DTD/sodipodi-0.dtd"
   xmlns:inkscape="http://www.inkscape.org/namespaces/inkscape"
   width="210mm"
   height="297mm"
   viewBox="0 0 744.09448819 1052.3622047"
   id="svg9055"
   version="1.1"
   inkscape:version="0.91 r13725">
  <defs
     id="defs9057" />
  <sodipodi:namedview
     id="base"
     pagecolor="#ffffff"
     bordercolor="#666666"
     borderopacity="1.0"
     inkscape:pageopacity="0.0"
     inkscape:pageshadow="2"
     inkscape:zoom="0.35"
     inkscape:cx="397.85714"
     inkscape:cy="497.14286"
     inkscape:document-units="px"
     inkscape:current-layer="layer1"
     showgrid="false"
     inkscape:window-width="1600"
     inkscape:window-height="838"
     inkscape:window-x="-8"
     inkscape:window-y="-8"
     inkscape:window-maximized="1" />
  <metadata
     id="metadata9060">
    <rdf:RDF>
      <cc:Work
         rdf:about="">
        <dc:format>image/svg+xml</dc:format>
        <dc:type
           rdf:resource="http://purl.org/dc/dcmitype/StillImage" />
        <dc:title></dc:title>
      </cc:Work>
    </rdf:RDF>
  </metadata>
  <g
     inkscape:label="Layer 1"
     inkscape:groupmode="layer"
     id="layer1">
    <g
       transform="translate(-2612.2939,-3183.9572)"
       id="g1217">
      <g
         id="g1219">
        <path
           d="m 2835.563,3262.384 -69.805,0 c -3.037,0 -5.499,-2.461 -5.499,-5.5 l 0,-34.896 c 0,-3.037 2.462,-5.5 5.499,-5.5 3.038,0 5.5,2.463 5.5,5.5 l 0,29.398 64.305,0 c 3.037,0 5.499,2.461 5.499,5.498 0,3.039 -2.461,5.5 -5.499,5.5 z"
           id="path1221"
           inkscape:connector-curvature="0"
           style="fill:#f9c321" />
      </g>
    </g>
    <g
       transform="translate(-2612.2939,-3183.9572)"
       id="g1223">
      <g
         id="g1225">
        <path
           d="m 2673.675,3343.123 c -15.163,0 -27.498,-12.336 -27.498,-27.5 0,-15.16 12.335,-27.496 27.498,-27.496 15.162,0 27.498,12.336 27.498,27.496 0,15.164 -12.336,27.5 -27.498,27.5 z m 0,-43.998 c -9.098,0 -16.499,7.402 -16.499,16.498 0,9.1 7.401,16.5 16.499,16.5 9.098,0 16.499,-7.4 16.499,-16.5 0,-9.096 -7.402,-16.498 -16.499,-16.498 z"
           id="path1227"
           inkscape:connector-curvature="0"
           style="fill:#f9c321" />
      </g>
    </g>
    <g
       transform="translate(-2612.2939,-3183.9572)"
       id="g1229">
      <g
         id="g1231">
        <path
           d="m 2797.713,3343.123 c -15.163,0 -27.499,-12.336 -27.499,-27.5 0,-15.16 12.336,-27.496 27.499,-27.496 15.163,0 27.499,12.336 27.499,27.496 0,15.164 -12.336,27.5 -27.499,27.5 z m 0,-43.998 c -9.098,0 -16.499,7.402 -16.499,16.498 0,9.1 7.401,16.5 16.499,16.5 9.098,0 16.499,-7.4 16.499,-16.5 0,-9.096 -7.401,-16.498 -16.499,-16.498 z"
           id="path1233"
           inkscape:connector-curvature="0"
           style="fill:#f9c321" />
      </g>
    </g>
    <g
       transform="translate(-2612.2939,-3183.9572)"
       id="g1235">
      <g
         id="g1237">
        <g
           id="g1239">
          <polygon
             points="2779.155,3310.822 2695.124,3310.822 2693.605,3320.974 2777.618,3320.974 "
             id="polygon1241"
             style="fill:#f9c321" />
        </g>
        <g
           id="g1243">
          <path
             d="m 2777.981,3321.398 -84.867,0 1.646,-10.998 84.887,0 -1.666,10.998 z m -83.884,-0.846 83.157,0 1.409,-9.307 -83.174,0 -1.392,9.307 z"
             id="path1245"
             inkscape:connector-curvature="0"
             style="fill:#f9c321" />
        </g>
      </g>
      <g
         id="g1247">
        <g
           id="g1249">
          <path
             d="m 2847.281,3263.636 c -0.925,-1.422 -23.088,-35.234 -61.806,-69.563 -0.929,-0.822 -2.127,-1.277 -3.368,-1.277 l -154.829,0 c -2.804,0 -5.076,2.273 -5.076,5.076 l 0,118.025 c 0,2.805 2.272,5.076 5.076,5.076 l 26.087,0 0,-10.152 -21.011,0 0,-107.871 147.818,0 c 32.767,29.363 53.501,58.727 57.774,64.998 l 0,42.873 -19.996,0 1.111,10.152 23.962,0 c 2.803,0 5.076,-2.271 5.076,-5.076 l 0,-49.496 c 0,-0.98 -0.284,-1.941 -0.818,-2.765 z"
             id="path1251"
             inkscape:connector-curvature="0"
             style="fill:#f9c321" />
        </g>
        <g
           id="g1253">
          <path
             d="m 2843.024,3321.398 -24.342,0 -1.203,-10.998 20.045,0 0,-42.32 c -4.039,-5.914 -24.854,-35.412 -57.514,-64.707 l -147.232,0 0,107.027 21.01,0 0,10.998 -26.51,0 c -3.032,0 -5.499,-2.467 -5.499,-5.5 l 0,-118.025 c 0,-3.031 2.467,-5.5 5.499,-5.5 l 154.829,0 c 1.347,0 2.642,0.492 3.649,1.385 38.767,34.373 60.953,68.225 61.879,69.648 0.581,0.896 0.888,1.932 0.888,2.996 l 0,49.496 c 0,3.033 -2.466,5.5 -5.499,5.5 z m -23.583,-0.846 23.583,0 c 2.566,0 4.653,-2.086 4.653,-4.654 l 0,-49.496 c 0,-0.9 -0.26,-1.777 -0.751,-2.533 -0.924,-1.42 -23.05,-35.182 -61.731,-69.477 -0.853,-0.756 -1.948,-1.172 -3.088,-1.172 l -154.829,0 c -2.566,0 -4.653,2.086 -4.653,4.652 l 0,118.025 c 0,2.568 2.087,4.654 4.653,4.654 l 25.663,0 0,-9.307 -21.01,0 0,-108.719 148.403,0 0.12,0.107 c 33.004,29.578 53.974,59.398 57.842,65.076 l 0.073,0.109 0,43.426 -19.947,0 1.019,9.309 z"
             id="path1255"
             inkscape:connector-curvature="0"
             style="fill:#f9c321" />
        </g>
      </g>
    </g>
    <g
       transform="translate(-2612.2939,-3183.9572)"
       id="g1257">
      <g
         id="g1259">
        <path
           d="m 2695.569,3253.08 -34.009,0 14.688,-13.48 c 1.549,-1.422 1.652,-3.83 0.23,-5.379 -1.422,-1.551 -3.829,-1.652 -5.38,-0.23 l -21.895,20.092 c 0,0 -0.01,0 -0.01,0.01 -0.117,0.107 -0.223,0.227 -0.326,0.35 -0.021,0.023 -0.045,0.045 -0.064,0.07 -0.059,0.072 -0.106,0.154 -0.159,0.23 -0.055,0.082 -0.116,0.158 -0.163,0.24 -0.018,0.029 -0.028,0.063 -0.043,0.09 -0.076,0.139 -0.149,0.279 -0.206,0.428 0,0 0,0.01 0,0.01 -0.023,0.061 -0.037,0.121 -0.056,0.182 -0.039,0.117 -0.08,0.234 -0.108,0.354 -0.021,0.09 -0.026,0.178 -0.041,0.264 -0.015,0.1 -0.035,0.199 -0.042,0.299 -0.01,0.094 0,0.188 0,0.283 0,0.094 -0.01,0.188 0,0.283 0.01,0.1 0.027,0.197 0.042,0.297 0.015,0.09 0.021,0.178 0.041,0.264 0.028,0.121 0.069,0.238 0.108,0.355 0.019,0.059 0.032,0.121 0.056,0.182 0,0 0,0.01 0,0.01 0.057,0.148 0.13,0.291 0.206,0.43 0.015,0.027 0.025,0.061 0.043,0.09 0.05,0.086 0.113,0.166 0.171,0.25 0.05,0.072 0.096,0.15 0.151,0.221 0.021,0.027 0.049,0.049 0.07,0.078 0.103,0.117 0.207,0.236 0.32,0.342 0,0 0,0 0.01,0.01 l 21.895,20.092 c 0.73,0.672 1.654,1.004 2.575,1.004 1.027,0 2.054,-0.416 2.805,-1.234 1.422,-1.551 1.318,-3.957 -0.23,-5.381 l -14.688,-13.477 34.009,0 c 2.102,0 3.807,-1.707 3.807,-3.809 0,-2.107 -1.705,-3.81 -3.807,-3.81 z"
           id="path1261"
           inkscape:connector-curvature="0"
           style="fill:#f9c321" />
      </g>
      <g
         id="g1263">
        <path
           d="m 2673.675,3281.208 c -1.063,0 -2.079,-0.396 -2.861,-1.113 l -21.895,-20.092 c -0.134,-0.127 -0.248,-0.254 -0.361,-0.385 -0.04,-0.043 -0.063,-0.066 -0.083,-0.092 -0.044,-0.057 -0.085,-0.117 -0.125,-0.18 l -0.094,-0.137 c -0.049,-0.066 -0.096,-0.135 -0.137,-0.205 l -0.045,-0.088 c -0.089,-0.166 -0.169,-0.326 -0.232,-0.488 -0.024,-0.061 -0.039,-0.111 -0.054,-0.164 l 0.371,-0.234 -0.401,0.135 c -0.037,-0.111 -0.074,-0.225 -0.102,-0.338 -0.016,-0.07 -0.025,-0.137 -0.034,-0.203 l -0.026,-0.174 c -0.014,-0.084 -0.026,-0.168 -0.032,-0.25 -0.01,-0.08 -0.01,-0.16 0,-0.24 l 0,-0.15 c 0,-0.078 0,-0.16 0,-0.24 0.01,-0.082 0.019,-0.166 0.032,-0.248 l 0.026,-0.174 c 0.01,-0.066 0.019,-0.133 0.034,-0.199 0.027,-0.117 0.064,-0.23 0.102,-0.342 l 0.438,0.012 -0.408,-0.111 c 0.015,-0.053 0.029,-0.104 0.049,-0.154 0.068,-0.176 0.148,-0.332 0.233,-0.488 0.017,-0.039 0.031,-0.068 0.047,-0.098 0.04,-0.068 0.084,-0.131 0.13,-0.193 l 0.101,-0.146 c 0.04,-0.063 0.082,-0.127 0.128,-0.186 l 0.063,-0.066 c 0.126,-0.146 0.244,-0.277 0.374,-0.4 l 21.901,-20.098 c 0.783,-0.719 1.799,-1.113 2.86,-1.113 1.183,0 2.318,0.498 3.117,1.371 1.577,1.717 1.463,4.4 -0.256,5.975 l -13.888,12.746 32.922,0 c 2.332,0 4.23,1.898 4.23,4.23 0,2.332 -1.898,4.23 -4.23,4.23 l -32.922,0 13.888,12.744 c 1.719,1.578 1.833,4.258 0.256,5.977 -0.8,0.869 -1.935,1.369 -3.116,1.369 z m 0,-47.798 c -0.849,0 -1.661,0.318 -2.288,0.891 l -21.895,20.092 c -0.11,0.104 -0.204,0.209 -0.297,0.316 l -0.062,0.068 c -0.024,0.031 -0.05,0.07 -0.075,0.113 l -0.125,0.18 c -0.028,0.039 -0.058,0.078 -0.082,0.121 l -0.037,0.08 c -0.067,0.123 -0.133,0.246 -0.183,0.379 l -0.051,0.164 c -0.049,0.146 -0.079,0.234 -0.1,0.324 -0.01,0.039 -0.014,0.08 -0.02,0.119 l -0.03,0.201 c -0.01,0.059 -0.02,0.117 -0.023,0.176 -0.01,0.057 0,0.109 0,0.164 l 0,0.174 c 0,0.057 0,0.111 0,0.164 0,0.061 0.015,0.117 0.023,0.178 l 0.03,0.199 c 0.01,0.043 0.011,0.082 0.021,0.125 0.02,0.086 0.05,0.174 0.079,0.26 l 0.086,0.275 c 0.034,0.082 0.1,0.205 0.167,0.328 l 0.041,0.088 c 0.023,0.037 0.056,0.082 0.088,0.127 l 0.117,0.17 c 0.024,0.039 0.05,0.08 0.078,0.115 0.03,0.029 0.053,0.055 0.073,0.078 0.079,0.094 0.173,0.201 0.275,0.295 l 21.899,20.098 c 0.626,0.574 1.438,0.889 2.289,0.889 0.945,0 1.854,-0.398 2.493,-1.094 1.262,-1.375 1.17,-3.521 -0.205,-4.783 l -15.489,-14.213 35.096,0 c 1.865,0 3.385,-1.52 3.385,-3.385 0,-1.867 -1.52,-3.385 -3.385,-3.385 l -35.096,0 15.489,-14.213 c 1.375,-1.262 1.467,-3.406 0.205,-4.783 -0.637,-0.697 -1.545,-1.095 -2.491,-1.095 z"
           id="path1265"
           inkscape:connector-curvature="0"
           style="fill:#f9c321" />
      </g>
    </g>
    <g
       transform="translate(-2612.2939,-3183.9572)"
       id="g1267">
      <g
         id="g1269">
        <path
           d="m 2690.286,3240.283 34.009,0 -14.688,13.48 c -1.549,1.42 -1.653,3.828 -0.23,5.377 1.422,1.551 3.829,1.654 5.379,0.232 l 21.895,-20.092 c 0,0 0.01,-0.01 0.01,-0.01 0.118,-0.109 0.225,-0.229 0.328,-0.35 0.02,-0.025 0.045,-0.047 0.064,-0.072 0.058,-0.07 0.105,-0.154 0.159,-0.23 0.054,-0.08 0.115,-0.156 0.163,-0.24 0.017,-0.029 0.028,-0.061 0.043,-0.088 0.076,-0.141 0.148,-0.281 0.207,-0.428 0,0 0,-0.01 0,-0.01 0.022,-0.061 0.036,-0.123 0.056,-0.182 0.039,-0.117 0.08,-0.234 0.107,-0.357 0.021,-0.088 0.027,-0.174 0.042,-0.264 0.015,-0.096 0.034,-0.195 0.043,-0.295 0.01,-0.096 0,-0.189 0,-0.283 0,-0.096 0.01,-0.189 0,-0.283 -0.01,-0.102 -0.028,-0.199 -0.043,-0.299 -0.015,-0.086 -0.021,-0.176 -0.042,-0.264 -0.027,-0.119 -0.068,-0.236 -0.107,-0.354 -0.02,-0.063 -0.033,-0.123 -0.056,-0.186 0,0 0,0 0,-0.01 -0.059,-0.146 -0.131,-0.289 -0.207,-0.43 -0.015,-0.027 -0.026,-0.061 -0.043,-0.088 -0.05,-0.088 -0.114,-0.166 -0.172,-0.252 -0.049,-0.072 -0.094,-0.148 -0.15,-0.219 -0.021,-0.029 -0.05,-0.053 -0.071,-0.078 -0.103,-0.121 -0.206,-0.238 -0.32,-0.342 -10e-4,0 0,-0.01 -0.01,-0.01 l -21.895,-20.094 c -0.73,-0.67 -1.654,-1.002 -2.572,-1.002 -1.03,0 -2.057,0.416 -2.807,1.232 -1.423,1.551 -1.318,3.959 0.23,5.381 l 14.688,13.479 -34.009,0 c -2.103,0 -3.808,1.705 -3.808,3.809 0,2.104 1.706,3.81 3.808,3.81 z"
           id="path1271"
           inkscape:connector-curvature="0"
           style="fill:#f9c321" />
      </g>
      <g
         id="g1273">
        <path
           d="m 2712.182,3260.798 0,0 c -1.183,0 -2.319,-0.5 -3.117,-1.371 -0.765,-0.834 -1.159,-1.914 -1.11,-3.041 0.049,-1.129 0.533,-2.172 1.365,-2.938 l 13.89,-12.744 -32.923,0 c -2.333,0 -4.23,-1.896 -4.23,-4.229 0,-2.334 1.897,-4.232 4.23,-4.232 l 32.923,0 -13.89,-12.744 c -1.718,-1.578 -1.832,-4.26 -0.255,-5.977 0.798,-0.871 1.935,-1.371 3.118,-1.371 1.061,0 2.076,0.396 2.858,1.117 l 21.95,20.148 c 0.078,0.066 0.193,0.195 0.307,0.326 0.039,0.041 0.064,0.066 0.086,0.096 0.04,0.051 0.082,0.111 0.123,0.176 l 0.092,0.135 c 0.051,0.068 0.099,0.137 0.14,0.209 l 0.044,0.088 c 0.087,0.162 0.167,0.32 0.231,0.484 l 0.029,0.086 c 0.01,0.029 0.016,0.049 0.022,0.072 l 0.038,0.121 c 0.035,0.109 0.069,0.215 0.095,0.322 0.016,0.07 0.025,0.137 0.034,0.203 l 0.027,0.178 c 0.013,0.082 0.026,0.162 0.032,0.244 0.01,0.084 0.01,0.16 0,0.238 l 0,0.158 c 0,0.076 0,0.156 0,0.232 -0.01,0.088 -0.021,0.17 -0.033,0.25 l -0.027,0.176 c -0.01,0.066 -0.019,0.133 -0.033,0.201 -0.026,0.113 -0.062,0.219 -0.097,0.326 l -0.445,0.01 0.407,0.113 c -0.01,0.025 -0.014,0.051 -0.021,0.074 l -0.029,0.082 c -0.064,0.166 -0.145,0.32 -0.229,0.477 l -0.045,0.094 c -0.043,0.074 -0.089,0.139 -0.136,0.201 l -0.049,0.07 c -0.088,0.133 -0.129,0.197 -0.177,0.258 l -0.059,0.064 c -0.131,0.15 -0.247,0.281 -0.376,0.4 l -0.06,0.078 -0.023,0 -21.82,20.023 c -0.782,0.721 -1.798,1.117 -2.858,1.117 z m -21.896,-27.707 c -1.866,0 -3.385,1.518 -3.385,3.385 0,1.863 1.519,3.383 3.385,3.383 l 35.096,0 -15.49,14.215 c -0.666,0.611 -1.054,1.445 -1.092,2.348 -0.039,0.902 0.276,1.766 0.888,2.434 0.64,0.695 1.548,1.098 2.493,1.098 l 10e-4,0 c 0.849,0 1.661,-0.316 2.288,-0.893 l 21.939,-20.131 c 0.104,-0.109 0.18,-0.195 0.254,-0.279 l 0.059,-0.064 c 0.025,-0.031 0.051,-0.074 0.078,-0.113 l 0.12,-0.178 c 0.029,-0.041 0.06,-0.08 0.084,-0.123 l 0.037,-0.078 c 0.056,-0.104 0.109,-0.205 0.155,-0.313 l 0,-0.014 0.081,-0.227 c 0.05,-0.148 0.077,-0.23 0.097,-0.318 0.01,-0.037 0.015,-0.08 0.02,-0.121 l 0.031,-0.203 c 0.01,-0.059 0.02,-0.115 0.024,-0.174 0,-0.051 0,-0.102 10e-4,-0.156 l -10e-4,-0.092 10e-4,-0.094 c 0,-0.053 0,-0.105 -10e-4,-0.16 -0.01,-0.055 -0.015,-0.111 -0.024,-0.17 l -0.031,-0.205 c 0,-0.041 -0.01,-0.082 -0.02,-0.123 -0.02,-0.08 -0.047,-0.166 -0.074,-0.248 l -0.106,-0.256 0,-0.055 c -0.046,-0.105 -0.099,-0.205 -0.153,-0.307 l -0.041,-0.086 c -0.024,-0.041 -0.056,-0.084 -0.087,-0.127 l -0.118,-0.172 c -0.024,-0.037 -0.049,-0.076 -0.077,-0.111 l -0.07,-0.076 c -0.084,-0.1 -0.178,-0.205 -0.28,-0.301 l 0,0 -0.01,0 -21.894,-20.092 c -0.627,-0.574 -1.438,-0.893 -2.287,-0.893 -0.947,0 -1.855,0.4 -2.495,1.096 -1.262,1.375 -1.17,3.521 0.205,4.785 l 15.489,14.213 -35.097,0 z"
           id="path1275"
           inkscape:connector-curvature="0"
           style="fill:#f9c321" />
      </g>
    </g>
  </g>
</svg>
