<?xml version="1.0" encoding="UTF-8" standalone="no"?>
<!-- Created with Inkscape (http://www.inkscape.org/) -->

<svg
   xmlns:dc="http://purl.org/dc/elements/1.1/"
   xmlns:cc="http://creativecommons.org/ns#"
   xmlns:rdf="http://www.w3.org/1999/02/22-rdf-syntax-ns#"
   xmlns:svg="http://www.w3.org/2000/svg"
   xmlns="http://www.w3.org/2000/svg"
   xmlns:sodipodi="http://sodipodi.sourceforge.net/DTD/sodipodi-0.dtd"
   xmlns:inkscape="http://www.inkscape.org/namespaces/inkscape"
   width="50.543461mm"
   height="50.542896mm"
   viewBox="0 0 179.091 179.08899"
   id="svg8763"
   version="1.1"
   inkscape:version="0.91 r13725"
   sodipodi:docname="cock.svg">
  <defs
     id="defs8765" />
  <sodipodi:namedview
     id="base"
     pagecolor="#ffffff"
     bordercolor="#666666"
     borderopacity="1.0"
     inkscape:pageopacity="0.0"
     inkscape:pageshadow="2"
     inkscape:zoom="0.35"
     inkscape:cx="89.545538"
     inkscape:cy="89.544497"
     inkscape:document-units="px"
     inkscape:current-layer="layer1"
     showgrid="false"
     borderlayer="true"
     fit-margin-top="0"
     fit-margin-left="0"
     fit-margin-right="0"
     fit-margin-bottom="0"
     inkscape:window-width="1600"
     inkscape:window-height="838"
     inkscape:window-x="-8"
     inkscape:window-y="-8"
     inkscape:window-maximized="1" />
  <metadata
     id="metadata8768">
    <rdf:RDF>
      <cc:Work
         rdf:about="">
        <dc:format>image/svg+xml</dc:format>
        <dc:type
           rdf:resource="http://purl.org/dc/dcmitype/StillImage" />
        <dc:title></dc:title>
      </cc:Work>
    </rdf:RDF>
  </metadata>
  <g
     inkscape:label="Layer 1"
     inkscape:groupmode="layer"
     id="layer1"
     transform="translate(141.6884,-899.96051)">
    <g
       transform="translate(-1021.2104,896.46951)"
       id="g4831">
      <g
         id="g4833">
        <g
           id="g4835">
          <path
             style="fill:#f9c321"
             inkscape:connector-curvature="0"
             d="m 1058.188,111.689 0,-37.309 -22.247,0 c -1.516,-5.445 -3.676,-10.622 -6.398,-15.442 l 15.731,-15.733 -26.379,-26.379 -15.733,15.731 c -4.819,-2.723 -9.995,-4.883 -15.442,-6.398 l 0,-22.246 -37.307,0 0,22.246 c -5.447,1.516 -10.623,3.676 -15.441,6.398 L 919.239,16.826 892.86,43.205 908.591,58.938 c -2.724,4.82 -4.884,9.997 -6.4,15.445 l -22.244,0 0,37.306 22.244,0 c 1.517,5.445 3.677,10.623 6.399,15.442 l -15.73,15.731 26.379,26.38 15.731,-15.731 c 4.82,2.723 9.996,4.884 15.443,6.399 l 0,22.246 37.307,0 0,-22.246 c 5.447,-1.518 10.623,-3.678 15.443,-6.4 l 15.733,15.732 26.38,-26.381 -15.733,-15.732 c 2.724,-4.819 4.884,-9.995 6.398,-15.44 l 22.247,0 z m -89.121,16.839 c -19.603,0 -35.494,-15.889 -35.494,-35.492 0,-19.604 15.892,-35.495 35.494,-35.495 19.602,0 35.493,15.891 35.493,35.495 0,19.603 -15.89,35.492 -35.493,35.492 z"
             id="path4837" />
        </g>
        <g
           id="g4839">
          <path
             style="fill:#f9c321"
             inkscape:connector-curvature="0"
             d="m 987.72,182.58 -37.307,0 c -0.233,0 -0.423,-0.189 -0.423,-0.423 l 0,-21.926 c -5.203,-1.473 -10.229,-3.557 -14.948,-6.193 l -15.505,15.505 c -0.165,0.165 -0.433,0.165 -0.598,0 l -26.38,-26.38 c -0.165,-0.166 -0.165,-0.434 0,-0.599 l 15.505,-15.505 c -2.637,-4.718 -4.72,-9.743 -6.194,-14.947 l -21.924,0 c -0.234,0 -0.424,-0.189 -0.424,-0.423 l 0,-37.306 c 0,-0.235 0.189,-0.424 0.424,-0.424 l 21.924,0 c 1.474,-5.203 3.557,-10.229 6.195,-14.949 L 892.56,43.504 c -0.165,-0.165 -0.165,-0.433 0,-0.598 l 26.379,-26.38 c 0.165,-0.166 0.433,-0.166 0.598,0 l 15.507,15.505 c 4.717,-2.636 9.742,-4.718 14.946,-6.193 l 0,-21.925 c 0,-0.232 0.189,-0.422 0.423,-0.422 l 37.307,0 c 0.233,0 0.423,0.189 0.423,0.422 l 0,21.926 c 5.204,1.473 10.229,3.558 14.947,6.193 l 15.507,-15.505 c 0.165,-0.166 0.433,-0.166 0.598,0 l 26.379,26.38 c 0.08,0.078 0.125,0.186 0.125,0.298 0,0.113 -0.045,0.221 -0.125,0.3 l -15.505,15.506 c 2.638,4.721 4.721,9.746 6.194,14.947 l 21.926,0 c 0.234,0 0.424,0.189 0.424,0.423 l 0,37.309 c 0,0.233 -0.189,0.423 -0.424,0.423 l -21.926,0 c -1.473,5.2 -3.556,10.226 -6.193,14.945 l 15.506,15.506 c 0.08,0.08 0.124,0.188 0.124,0.299 0,0.113 -0.044,0.22 -0.124,0.299 l -26.38,26.382 c -0.166,0.165 -0.434,0.165 -0.599,0 l -15.506,-15.506 c -4.721,2.636 -9.746,4.72 -14.948,6.194 l 0,21.926 c 0,0.232 -0.19,0.422 -0.423,0.422 z m -36.883,-0.846 36.46,0 0,-21.823 c 0,-0.188 0.126,-0.356 0.309,-0.407 5.351,-1.49 10.515,-3.631 15.35,-6.362 0.166,-0.092 0.373,-0.064 0.508,0.069 l 15.434,15.434 25.781,-25.782 -15.434,-15.434 c -0.135,-0.135 -0.163,-0.342 -0.069,-0.508 2.731,-4.834 4.871,-9.998 6.359,-15.346 0.052,-0.183 0.218,-0.31 0.407,-0.31 l 21.824,0 0,-36.462 -21.824,0 c -0.189,0 -0.355,-0.125 -0.407,-0.31 -1.488,-5.348 -3.628,-10.511 -6.36,-15.348 -0.093,-0.165 -0.064,-0.373 0.069,-0.508 l 15.434,-15.434 -25.781,-25.781 -15.435,15.434 c -0.134,0.135 -0.341,0.162 -0.507,0.07 -4.833,-2.731 -9.996,-4.872 -15.348,-6.36 -0.184,-0.051 -0.31,-0.218 -0.31,-0.408 l 0,-21.822 -36.46,0 0,21.822 c 0,0.19 -0.127,0.357 -0.311,0.408 -5.352,1.488 -10.515,3.629 -15.347,6.36 -0.166,0.092 -0.373,0.064 -0.507,-0.07 l -15.435,-15.434 -25.78,25.781 15.433,15.434 c 0.134,0.135 0.162,0.343 0.068,0.508 -2.731,4.836 -4.872,10 -6.36,15.35 -0.051,0.184 -0.218,0.31 -0.408,0.31 l -21.821,0 0,36.46 21.821,0 c 0.19,0 0.357,0.127 0.408,0.31 1.489,5.352 3.63,10.516 6.36,15.348 0.093,0.166 0.064,0.373 -0.069,0.509 l -15.433,15.432 25.781,25.781 15.433,-15.432 c 0.134,-0.135 0.341,-0.163 0.507,-0.069 4.835,2.732 9.998,4.872 15.349,6.36 0.184,0.051 0.311,0.219 0.311,0.407 l 0,21.823 z m 18.23,-52.783 c -19.805,0 -35.917,-16.111 -35.917,-35.915 0,-19.805 16.112,-35.918 35.917,-35.918 19.804,0 35.916,16.113 35.916,35.918 0,19.803 -16.112,35.915 -35.916,35.915 z m 0,-70.987 c -19.338,0 -35.07,15.731 -35.07,35.071 0,19.337 15.732,35.07 35.07,35.07 19.338,0 35.07,-15.733 35.07,-35.07 0,-19.339 -15.732,-35.071 -35.07,-35.071 z"
             id="path4841" />
        </g>
      </g>
      <g
         id="g4843">
        <g
           id="g4845">
          <circle
             style="fill:#f9c321"
             cx="969.06702"
             cy="93.033997"
             r="17.879"
             id="circle4847" />
        </g>
        <g
           id="g4849">
          <path
             style="fill:#f9c321"
             inkscape:connector-curvature="0"
             d="m 969.067,111.336 c -10.092,0 -18.302,-8.21 -18.302,-18.301 0,-10.093 8.21,-18.304 18.302,-18.304 10.092,0 18.302,8.211 18.302,18.304 0,10.091 -8.21,18.301 -18.302,18.301 z m 0,-35.757 c -9.626,0 -17.456,7.831 -17.456,17.457 0,9.624 7.83,17.455 17.456,17.455 9.625,0 17.455,-7.831 17.455,-17.455 0,-9.626 -7.83,-17.457 -17.455,-17.457 z"
             id="path4851" />
        </g>
      </g>
    </g>
  </g>
</svg>
