<?xml version="1.0" encoding="utf-8"?>
<!-- Generated by IcoMoon.io -->
<!DOCTYPE svg PUBLIC "-//W3C//DTD SVG 1.1//EN" "http://www.w3.org/Graphics/SVG/1.1/DTD/svg11.dtd">
<svg version="1.1" xmlns="http://www.w3.org/2000/svg" xmlns:xlink="http://www.w3.org/1999/xlink" width="72" height="72" viewBox="0 0 72 72">
<g id="icomoon-ignore">
</g>
<path d="M36 9c-14.91 0-27 12.090-27 27s12.090 27 27 27c2.49 0 4.5-2.010 4.5-4.5 0-1.17-0.435-2.22-1.17-3.015-0.705-0.795-1.125-1.83-1.125-2.985 0-2.49 2.010-4.5 4.5-4.5h5.295c8.28 0 15-6.72 15-15 0-13.26-12.090-24-27-24zM19.5 36c-2.49 0-4.5-2.010-4.5-4.5s2.010-4.5 4.5-4.5 4.5 2.010 4.5 4.5-2.010 4.5-4.5 4.5zM28.5 24c-2.49 0-4.5-2.010-4.5-4.5s2.010-4.5 4.5-4.5 4.5 2.010 4.5 4.5-2.010 4.5-4.5 4.5zM43.5 24c-2.49 0-4.5-2.010-4.5-4.5s2.010-4.5 4.5-4.5 4.5 2.010 4.5 4.5-2.010 4.5-4.5 4.5zM52.5 36c-2.49 0-4.5-2.010-4.5-4.5s2.010-4.5 4.5-4.5 4.5 2.010 4.5 4.5-2.010 4.5-4.5 4.5z" fill="#000000"></path>
</svg>
 