<?xml version="1.0" encoding="UTF-8" standalone="no"?>
<!-- Created with Inkscape (http://www.inkscape.org/) -->

<svg
   xmlns:dc="http://purl.org/dc/elements/1.1/"
   xmlns:cc="http://creativecommons.org/ns#"
   xmlns:rdf="http://www.w3.org/1999/02/22-rdf-syntax-ns#"
   xmlns:svg="http://www.w3.org/2000/svg"
   xmlns="http://www.w3.org/2000/svg"
   xmlns:sodipodi="http://sodipodi.sourceforge.net/DTD/sodipodi-0.dtd"
   xmlns:inkscape="http://www.inkscape.org/namespaces/inkscape"
   width="69.243858mm"
   height="69.243454mm"
   viewBox="0 0 245.35225 245.35082"
   id="svg4452"
   version="1.1"
   inkscape:version="0.91 r13725">
  <defs
     id="defs4454" />
  <sodipodi:namedview
     id="base"
     pagecolor="#ffffff"
     bordercolor="#666666"
     borderopacity="1.0"
     inkscape:pageopacity="0.0"
     inkscape:pageshadow="2"
     inkscape:zoom="0.35"
     inkscape:cx="122.6761"
     inkscape:cy="122.67541"
     inkscape:document-units="px"
     inkscape:current-layer="layer1"
     showgrid="false"
     inkscape:window-width="1600"
     inkscape:window-height="838"
     inkscape:window-x="-8"
     inkscape:window-y="-8"
     inkscape:window-maximized="1"
     fit-margin-top="0"
     fit-margin-left="0"
     fit-margin-right="0"
     fit-margin-bottom="0" />
  <metadata
     id="metadata4457">
    <rdf:RDF>
      <cc:Work
         rdf:about="">
        <dc:format>image/svg+xml</dc:format>
        <dc:type
           rdf:resource="http://purl.org/dc/dcmitype/StillImage" />
        <dc:title></dc:title>
      </cc:Work>
    </rdf:RDF>
  </metadata>
  <g
     inkscape:label="Layer 1"
     inkscape:groupmode="layer"
     id="layer1"
     transform="translate(-252.3239,-409.68679)">
    <g
       id="g807"
       transform="translate(-2755.2991,-114.73489)">
      <g
         id="g809">
        <path
           d="m 3157.578,732.926 c -9.403,-9.404 -9.403,-24.648 0,-34.051 l 0,0 c 9.404,-9.403 24.648,-9.404 34.051,0 l 29.796,29.794 c 9.403,9.403 9.401,24.647 0,34.052 l 0,0 c -9.403,9.402 -24.648,9.402 -34.051,0 l -29.795,-29.795 z"
           id="path811"
           inkscape:connector-curvature="0"
           style="fill:#f9c321" />
      </g>
    </g>
    <g
       id="g813"
       transform="translate(-2755.2991,-114.73489)">
      <g
         id="g815">
        <path
           style="fill:#f9c321"
           d="m 3039.984,596.266 123.862,123.862 6.912,-6.306 0,0 0,-10e-4 0,0 0,0 6.303,-6.913 -123.86,-123.861 -1.981,-15.67 -28.96,-16.689 -7.32,7.32 -7.317,7.316 16.688,28.961 z"
           id="polygon817"
           inkscape:connector-curvature="0" />
      </g>
    </g>
    <g
       id="g819"
       transform="translate(-2755.2991,-114.73489)">
      <g
         id="g821">
        <path
           d="m 3232.967,644.271 c 32.328,-34.483 21.998,-75.304 -6.257,-43.997 -28.257,31.305 -53.817,4.229 -53.817,4.229 0,0 -27.074,-25.561 4.23,-53.815 31.307,-28.257 -9.514,-38.586 -43.996,-6.257 -13.539,12.691 -23.073,34.917 -18.614,67.689 0,0 -82.495,82.494 -98.147,98.147 -15.654,15.652 -7.616,36.38 3.383,47.381 11,11 31.729,19.037 47.381,3.385 15.653,-15.653 98.148,-98.148 98.148,-98.148 32.77,4.459 54.997,-5.075 67.689,-18.614 z m -197.363,97.524 c -4.626,-4.626 -4.627,-12.125 0,-16.753 4.625,-4.624 12.126,-4.624 16.751,0 4.626,4.627 4.626,12.127 0,16.753 -4.626,4.626 -12.126,4.626 -16.751,0 z"
           id="path823"
           inkscape:connector-curvature="0"
           style="fill:#f9c321" />
      </g>
    </g>
  </g>
</svg>
