<?xml version="1.0" encoding="UTF-8" standalone="no"?>
<!-- Created with Inkscape (http://www.inkscape.org/) -->

<svg
   xmlns:dc="http://purl.org/dc/elements/1.1/"
   xmlns:cc="http://creativecommons.org/ns#"
   xmlns:rdf="http://www.w3.org/1999/02/22-rdf-syntax-ns#"
   xmlns:svg="http://www.w3.org/2000/svg"
   xmlns="http://www.w3.org/2000/svg"
   xmlns:sodipodi="http://sodipodi.sourceforge.net/DTD/sodipodi-0.dtd"
   xmlns:inkscape="http://www.inkscape.org/namespaces/inkscape"
   width="62.360847mm"
   height="58.645813mm"
   viewBox="0 0 220.96364 207.80012"
   id="svg2"
   version="1.1"
   inkscape:version="0.91 r13725"
   sodipodi:docname="pet-shape.svg">
  <defs
     id="defs4" />
  <sodipodi:namedview
     id="base"
     pagecolor="#ffffff"
     bordercolor="#666666"
     borderopacity="1.0"
     inkscape:pageopacity="0.0"
     inkscape:pageshadow="2"
     inkscape:zoom="0.35"
     inkscape:cx="-533.00905"
     inkscape:cy="326.99978"
     inkscape:document-units="px"
     inkscape:current-layer="layer1"
     showgrid="false"
     fit-margin-top="0"
     fit-margin-left="0"
     fit-margin-right="0"
     fit-margin-bottom="0"
     inkscape:window-width="1600"
     inkscape:window-height="838"
     inkscape:window-x="-8"
     inkscape:window-y="-8"
     inkscape:window-maximized="1" />
  <metadata
     id="metadata7">
    <rdf:RDF>
      <cc:Work
         rdf:about="">
        <dc:format>image/svg+xml</dc:format>
        <dc:type
           rdf:resource="http://purl.org/dc/dcmitype/StillImage" />
        <dc:title></dc:title>
      </cc:Work>
    </rdf:RDF>
  </metadata>
  <g
     inkscape:label="Layer 1"
     inkscape:groupmode="layer"
     id="layer1"
     transform="translate(-908.00907,-2594.419)">
    <g
       transform="translate(336.28453,946.52768)"
       id="g473">
      <g
         id="g475">
        <g
           id="g477">
          <path
             d="m 593.537,1852.355 c -1.267,0 -2.551,-0.172 -3.834,-0.526 -7.81,-2.151 -13.055,-10.14 -13.053,-19.882 0.002,-8.479 0,-100.516 0,-100.516 l 10.999,8.619 c 0,0 0.002,83.42 0,91.9 -10e-4,5.189 2.501,8.594 4.973,9.273 2.542,0.703 4.468,-1.795 5.39,-3.344 1.731,-2.908 2.451,-7.764 3.286,-18.25 0.475,-5.979 1.015,-12.756 1.853,-20.463 0.623,-5.72 3.634,-8.516 6.051,-9.857 8.112,-4.496 20.253,0.697 35.28,7.953 1.741,0.84 3.372,1.629 4.833,2.299 17.762,8.162 36.337,-4.908 36.521,-5.043 1.645,-1.177 3.802,-1.357 5.618,-0.471 1.816,0.888 3,2.7 3.081,4.721 0.051,1.26 1.24,30.937 1.062,39.678 -0.062,3.006 2.233,5.752 4.328,6.197 2.418,0.507 4.165,-2.686 4.989,-4.641 1.54,-3.678 1.831,-26.004 1.054,-42.755 -0.196,-4.247 3.08,-6.872 8.509,-11.224 7.642,-6.126 19.19,-15.383 19.837,-28.344 0.023,-0.469 0.042,-0.938 0.061,-1.404 0.271,-6.882 0.681,-17.284 18.812,-20.652 16.885,-3.135 26.128,-12.563 28.102,-28.74 -8.484,0.917 -22.48,1.111 -31.468,-5.671 -3.732,-2.817 -10.625,-8.019 -18.479,-10.823 1.009,11.842 1.133,30.958 -0.736,40.298 -1.449,7.247 -8.205,13.098 -16.813,14.559 -9.417,1.601 -18.285,-2.509 -23.14,-10.724 -4.827,-8.17 -4.242,-20.813 1.564,-33.823 5.548,-12.427 14,-20.874 22.609,-22.596 17.892,-3.583 34.52,8.97 41.62,14.331 7.516,5.67 23.917,3.803 29.603,2.604 1.628,-0.344 3.328,0.068 4.618,1.123 1.289,1.053 2.034,2.633 2.021,4.297 -0.186,25.561 -13.15,41.461 -37.493,45.98 -9.495,1.764 -9.586,4.08 -9.83,10.271 -0.02,0.503 -0.04,1.01 -0.065,1.517 -0.892,17.905 -15.322,29.47 -23.943,36.382 -1.54,1.233 -3.38,2.708 -4.338,3.633 0.28,7.229 1.278,38.34 -1.969,46.036 -4.232,10.036 -11.773,12.323 -17.415,11.124 -7.474,-1.59 -13.199,-9.138 -13.034,-17.182 0.112,-5.502 -0.368,-20.371 -0.718,-30.082 -8.974,4.102 -23.973,8.399 -39.159,1.42 -1.52,-0.699 -3.215,-1.516 -5.024,-2.391 -5.037,-2.434 -10.747,-5.188 -15.921,-6.925 -7.031,-2.357 -9.037,-1.427 -9.242,-1.312 -0.185,0.101 -0.369,0.688 -0.449,1.426 -0.821,7.549 -1.354,14.242 -1.823,20.148 -1.097,13.774 -1.758,17.892 -4.799,23 -3.382,5.682 -8.496,8.852 -13.929,8.852 z m 126.57,-163.849 c -1.044,0.053 -2.087,0.176 -3.125,0.385 -4.892,0.979 -10.808,7.526 -14.722,16.293 -4.162,9.326 -5.022,18.867 -2.14,23.744 3.627,6.139 9.48,5.875 11.829,5.476 4.015,-0.683 7.324,-3.151 7.868,-5.87 1.775,-8.87 1.457,-29.762 0.29,-40.028 z"
             id="path479"
             inkscape:connector-curvature="0"
             style="fill:#f9c321" />
        </g>
      </g>
    </g>
    <g
       transform="translate(336.28453,946.52768)"
       id="g481">
      <g
         id="g483">
        <g
           id="g485">
          <path
             d="m 628.599,1744.66 c -20.707,0 -33.868,-0.691 -38.881,-2.672 -21.953,-8.674 -19.424,-34.886 -15.019,-47.537 0.998,-2.868 4.131,-4.383 7.002,-3.385 2.866,0.998 4.381,4.127 3.389,6.994 -0.383,1.111 -8.955,26.736 8.669,33.697 6.737,2.662 49.93,1.858 68.374,1.517 7.337,-0.138 12.639,-0.235 14.694,-0.163 3.035,0.109 5.408,2.658 5.3,5.693 -0.108,3.035 -2.683,5.42 -5.692,5.3 -1.759,-0.062 -7.203,0.038 -14.098,0.166 -12.837,0.24 -24.106,0.39 -33.738,0.39 z"
             id="path487"
             inkscape:connector-curvature="0"
             style="fill:#f9c321" />
        </g>
      </g>
    </g>
    <g
       transform="translate(336.28453,946.52768)"
       id="g489">
      <g
         id="g491">
        <path
           d="m 737.837,1759.014 c -0.349,0 -0.703,-0.033 -1.06,-0.104 -0.737,-0.145 -18.138,-3.684 -25.627,-17.228 -1.47,-2.659 -0.507,-6.006 2.151,-7.476 2.658,-1.468 6.004,-0.506 7.475,2.152 4.983,9.014 17.996,11.734 18.127,11.76 2.972,0.6 4.905,3.49 4.314,6.464 -0.519,2.618 -2.81,4.432 -5.38,4.432 z"
           id="path493"
           inkscape:connector-curvature="0"
           style="fill:#f9c321" />
      </g>
    </g>
    <g
       transform="translate(336.28453,946.52768)"
       id="g495">
      <g
         id="g497">
        <path
           d="m 679.455,1711.631 c -1.68,0 -3.338,-0.768 -4.418,-2.218 l -39.203,-52.741 c -1.812,-2.438 -1.304,-5.883 1.134,-7.695 2.438,-1.811 5.882,-1.305 7.694,1.135 l 39.203,52.739 c 1.813,2.438 1.305,5.882 -1.133,7.694 -0.985,0.732 -2.136,1.086 -3.277,1.086 z"
           id="path499"
           inkscape:connector-curvature="0"
           style="fill:#f9c321" />
      </g>
    </g>
  </g>
</svg>
