<?xml version="1.0" encoding="UTF-8" standalone="no"?>
<!-- Created with Inkscape (http://www.inkscape.org/) -->

<svg
   xmlns:dc="http://purl.org/dc/elements/1.1/"
   xmlns:cc="http://creativecommons.org/ns#"
   xmlns:rdf="http://www.w3.org/1999/02/22-rdf-syntax-ns#"
   xmlns:svg="http://www.w3.org/2000/svg"
   xmlns="http://www.w3.org/2000/svg"
   xmlns:sodipodi="http://sodipodi.sourceforge.net/DTD/sodipodi-0.dtd"
   xmlns:inkscape="http://www.inkscape.org/namespaces/inkscape"
   width="49.980152mm"
   height="28.619026mm"
   viewBox="0 0 177.09503 101.406"
   id="svg8983"
   version="1.1"
   inkscape:version="0.91 r13725"
   sodipodi:docname="plane.svg">
  <defs
     id="defs8985" />
  <sodipodi:namedview
     id="base"
     pagecolor="#ffffff"
     bordercolor="#666666"
     borderopacity="1.0"
     inkscape:pageopacity="0.0"
     inkscape:pageshadow="2"
     inkscape:zoom="0.35"
     inkscape:cx="372.11895"
     inkscape:cy="-423.5827"
     inkscape:document-units="px"
     inkscape:current-layer="layer1"
     showgrid="false"
     inkscape:window-width="1600"
     inkscape:window-height="838"
     inkscape:window-x="-8"
     inkscape:window-y="-8"
     inkscape:window-maximized="1"
     fit-margin-top="0"
     fit-margin-left="0"
     fit-margin-right="0"
     fit-margin-bottom="0" />
  <metadata
     id="metadata8988">
    <rdf:RDF>
      <cc:Work
         rdf:about="">
        <dc:format>image/svg+xml</dc:format>
        <dc:type
           rdf:resource="http://purl.org/dc/dcmitype/StillImage" />
        <dc:title></dc:title>
      </cc:Work>
    </rdf:RDF>
  </metadata>
  <g
     inkscape:label="Layer 1"
     inkscape:groupmode="layer"
     id="layer1"
     transform="translate(-2.88105,-7.3735)">
    <g
       transform="translate(-921.29795,-3078.0645)"
       id="g2281">
      <g
         id="g2283">
        <g
           id="g2285">
          <g
             id="g2287">
            <path
               d="m 1060.673,3141.586 c -3.723,0 -6.546,-2.342 -7.377,-6.125 -1.488,-6.781 3.728,-17.068 16.327,-22.775 1.7,-0.771 3.708,-0.02 4.479,1.686 0.771,1.703 0.017,3.709 -1.687,4.479 -10.179,4.611 -13.17,12.148 -12.509,15.16 0.179,0.811 0.409,0.805 0.78,0.809 7.262,-0.051 34.105,0 34.377,0 1.868,0 3.381,1.52 3.377,3.391 0,1.867 -1.518,3.377 -3.385,3.377 -10e-4,0 0,0 0,0 -0.272,0 -27.088,-0.049 -34.319,0 -0.019,0 -0.039,0 -0.059,0 z"
               id="path2289"
               inkscape:connector-curvature="0"
               style="fill:#9e9d9b" />
          </g>
        </g>
      </g>
      <g
         id="g2291">
        <g
           id="g2293">
          <g
             id="g2295">
            <path
               d="m 945.555,3186.844 c -3.141,0 -5.913,-0.363 -8.24,-1.076 -6.641,-2.037 -7.498,-5.938 -7.418,-8.082 0.104,-2.814 0.38,-10.289 35.934,-28.066 17.013,-8.506 36.479,-16.396 42.518,-17.77 1.523,-0.348 3.153,-0.523 4.844,-0.523 10.692,0 22.816,7.1 24.875,12.695 0.814,2.219 0.295,4.398 -1.392,5.832 -14.313,12.182 -65.524,36.99 -91.121,36.99 z m -8.895,-8.883 c 0.01,0 0.424,0.656 2.64,1.334 1.683,0.518 3.788,0.777 6.255,0.777 23.195,0 70.904,-22.824 85.652,-34.488 -2.12,-2.463 -10.052,-7.488 -18.016,-7.488 -1.187,0 -2.312,0.119 -3.343,0.354 -5.027,1.145 -23.781,8.564 -41.726,17.594 -26.333,13.248 -31.64,20.312 -31.462,21.917 l 0,0 z"
               id="path2297"
               inkscape:connector-curvature="0"
               style="fill:#9e9d9b" />
          </g>
        </g>
      </g>
      <g
         id="g2299">
        <g
           id="g2301">
          <g
             id="g2303">
            <g
               id="g2305">
              <path
                 d="m 1046.457,3164.278 c -9.797,0 -21.353,-0.078 -32.771,-0.648 -1.521,-0.076 -2.805,-1.158 -3.136,-2.643 -0.331,-1.486 0.37,-3.012 1.714,-3.725 8.137,-4.328 14.924,-8.518 18.942,-11.68 -2.123,-2.463 -10.053,-7.486 -18.014,-7.486 -1.188,0 -2.313,0.119 -3.344,0.354 -5.134,1.168 -24.876,9.025 -42.936,18.207 -0.721,0.365 -1.55,0.465 -2.335,0.271 -27.46,-6.691 -39.154,-20.762 -39.639,-21.357 -0.491,-0.604 -0.759,-1.357 -0.759,-2.133 l 0,-40.809 c 0,-0.785 0.272,-1.545 0.771,-2.15 2.716,-3.297 6.216,-5.041 10.123,-5.041 6.092,0 11.046,4.166 11.591,4.641 0.271,0.236 0.504,0.516 0.688,0.826 l 10.167,17.17 c 8.589,-1.309 39.798,-5.73 69.038,-5.73 35.195,0 73.102,20.658 74.651,35.508 0.4,3.84 -1.023,7.684 -4.118,11.117 -8.377,9.298 -28.252,15.308 -50.633,15.308 z m -20.526,-6.977 c 7.223,0.176 14.238,0.207 20.526,0.207 19.918,0 38.672,-5.375 45.606,-13.07 1.801,-1.996 2.612,-3.979 2.413,-5.885 -0.959,-9.197 -34.423,-29.441 -67.918,-29.441 -33.572,0 -69.866,5.941 -70.229,6.002 -1.379,0.225 -2.754,-0.414 -3.465,-1.617 l -11.025,-18.619 c -1.253,-0.951 -4.072,-2.67 -6.765,-2.67 -1.563,0 -2.896,0.557 -4.126,1.736 l 0,38.182 c 2.797,2.885 13.446,12.641 34.027,17.924 17.104,-8.609 37.167,-16.787 43.371,-18.199 1.523,-0.348 3.153,-0.523 4.845,-0.523 10.691,0 22.815,7.1 24.874,12.695 0.814,2.219 0.295,4.398 -1.392,5.832 -2.506,2.134 -6.185,4.677 -10.742,7.446 z"
                 id="path2307"
                 inkscape:connector-curvature="0"
                 style="fill:#9e9d9b" />
            </g>
          </g>
        </g>
      </g>
    </g>
  </g>
</svg>
