<?xml version="1.0" encoding="UTF-8" standalone="no"?>
<!-- Created with Inkscape (http://www.inkscape.org/) -->

<svg
   xmlns:dc="http://purl.org/dc/elements/1.1/"
   xmlns:cc="http://creativecommons.org/ns#"
   xmlns:rdf="http://www.w3.org/1999/02/22-rdf-syntax-ns#"
   xmlns:svg="http://www.w3.org/2000/svg"
   xmlns="http://www.w3.org/2000/svg"
   xmlns:sodipodi="http://sodipodi.sourceforge.net/DTD/sodipodi-0.dtd"
   xmlns:inkscape="http://www.inkscape.org/namespaces/inkscape"
   width="37.012592mm"
   height="43.580185mm"
   viewBox="0 0 131.14698 154.41798"
   id="svg8763"
   version="1.1"
   inkscape:version="0.91 r13725"
   sodipodi:docname="programs.svg">
  <defs
     id="defs8765" />
  <sodipodi:namedview
     id="base"
     pagecolor="#ffffff"
     bordercolor="#666666"
     borderopacity="1.0"
     inkscape:pageopacity="0.0"
     inkscape:pageshadow="2"
     inkscape:zoom="0.35"
     inkscape:cx="-313.90296"
     inkscape:cy="19.623884"
     inkscape:document-units="px"
     inkscape:current-layer="layer1"
     showgrid="false"
     borderlayer="true"
     fit-margin-top="0"
     fit-margin-left="0"
     fit-margin-right="0"
     fit-margin-bottom="0"
     inkscape:window-width="1600"
     inkscape:window-height="838"
     inkscape:window-x="-8"
     inkscape:window-y="-8"
     inkscape:window-maximized="1" />
  <metadata
     id="metadata8768">
    <rdf:RDF>
      <cc:Work
         rdf:about="">
        <dc:format>image/svg+xml</dc:format>
        <dc:type
           rdf:resource="http://purl.org/dc/dcmitype/StillImage" />
        <dc:title></dc:title>
      </cc:Work>
    </rdf:RDF>
  </metadata>
  <g
     inkscape:label="Layer 1"
     inkscape:groupmode="layer"
     id="layer1"
     transform="translate(-261.7601,-397.56811)">
    <g
       transform="translate(75.729104,95.972107)"
       id="g4011">
      <g
         id="g4013">
        <path
           style="fill:#f9c321"
           inkscape:connector-curvature="0"
           d="m 264.72,445.016 0,-13.595 c -4.239,0.863 -8.624,1.319 -13.114,1.319 -4.49,0 -8.876,-0.456 -13.115,-1.319 l 0,13.595 26.229,0 z"
           id="path4015" />
      </g>
    </g>
    <g
       transform="translate(75.729104,95.972107)"
       id="g4017">
      <g
         id="g4019">
        <path
           style="fill:#f9c321"
           inkscape:connector-curvature="0"
           d="m 264.72,445.016 -26.23,0 0,-14.839 c -3.798,-0.813 -7.47,-1.989 -10.999,-3.462 l 0,29.299 48.228,0 0,-29.299 c -3.53,1.473 -7.201,2.648 -10.999,3.462 l 0,14.839 z"
           id="path4021" />
      </g>
    </g>
    <g
       transform="translate(75.729104,95.972107)"
       id="g4023">
      <g
         id="g4025">
        <path
           style="fill:#f9c321"
           inkscape:connector-curvature="0"
           d="m 251.605,301.596 c -36.157,0 -65.574,29.415 -65.574,65.572 0,27.643 17.204,51.328 41.46,60.959 3.529,1.402 7.201,2.52 10.999,3.294 4.239,0.863 8.625,1.319 13.115,1.319 4.49,0 8.875,-0.456 13.114,-1.319 3.798,-0.774 7.469,-1.892 10.999,-3.294 24.256,-9.631 41.46,-33.316 41.46,-60.959 10e-4,-36.157 -29.416,-65.572 -65.573,-65.572 z m 24.114,114.511 c -7.276,3.6 -15.461,5.634 -24.113,5.634 -8.653,0 -16.838,-2.034 -24.114,-5.634 -18.028,-8.919 -30.46,-27.5 -30.46,-48.939 0,-30.093 24.481,-54.574 54.574,-54.574 30.092,0 54.573,24.481 54.573,54.574 0,21.439 -12.432,40.02 -30.46,48.939 z"
           id="path4027" />
      </g>
    </g>
    <g
       transform="translate(75.729104,95.972107)"
       id="g4029">
      <g
         id="g4031">
        <path
           style="fill:#f9c321"
           inkscape:connector-curvature="0"
           d="m 251.605,385.853 c -0.479,0 -0.935,-0.203 -1.256,-0.558 l -3.92,-4.336 -7.358,-8.937 -8.883,7.31 c -0.305,0.251 -0.685,0.387 -1.075,0.387 -0.055,0 -0.109,-0.003 -0.164,-0.009 -0.446,-0.043 -0.858,-0.262 -1.143,-0.609 l -3.227,-3.92 c -0.593,-0.722 -0.489,-1.787 0.232,-2.382 l 14.084,-11.59 c 0.315,-0.26 0.696,-0.387 1.075,-0.387 0.138,0 0.275,0.018 0.41,0.051 0.357,0.076 0.692,0.267 0.94,0.567 l 10.283,12.496 10.282,-12.496 c 0.335,-0.406 0.819,-0.618 1.309,-0.618 0.092,0 0.183,0.008 0.274,0.022 0.301,0.039 0.593,0.158 0.843,0.364 l 14.085,11.59 c 0.721,0.595 0.825,1.66 0.23,2.382 l -3.225,3.92 c -0.286,0.348 -0.696,0.566 -1.145,0.609 -0.054,0.006 -0.108,0.009 -0.163,0.009 -0.391,0 -0.771,-0.136 -1.075,-0.387 l -8.883,-7.31 -7.307,8.878 -3.972,4.395 c -0.317,0.355 -0.772,0.559 -1.251,0.559 z"
           id="path4033" />
      </g>
    </g>
  </g>
</svg>
