<?xml version="1.0" encoding="UTF-8" standalone="no"?>
<!-- Created with Inkscape (http://www.inkscape.org/) -->

<svg
   xmlns:dc="http://purl.org/dc/elements/1.1/"
   xmlns:cc="http://creativecommons.org/ns#"
   xmlns:rdf="http://www.w3.org/1999/02/22-rdf-syntax-ns#"
   xmlns:svg="http://www.w3.org/2000/svg"
   xmlns="http://www.w3.org/2000/svg"
   xmlns:xlink="http://www.w3.org/1999/xlink"
   xmlns:sodipodi="http://sodipodi.sourceforge.net/DTD/sodipodi-0.dtd"
   xmlns:inkscape="http://www.inkscape.org/namespaces/inkscape"
   width="82.700706mm"
   height="55.160049mm"
   viewBox="0 0 293.034 195.44899"
   id="svg2"
   version="1.1"
   inkscape:version="0.91 r13725"
   sodipodi:docname="purchase-shape.svg">
  <defs
     id="defs4" />
  <sodipodi:namedview
     id="base"
     pagecolor="#ffffff"
     bordercolor="#666666"
     borderopacity="1.0"
     inkscape:pageopacity="0.0"
     inkscape:pageshadow="2"
     inkscape:zoom="0.35"
     inkscape:cx="-321.34014"
     inkscape:cy="857.7245"
     inkscape:document-units="px"
     inkscape:current-layer="layer1"
     showgrid="false"
     fit-margin-top="0"
     fit-margin-left="0"
     fit-margin-right="0"
     fit-margin-bottom="0"
     inkscape:window-width="1600"
     inkscape:window-height="838"
     inkscape:window-x="-8"
     inkscape:window-y="-8"
     inkscape:window-maximized="1" />
  <metadata
     id="metadata7">
    <rdf:RDF>
      <cc:Work
         rdf:about="">
        <dc:format>image/svg+xml</dc:format>
        <dc:type
           rdf:resource="http://purl.org/dc/dcmitype/StillImage" />
        <dc:title></dc:title>
      </cc:Work>
    </rdf:RDF>
  </metadata>
  <g
     inkscape:label="Layer 1"
     inkscape:groupmode="layer"
     id="layer1"
     transform="translate(-696.34014,-1194.6377)">
    <g
       transform="translate(106.71614,642.1667)"
       id="g283">
      <g
         id="g285">
        <path
           d="m 856.146,590.121 c 0,-20.762 -16.891,-37.65 -37.651,-37.65 l -120.148,0 c -20.761,0 -37.651,16.889 -37.651,37.65 l 0,32.857 11,0 0,-32.857 c 0,-14.695 11.956,-26.652 26.651,-26.652 l 120.147,0 c 14.696,0 26.652,11.957 26.652,26.652 l 0,13.256 10.999,0 0,-13.256 z"
           id="path287"
           inkscape:connector-curvature="0"
           style="fill:#f9c321" />
      </g>
    </g>
    <g
       transform="translate(106.71614,642.1667)"
       id="g289">
      <g
         id="g291">
        <path
           d="m 845.146,692.5 c 0,14.696 -11.956,26.652 -26.652,26.652 l -46.958,0 0,7.19 c 0,1.301 -0.122,2.571 -0.344,3.81 l 47.302,0 c 20.761,0 37.651,-16.891 37.651,-37.652 l 0,-13.256 -10.999,0 0,13.256 z"
           id="path293"
           inkscape:connector-curvature="0"
           style="fill:#f9c321" />
      </g>
    </g>
    <g
       transform="translate(106.71614,642.1667)"
       id="g295">
      <g
         id="g297">
        <path
           d="m 867.851,603.377 -11.705,0 -10.999,0 -32.011,0 c -8.165,0 -14.807,6.643 -14.807,14.807 l 0,46.254 c 0,8.166 6.642,14.807 14.807,14.807 l 32.011,0 10.999,0 11.705,0 c 8.164,0 14.807,-6.641 14.807,-14.807 l 0,-46.254 c -10e-4,-8.164 -6.643,-14.807 -14.807,-14.807 z m 3.807,61.061 c 0,2.101 -1.708,3.808 -3.808,3.808 l -11.705,0 -10.999,0 -32.011,0 c -2.1,0 -3.808,-1.707 -3.808,-3.808 l 0,-46.254 c 0,-2.099 1.708,-3.807 3.808,-3.807 l 32.011,0 10.999,0 11.705,0 c 2.1,0 3.808,1.708 3.808,3.807 l 0,46.254 z"
           id="path299"
           inkscape:connector-curvature="0"
           style="fill:#f9c321" />
      </g>
    </g>
    <g
       transform="translate(106.71614,642.1667)"
       id="g301">
      <g
         id="g303">
        <path
           d="m 749.961,622.979 -78.266,0 -11,0 -49.496,0 c -11.896,0 -21.575,9.679 -21.575,21.575 l 0,81.789 c 0,11.896 9.679,21.577 21.575,21.577 l 138.762,0 c 10.597,0 19.427,-7.682 21.231,-17.768 0.222,-1.238 0.344,-2.509 0.344,-3.81 l 0,-7.19 0,-74.599 c 0,-11.896 -9.679,-21.574 -21.575,-21.574 z m 10.576,103.364 c 0,1.344 -0.263,2.625 -0.721,3.81 -1.533,3.952 -5.368,6.767 -9.855,6.767 l -138.762,0 c -5.832,0 -10.576,-4.744 -10.576,-10.576 l 0,-81.789 c 0,-5.832 4.744,-10.576 10.576,-10.576 l 49.496,0 11,0 78.266,0 c 5.831,0 10.576,4.744 10.576,10.576 l 0,74.599 0,7.189 z"
           id="path305"
           inkscape:connector-curvature="0"
           style="fill:#f9c321" />
      </g>
    </g>
    <g
       transform="translate(106.71614,642.1667)"
       id="g307">
      <g
         id="g309">
        <g
           id="g311">
          <path
             d="m 766.036,688.129 -170.912,0 c -3.038,0 -5.5,-2.463 -5.5,-5.5 0,-3.037 2.462,-5.5 5.5,-5.5 l 170.912,0 c 3.038,0 5.5,2.463 5.5,5.5 0,3.037 -2.462,5.5 -5.5,5.5 z"
             id="path313"
             inkscape:connector-curvature="0"
             style="fill:#f9c321" />
        </g>
      </g>
    </g>
    <g
       transform="translate(106.71614,642.1667)"
       id="g315">
      <g
         id="g317">
        <g
           id="g319">
          <path
             d="m 766.036,659.361 -170.912,0 c -3.038,0 -5.5,-2.463 -5.5,-5.5 0,-3.037 2.462,-5.5 5.5,-5.5 l 170.912,0 c 3.038,0 5.5,2.463 5.5,5.5 0,3.037 -2.462,5.5 -5.5,5.5 z"
             id="path321"
             inkscape:connector-curvature="0"
             style="fill:#f9c321" />
        </g>
      </g>
    </g>
    <g
       transform="translate(106.71614,642.1667)"
       id="g323">
      <g
         id="g325">
        <g
           id="g327">
          <circle
             cx="825.263"
             cy="641.31201"
             r="10.153"
             id="circle329"
             style="fill:#f9c321" />
        </g>
      </g>
    </g>
    <use
       x="0"
       y="0"
       xlink:href="#g283"
       id="use3388"
       width="100%"
       height="100%" />
    <use
       x="0"
       y="0"
       xlink:href="#g289"
       id="use3390"
       width="100%"
       height="100%" />
    <use
       x="0"
       y="0"
       xlink:href="#g295"
       id="use3392"
       width="100%"
       height="100%" />
    <use
       x="0"
       y="0"
       xlink:href="#g301"
       id="use3394"
       width="100%"
       height="100%" />
    <use
       x="0"
       y="0"
       xlink:href="#g307"
       id="use3396"
       width="100%"
       height="100%" />
    <use
       x="0"
       y="0"
       xlink:href="#g315"
       id="use3398"
       width="100%"
       height="100%" />
    <use
       x="0"
       y="0"
       xlink:href="#g323"
       id="use3400"
       width="100%"
       height="100%" />
  </g>
</svg>
