<?xml version="1.0" encoding="UTF-8" standalone="no"?>
<!-- Created with Inkscape (http://www.inkscape.org/) -->

<svg
   xmlns:dc="http://purl.org/dc/elements/1.1/"
   xmlns:cc="http://creativecommons.org/ns#"
   xmlns:rdf="http://www.w3.org/1999/02/22-rdf-syntax-ns#"
   xmlns:svg="http://www.w3.org/2000/svg"
   xmlns="http://www.w3.org/2000/svg"
   xmlns:sodipodi="http://sodipodi.sourceforge.net/DTD/sodipodi-0.dtd"
   xmlns:inkscape="http://www.inkscape.org/namespaces/inkscape"
   width="39.002548mm"
   height="50.668484mm"
   viewBox="0 0 138.19801 179.534"
   id="svg9068"
   version="1.1"
   inkscape:version="0.91 r13725"
   sodipodi:docname="railway.svg">
  <defs
     id="defs9070" />
  <sodipodi:namedview
     id="base"
     pagecolor="#ffffff"
     bordercolor="#666666"
     borderopacity="1.0"
     inkscape:pageopacity="0.0"
     inkscape:pageshadow="2"
     inkscape:zoom="0.35"
     inkscape:cx="375.52757"
     inkscape:cy="-350.233"
     inkscape:document-units="px"
     inkscape:current-layer="layer1"
     showgrid="false"
     inkscape:window-width="1600"
     inkscape:window-height="838"
     inkscape:window-x="-8"
     inkscape:window-y="-8"
     inkscape:window-maximized="1"
     fit-margin-top="0"
     fit-margin-left="0"
     fit-margin-right="0"
     fit-margin-bottom="0" />
  <metadata
     id="metadata9073">
    <rdf:RDF>
      <cc:Work
         rdf:about="">
        <dc:format>image/svg+xml</dc:format>
        <dc:type
           rdf:resource="http://purl.org/dc/dcmitype/StillImage" />
        <dc:title></dc:title>
      </cc:Work>
    </rdf:RDF>
  </metadata>
  <g
     inkscape:label="Layer 1"
     inkscape:groupmode="layer"
     id="layer1"
     transform="translate(0.52757,-2.5952)">
    <g
       transform="translate(-696.30057,-3683.9388)"
       id="g1879">
      <g
         id="g1881">
        <g
           id="g1883">
          <g
             id="g1885">
            <rect
               x="712.13098"
               y="3778.613"
               width="6.77"
               height="67.980003"
               id="rect1887"
               style="fill:#9e9d9b" />
          </g>
        </g>
      </g>
      <g
         id="g1889">
        <g
           id="g1891">
          <g
             id="g1893">
            <rect
               x="736.45502"
               y="3778.613"
               width="6.7690001"
               height="67.980003"
               id="rect1895"
               style="fill:#9e9d9b" />
          </g>
        </g>
      </g>
      <g
         id="g1897">
        <g
           id="g1899">
          <g
             id="g1901">
            <rect
               x="810.84302"
               y="3778.613"
               width="6.7690001"
               height="67.980003"
               id="rect1903"
               style="fill:#9e9d9b" />
          </g>
        </g>
      </g>
      <g
         id="g1905">
        <g
           id="g1907">
          <g
             id="g1909">
            <rect
               x="786.51801"
               y="3778.613"
               width="6.7690001"
               height="67.980003"
               id="rect1911"
               style="fill:#9e9d9b" />
          </g>
        </g>
      </g>
      <g
         id="g1913">
        <g
           id="g1915">
          <g
             id="g1917">
            <rect
               x="761.48602"
               y="3778.613"
               width="6.7690001"
               height="67.980003"
               id="rect1919"
               style="fill:#9e9d9b" />
          </g>
        </g>
      </g>
      <g
         id="g1921">
        <g
           id="g1923">
          <g
             id="g1925">
            <path
               d="m 833.971,3866.068 -138.198,0 0,-89.289 69.098,-45.064 69.1,45.064 0,89.289 z m -131.429,-6.77 124.659,0 0,-78.854 -62.33,-40.648 -62.329,40.648 0,78.854 z"
               id="path1927"
               inkscape:connector-curvature="0"
               style="fill:#9e9d9b" />
          </g>
        </g>
      </g>
      <g
         id="g1929">
        <g
           id="g1931">
          <g
             id="g1933">
            <rect
               x="699.15698"
               y="3775.228"
               width="131.429"
               height="6.7680001"
               id="rect1935"
               style="fill:#9e9d9b" />
          </g>
        </g>
      </g>
      <g
         id="g1937">
        <g
           id="g1939">
          <g
             id="g1941">
            <path
               d="m 764.871,3715.373 c -0.85,0 -1.699,-0.318 -2.355,-0.955 l -22.773,-22.068 c -0.99,-0.961 -1.3,-2.424 -0.781,-3.701 0.517,-1.279 1.758,-2.115 3.137,-2.115 l 45.549,0 c 1.378,0 2.619,0.836 3.136,2.115 0.519,1.277 0.21,2.742 -0.781,3.701 l -22.775,22.068 c -0.659,0.636 -1.507,0.955 -2.357,0.955 z m -14.418,-22.071 14.418,13.971 14.419,-13.971 -28.837,0 z"
               id="path1943"
               inkscape:connector-curvature="0"
               style="fill:#9e9d9b" />
          </g>
        </g>
      </g>
      <g
         id="g1945">
        <g
           id="g1947">
          <g
             id="g1949">
            <path
               d="m 762.615,3745.468 c -0.756,0 -1.547,-0.049 -2.375,-0.146 -4.18,-0.498 -8.129,-4.061 -9.603,-8.668 -1.845,-5.766 0.252,-11.939 5.753,-16.939 4.797,-4.361 5.096,-7.697 5.096,-7.727 0,-1.869 1.516,-3.387 3.385,-3.387 1.869,0 3.384,1.518 3.384,3.387 0,0.623 -0.204,6.275 -7.312,12.734 -3.505,3.188 -4.876,6.691 -3.858,9.871 0.735,2.301 2.589,3.844 3.955,4.006 7.982,0.947 9.3,-5.668 9.485,-7.004 0.255,-1.842 1.959,-3.145 3.793,-2.906 1.844,0.242 3.148,1.912 2.922,3.756 -0.469,3.814 -4.017,13.023 -14.625,13.023 z"
               id="path1951"
               inkscape:connector-curvature="0"
               style="fill:#9e9d9b" />
          </g>
        </g>
      </g>
    </g>
  </g>
</svg>
