<?xml version="1.0" encoding="UTF-8" standalone="no"?>
<!-- Created with Inkscape (http://www.inkscape.org/) -->

<svg
   xmlns:dc="http://purl.org/dc/elements/1.1/"
   xmlns:cc="http://creativecommons.org/ns#"
   xmlns:rdf="http://www.w3.org/1999/02/22-rdf-syntax-ns#"
   xmlns:svg="http://www.w3.org/2000/svg"
   xmlns="http://www.w3.org/2000/svg"
   xmlns:sodipodi="http://sodipodi.sourceforge.net/DTD/sodipodi-0.dtd"
   xmlns:inkscape="http://www.inkscape.org/namespaces/inkscape"
   width="58.332512mm"
   height="66.788452mm"
   viewBox="0 0 206.69 236.65199"
   id="svg2"
   version="1.1"
   inkscape:version="0.91 r13725"
   sodipodi:docname="resturant-shape.svg">
  <defs
     id="defs4" />
  <sodipodi:namedview
     id="base"
     pagecolor="#ffffff"
     bordercolor="#666666"
     borderopacity="1.0"
     inkscape:pageopacity="0.0"
     inkscape:pageshadow="2"
     inkscape:zoom="0.35"
     inkscape:cx="-336.71785"
     inkscape:cy="88.426853"
     inkscape:document-units="px"
     inkscape:current-layer="layer1"
     showgrid="false"
     fit-margin-top="0"
     fit-margin-left="0"
     fit-margin-right="0"
     fit-margin-bottom="0"
     inkscape:window-width="1600"
     inkscape:window-height="838"
     inkscape:window-x="-8"
     inkscape:window-y="-8"
     inkscape:window-maximized="1" />
  <metadata
     id="metadata7">
    <rdf:RDF>
      <cc:Work
         rdf:about="">
        <dc:format>image/svg+xml</dc:format>
        <dc:type
           rdf:resource="http://purl.org/dc/dcmitype/StillImage" />
        <dc:title></dc:title>
      </cc:Work>
    </rdf:RDF>
  </metadata>
  <g
     inkscape:label="Layer 1"
     inkscape:groupmode="layer"
     id="layer1"
     transform="translate(-711.71787,-726.99418)">
    <g
       transform="translate(-200.05813,-323.26582)"
       id="g49">
      <g
         id="g51">
        <g
           id="g53">
          <g
             id="g55">
            <rect
               x="911.776"
               y="1162.51"
               width="189.95"
               height="10.999"
               id="rect57"
               style="fill:#f9c321" />
          </g>
        </g>
      </g>
    </g>
    <g
       transform="translate(-200.05813,-323.26582)"
       id="g59">
      <g
         id="g61">
        <g
           id="g63">
          <path
             d="m 1019.017,1204.832 c -23.93,0 -48.157,-30.992 -49.191,-32.331 l 8.701,-6.728 c 6.201,8.004 25.647,28.658 41.126,28.047 14.174,-0.553 18.597,-13.211 21.054,-25.52 0.107,-0.538 0.204,-1.02 0.293,-1.436 l 10.758,2.289 c -0.08,0.377 -0.167,0.813 -0.264,1.3 -1.648,8.258 -6.666,33.392 -31.413,34.356 -0.354,0.015 -0.71,0.023 -1.064,0.023 z"
             id="path65"
             inkscape:connector-curvature="0"
             style="fill:#f9c321" />
        </g>
      </g>
    </g>
    <g
       transform="translate(-200.05813,-323.26582)"
       id="g67">
      <g
         id="g69">
        <path
           d="m 983.758,1203.082 c -18.625,-17.896 -26.699,-32.115 -26.779,-32.256 l -14.672,-1.406 c 0.348,0.624 13.799,22.258 33.444,41.222 15.094,14.568 39.593,34.012 74.929,49.986 l 3.652,-10.425 c -33.228,-15.157 -56.308,-33.416 -70.574,-47.121 z"
           id="path71"
           inkscape:connector-curvature="0"
           style="fill:#f9c321" />
      </g>
    </g>
    <g
       transform="translate(-200.05813,-323.26582)"
       id="g73">
      <g
         id="g75">
        <path
           d="m 1066.517,1170.672 -5.191,-1.815 5.188,1.825 -5.188,-1.825 -5.188,-1.826 c -0.18,0.511 -4.385,12.658 -3.397,26.884 0.795,11.461 4.671,20.993 11.394,28.3 l 4.398,-12.56 c -9.668,-16.292 -2.441,-37.762 -2.016,-38.983 z"
           id="path77"
           inkscape:connector-curvature="0"
           style="fill:#f9c321" />
      </g>
    </g>
    <g
       transform="translate(-200.05813,-323.26582)"
       id="g79">
      <g
         id="g81">
        <g
           id="g83">
          <polygon
             points="1114.83,1238.188 1084.254,1227.479 1070.825,1265.822 1101.401,1276.531 1097.766,1286.912 1056.808,1272.567 1077.508,1213.463 1118.466,1227.807 "
             id="polygon85"
             style="fill:#f9c321" />
        </g>
      </g>
    </g>
    <g
       transform="translate(-200.05813,-323.26582)"
       id="g87">
      <g
         id="g89">
        <path
           d="m 1095.923,1146.857 c -6.842,-42.127 -38.763,-75.053 -78.478,-80.121 0.01,-0.229 0.023,-0.451 0.023,-0.682 0,-8.723 -4.798,-15.794 -10.717,-15.794 -5.919,0 -10.718,7.071 -10.718,15.794 0,0.23 0.018,0.453 0.023,0.682 -39.715,5.068 -71.635,37.994 -78.477,80.121 -0.585,3.603 -0.983,7.273 -1.191,10.999 l 11.018,0 158.688,0 11.018,0 c -0.206,-3.725 -0.604,-7.396 -1.189,-10.999 z m -167.181,0 c 6.77,-37.166 35.387,-65.855 70.589,-69.424 2.444,-0.246 4.918,-0.38 7.421,-0.38 2.502,0 4.977,0.134 7.42,0.38 35.202,3.568 63.82,32.258 70.589,69.424 l -156.019,0 z"
           id="path91"
           inkscape:connector-curvature="0"
           style="fill:#f9c321" />
      </g>
    </g>
    <g
       transform="translate(-200.05813,-323.26582)"
       id="g133">
      <g
         id="g135">
        <g
           id="g137">
          <path
             d="m 961.489,1124.83 c -0.366,0 -0.737,-0.043 -1.108,-0.135 -2.497,-0.609 -4.026,-3.128 -3.416,-5.623 0.192,-0.792 4.982,-19.48 27.299,-31.322 2.273,-1.205 5.089,-0.341 6.292,1.929 1.205,2.271 0.341,5.088 -1.929,6.293 -18.67,9.905 -22.584,25.155 -22.621,25.308 -0.52,2.124 -2.422,3.55 -4.517,3.55 z"
             id="path139"
             inkscape:connector-curvature="0"
             style="fill:#f9c321" />
        </g>
      </g>
    </g>
  </g>
</svg>
