<?xml version="1.0" encoding="UTF-8" standalone="no"?>
<!-- Created with Inkscape (http://www.inkscape.org/) -->

<svg
   xmlns:dc="http://purl.org/dc/elements/1.1/"
   xmlns:cc="http://creativecommons.org/ns#"
   xmlns:rdf="http://www.w3.org/1999/02/22-rdf-syntax-ns#"
   xmlns:svg="http://www.w3.org/2000/svg"
   xmlns="http://www.w3.org/2000/svg"
   xmlns:sodipodi="http://sodipodi.sourceforge.net/DTD/sodipodi-0.dtd"
   xmlns:inkscape="http://www.inkscape.org/namespaces/inkscape"
   width="44.654045mm"
   height="41.788078mm"
   viewBox="0 0 158.22299 148.06799"
   id="svg4842"
   version="1.1"
   inkscape:version="0.91 r13725">
  <defs
     id="defs4844" />
  <sodipodi:namedview
     id="base"
     pagecolor="#ffffff"
     bordercolor="#666666"
     borderopacity="1.0"
     inkscape:pageopacity="0.0"
     inkscape:pageshadow="2"
     inkscape:zoom="0.35"
     inkscape:cx="79.1115"
     inkscape:cy="74.033995"
     inkscape:document-units="px"
     inkscape:current-layer="layer1"
     showgrid="false"
     fit-margin-top="0"
     fit-margin-left="0"
     fit-margin-right="0"
     fit-margin-bottom="0"
     inkscape:window-width="1600"
     inkscape:window-height="838"
     inkscape:window-x="-8"
     inkscape:window-y="-8"
     inkscape:window-maximized="1" />
  <metadata
     id="metadata4847">
    <rdf:RDF>
      <cc:Work
         rdf:about="">
        <dc:format>image/svg+xml</dc:format>
        <dc:type
           rdf:resource="http://purl.org/dc/dcmitype/StillImage" />
        <dc:title></dc:title>
      </cc:Work>
    </rdf:RDF>
  </metadata>
  <g
     inkscape:label="Layer 1"
     inkscape:groupmode="layer"
     id="layer1"
     transform="translate(-295.8885,-458.3282)">
    <g
       transform="translate(-2491.0625,-408.0448)"
       id="g649">
      <g
         id="g651">
        <path
           d="m 2945.174,1014.441 -158.223,0 0,-148.068 158.223,0 0,148.068 z m -147.223,-10.998 136.223,0 0,-126.069 -136.223,0 0,126.069 z"
           id="path653"
           inkscape:connector-curvature="0"
           style="fill:#f9c321" />
      </g>
    </g>
    <g
       transform="translate(-2491.0625,-408.0448)"
       id="g655">
      <g
         id="g657">
        <rect
           x="2792.4519"
           y="985.25201"
           width="147.222"
           height="23.691"
           id="rect659"
           style="fill:#f9c321" />
      </g>
    </g>
    <g
       transform="translate(-2491.0625,-408.0448)"
       id="g661">
      <g
         id="g663">
        <g
           id="g665">
          <path
             d="m 2824.326,944.216 c -1.023,0 -2.045,-0.41 -2.795,-1.22 l -9.341,-10.09 c -1.353,-1.459 -1.353,-3.714 0,-5.174 l 9.341,-10.087 c 1.429,-1.544 3.838,-1.636 5.381,-0.207 1.543,1.429 1.635,3.837 0.207,5.38 l -6.946,7.502 6.946,7.502 c 1.428,1.542 1.336,3.951 -0.207,5.379 -0.732,0.679 -1.661,1.015 -2.586,1.015 z"
             id="path667"
             inkscape:connector-curvature="0"
             style="fill:#f9c321" />
        </g>
      </g>
    </g>
    <g
       transform="translate(-2491.0625,-408.0448)"
       id="g669">
      <g
         id="g671">
        <g
           id="g673">
          <path
             d="m 2907.799,944.216 c 1.023,0 2.045,-0.41 2.795,-1.22 l 9.341,-10.09 c 1.353,-1.459 1.353,-3.714 0,-5.174 l -9.341,-10.087 c -1.428,-1.544 -3.837,-1.636 -5.381,-0.207 -1.543,1.429 -1.635,3.837 -0.207,5.38 l 6.946,7.502 -6.946,7.502 c -1.428,1.542 -1.336,3.951 0.207,5.379 0.733,0.679 1.661,1.015 2.586,1.015 z"
             id="path675"
             inkscape:connector-curvature="0"
             style="fill:#f9c321" />
        </g>
      </g>
    </g>
  </g>
</svg>
