<?xml version="1.0" encoding="UTF-8" standalone="no"?>
<!-- Created with Inkscape (http://www.inkscape.org/) -->

<svg
   xmlns:dc="http://purl.org/dc/elements/1.1/"
   xmlns:cc="http://creativecommons.org/ns#"
   xmlns:rdf="http://www.w3.org/1999/02/22-rdf-syntax-ns#"
   xmlns:svg="http://www.w3.org/2000/svg"
   xmlns="http://www.w3.org/2000/svg"
   xmlns:sodipodi="http://sodipodi.sourceforge.net/DTD/sodipodi-0.dtd"
   xmlns:inkscape="http://www.inkscape.org/namespaces/inkscape"
   width="51.247944mm"
   height="51.539326mm"
   viewBox="0 0 181.58722 182.61965"
   id="svg2"
   version="1.1"
   inkscape:version="0.91 r13725"
   sodipodi:docname="services-shape.svg">
  <defs
     id="defs4" />
  <sodipodi:namedview
     id="base"
     pagecolor="#ffffff"
     bordercolor="#666666"
     borderopacity="1.0"
     inkscape:pageopacity="0.0"
     inkscape:pageshadow="2"
     inkscape:zoom="0.35"
     inkscape:cx="506.16348"
     inkscape:cy="-196.93764"
     inkscape:document-units="px"
     inkscape:current-layer="layer1"
     showgrid="false"
     fit-margin-top="0"
     fit-margin-left="0"
     fit-margin-right="0"
     fit-margin-bottom="0"
     inkscape:window-width="1600"
     inkscape:window-height="838"
     inkscape:window-x="-8"
     inkscape:window-y="-8"
     inkscape:window-maximized="1" />
  <metadata
     id="metadata7">
    <rdf:RDF>
      <cc:Work
         rdf:about="">
        <dc:format>image/svg+xml</dc:format>
        <dc:type
           rdf:resource="http://purl.org/dc/dcmitype/StillImage" />
        <dc:title></dc:title>
      </cc:Work>
    </rdf:RDF>
  </metadata>
  <g
     inkscape:label="Layer 1"
     inkscape:groupmode="layer"
     id="layer1"
     transform="translate(-1045.9794,-3447.0906)">
    <g
       transform="translate(-2021.7816,1342.0293)"
       id="g1567">
      <g
         id="g1569">
        <path
           d="m 3101.182,2287.681 c -18.428,0 -33.421,-14.994 -33.421,-33.424 0,-18.428 14.993,-33.42 33.421,-33.42 18.428,0 33.421,14.992 33.421,33.42 0,18.43 -14.994,33.424 -33.421,33.424 z m 0,-55.844 c -12.363,0 -22.422,10.057 -22.422,22.42 0,12.365 10.059,22.422 22.422,22.422 12.363,0 22.422,-10.057 22.422,-22.422 0,-12.363 -10.059,-22.42 -22.422,-22.42 z"
           id="path1571"
           inkscape:connector-curvature="0"
           style="fill:#f9c321" />
      </g>
    </g>
    <g
       transform="translate(-2021.7816,1342.0293)"
       id="g1573">
      <g
         id="g1575">
        <polygon
           points="3078.417,2115.414 3072.869,2120.96 3085.523,2142.921 3097.406,2144.421 3134.23,2181.248 3143.733,2170.705 3107.429,2134.402 3105.927,2122.517 3083.967,2109.865 "
           id="polygon1577"
           style="fill:#f9c321" />
      </g>
    </g>
    <g
       transform="translate(-2021.7816,1342.0293)"
       id="g1579">
      <g
         id="g1581">
        <path
           d="m 3213.878,2275.232 c 0.298,0.295 0.799,0.359 1.166,0.359 0.984,0 2.525,-0.49 3.898,-1.863 l 17.545,-17.543 c 1.974,-1.975 2.212,-4.355 1.503,-5.064 l -51.197,-51.197 -23.201,25.021 50.286,50.287 z"
           id="path1583"
           inkscape:connector-curvature="0"
           style="fill:#f9c321" />
      </g>
    </g>
    <g
       transform="translate(-2021.7816,1342.0293)"
       id="g1585">
      <g
         id="g1587">
        <path
           d="m 3245.768,2243.343 -51.49,-51.49 -7.484,8.07 51.197,51.197 c 0.709,0.709 0.471,3.09 -1.503,5.064 l -17.545,17.543 c -1.373,1.373 -2.914,1.863 -3.898,1.863 -0.367,0 -0.868,-0.064 -1.166,-0.359 l -50.286,-50.287 -7.484,8.072 49.992,49.992 c 2.311,2.311 5.486,3.582 8.944,3.582 4.189,0 8.445,-1.854 11.677,-5.086 l 17.544,-17.543 c 2.787,-2.787 4.557,-6.332 4.984,-9.98 0.476,-4.073 -0.793,-7.95 -3.482,-10.638 z"
           id="path1589"
           inkscape:connector-curvature="0"
           style="fill:#f9c321" />
      </g>
    </g>
    <g
       transform="translate(-2021.7816,1342.0293)"
       id="g1591">
      <g
         id="g1593">
        <path
           d="m 3129.103,2249.595 c -0.294,0 -0.587,-0.023 -0.882,-0.07 -1.817,-0.297 -3.366,-1.48 -4.127,-3.158 -3.447,-7.582 -8.869,-15.213 -11.341,-16.018 -2.284,0.646 -4.745,-0.252 -6.073,-2.25 -1.389,-2.088 -1.187,-4.854 0.489,-6.719 l 67.766,-75.182 c 1.509,-1.68 6.769,0.316 8.884,1.104 2.313,0.863 18.927,7.402 20.165,21.783 0.133,1.545 -4.772,7.492 -5.826,8.629 l -65.022,70.119 c -1.049,1.133 -2.516,1.762 -4.033,1.762 z m -14.384,-20.015 c 3.81,3.037 9.373,4.887 11.846,9.168 l 67.144,-72.061 c -1.903,-4.107 -8.773,-7.693 -13.557,-10.012 l -65.433,72.905 z"
           id="path1595"
           inkscape:connector-curvature="0"
           style="fill:#f9c321" />
      </g>
    </g>
    <g
       transform="translate(-2021.7816,1342.0293)"
       id="g1597">
      <g
         id="g1599">
        <path
           d="m 3172.494,2153.515 c -1.581,-3.703 -2.201,-6.555 -2.351,-7.316 0.402,2.664 1.147,5.193 2.351,7.316 z"
           id="path1601"
           inkscape:connector-curvature="0"
           style="fill:#f9c321" />
      </g>
    </g>
    <g
       transform="translate(-2021.7816,1342.0293)"
       id="g1603">
      <g
         id="g1605">
        <path
           d="m 3202.891,2176.701 c -1.729,-0.227 -3.369,-0.539 -4.925,-0.928 1.546,0.484 3.205,0.785 4.925,0.928 z"
           id="path1607"
           inkscape:connector-curvature="0"
           style="fill:#f9c321" />
      </g>
    </g>
    <g
       transform="translate(-2021.7816,1342.0293)"
       id="g1609">
      <g
         id="g1611">
        <path
           d="m 3172.494,2153.515 c 0.304,0.711 0.649,1.457 1.027,2.223 0.172,-0.188 0.271,-0.293 0.271,-0.293 -0.489,-0.59 -0.909,-1.246 -1.298,-1.93 z"
           id="path1613"
           inkscape:connector-curvature="0"
           style="fill:#f9c321" />
      </g>
    </g>
    <g
       transform="translate(-2021.7816,1342.0293)"
       id="g1615">
      <g
         id="g1617">
        <path
           d="m 3203.007,2176.718 -0.012,-0.01 c -0.035,0 -0.07,-0.01 -0.104,-0.01 0.04,0.01 0.076,0.012 0.116,0.018 z"
           id="path1619"
           inkscape:connector-curvature="0"
           style="fill:#f9c321" />
      </g>
    </g>
    <g
       transform="translate(-2021.7816,1342.0293)"
       id="g1621">
      <g
         id="g1623">
        <path
           d="m 3193.708,2174.437 c 1.347,0.508 2.76,0.959 4.258,1.336 -1.396,-0.439 -2.705,-1.016 -3.842,-1.799 0,0 -0.148,0.166 -0.416,0.463 z"
           id="path1625"
           inkscape:connector-curvature="0"
           style="fill:#f9c321" />
      </g>
    </g>
    <g
       transform="translate(-2021.7816,1342.0293)"
       id="g1627">
      <g
         id="g1629">
        <path
           d="m 3170.103,2145.984 c 0,0 0.015,0.086 0.041,0.215 -0.011,-0.07 -0.024,-0.137 -0.034,-0.209 l -0.01,-0.01 z"
           id="path1631"
           inkscape:connector-curvature="0"
           style="fill:#f9c321" />
      </g>
    </g>
    <g
       transform="translate(-2021.7816,1342.0293)"
       id="g1633">
      <g
         id="g1635">
        <path
           d="m 3239.45,2125.14 c -19.918,39.73 -38.5,20.926 -38.5,20.926 0,0 -20.441,-16.764 17.278,-40.27 0,0 -37.465,-7.152 -46.911,23.174 -1.155,3.709 -2.117,10.689 -1.208,17.02 0.01,0.072 0.023,0.139 0.034,0.209 0.149,0.762 0.77,3.613 2.351,7.316 0.389,0.684 0.809,1.34 1.299,1.93 0,0 -0.1,0.105 -0.271,0.293 3.218,6.504 9.243,14.584 20.187,18.699 0.268,-0.297 0.416,-0.463 0.416,-0.463 1.137,0.783 2.445,1.359 3.842,1.799 1.556,0.389 3.196,0.701 4.925,0.928 0.034,0 0.069,0 0.104,0.01 6.628,0.527 13.966,-1.152 17.718,-2.715 29.322,-12.211 18.736,-48.854 18.736,-48.854 z"
           id="path1637"
           inkscape:connector-curvature="0"
           style="fill:#f9c321" />
      </g>
    </g>
  </g>
</svg>
