<?xml version="1.0" encoding="UTF-8" standalone="no"?>
<!-- Created with Inkscape (http://www.inkscape.org/) -->

<svg
   xmlns:dc="http://purl.org/dc/elements/1.1/"
   xmlns:cc="http://creativecommons.org/ns#"
   xmlns:rdf="http://www.w3.org/1999/02/22-rdf-syntax-ns#"
   xmlns:svg="http://www.w3.org/2000/svg"
   xmlns="http://www.w3.org/2000/svg"
   xmlns:sodipodi="http://sodipodi.sourceforge.net/DTD/sodipodi-0.dtd"
   xmlns:inkscape="http://www.inkscape.org/namespaces/inkscape"
   width="52.557083mm"
   height="48.151524mm"
   viewBox="0 0 186.22588 170.61562"
   id="svg8763"
   version="1.1"
   inkscape:version="0.91 r13725"
   sodipodi:docname="setting-shape.svg">
  <defs
     id="defs8765" />
  <sodipodi:namedview
     id="base"
     pagecolor="#ffffff"
     bordercolor="#666666"
     borderopacity="1.0"
     inkscape:pageopacity="0.0"
     inkscape:pageshadow="2"
     inkscape:zoom="0.35"
     inkscape:cx="425.51562"
     inkscape:cy="-205.14769"
     inkscape:document-units="px"
     inkscape:current-layer="layer1"
     showgrid="false"
     borderlayer="true"
     fit-margin-top="0"
     fit-margin-left="0"
     fit-margin-right="0"
     fit-margin-bottom="0"
     inkscape:window-width="1600"
     inkscape:window-height="838"
     inkscape:window-x="-8"
     inkscape:window-y="-8"
     inkscape:window-maximized="1" />
  <metadata
     id="metadata8768">
    <rdf:RDF>
      <cc:Work
         rdf:about="">
        <dc:format>image/svg+xml</dc:format>
        <dc:type
           rdf:resource="http://purl.org/dc/dcmitype/StillImage" />
        <dc:title></dc:title>
      </cc:Work>
    </rdf:RDF>
  </metadata>
  <g
     inkscape:label="Layer 1"
     inkscape:groupmode="layer"
     id="layer1"
     transform="translate(477.65848,-613.74169)">
    <g
       transform="translate(-695.73103,588.74268)"
       id="g4159">
      <g
         id="g4161">
        <path
           style="fill:#f9c321"
           inkscape:connector-curvature="0"
           d="m 402.437,58.346 c -19.917,39.73 -38.498,20.927 -38.498,20.927 0,0 -20.441,-16.765 17.277,-40.27 0,0 -37.465,-7.153 -46.911,23.174 -1.813,5.817 -3.172,19.701 2.476,26.474 0,0 -66.224,72.762 -75.437,85.088 -5.1,6.822 -6.406,12.472 -0.874,18.418 l -0.047,0.05 c 0.115,0.097 0.227,0.173 0.341,0.264 0.102,0.104 0.188,0.208 0.295,0.315 l 0.045,-0.052 c 6.432,4.958 11.935,3.137 18.258,-2.573 11.422,-10.313 77.75,-82.979 77.75,-82.979 7.266,4.996 20.963,2.36 26.589,0.017 29.323,-12.21 18.736,-48.853 18.736,-48.853 z M 270.65,181.623 c -1.843,-1.68 -1.917,-4.598 -0.165,-6.518 1.75,-1.922 4.662,-2.118 6.505,-0.438 1.842,1.679 1.915,4.597 0.165,6.519 -1.751,1.919 -4.662,2.116 -6.505,0.437 z"
           id="path4163" />
      </g>
    </g>
    <g
       transform="translate(-695.73103,588.74268)"
       id="g4165">
      <g
         id="g4167">
        <path
           style="fill:#f9c321"
           inkscape:connector-curvature="0"
           d="m 393.624,173.754 c 2.168,1.776 2.483,4.976 0.706,7.144 l -9.3,11.34 c -1.778,2.169 -4.977,2.484 -7.146,0.706 L 253.579,91.004 c -2.167,-1.776 -2.483,-4.976 -0.705,-7.143 l 9.299,-11.342 c 1.778,-2.168 4.977,-2.483 7.146,-0.705 l 124.305,101.94 z"
           id="path4169" />
      </g>
    </g>
    <g
       transform="translate(-695.73103,588.74268)"
       id="g4171">
      <g
         id="g4173">
        <path
           style="fill:#f9c321"
           inkscape:connector-curvature="0"
           d="m 309.547,44.222 -23.045,-19.223 -18.89,22.648 2.362,1.97 -5.532,3.293 c -12.349,13.958 -16.011,16.859 -39.066,43.934 -22.39,26.292 13.845,52.756 13.845,52.756 -5.948,-23.988 15.94,-35.791 29.589,-53.321 13.597,-17.462 17.548,-25.616 17.548,-25.616 l 1.956,-5.75 2.345,1.956 18.888,-22.647 z"
           id="path4175" />
      </g>
    </g>
  </g>
</svg>
