<?xml version="1.0" encoding="UTF-8" standalone="no"?>
<!-- Created with Inkscape (http://www.inkscape.org/) -->

<svg
   xmlns:dc="http://purl.org/dc/elements/1.1/"
   xmlns:cc="http://creativecommons.org/ns#"
   xmlns:rdf="http://www.w3.org/1999/02/22-rdf-syntax-ns#"
   xmlns:svg="http://www.w3.org/2000/svg"
   xmlns="http://www.w3.org/2000/svg"
   xmlns:sodipodi="http://sodipodi.sourceforge.net/DTD/sodipodi-0.dtd"
   xmlns:inkscape="http://www.inkscape.org/namespaces/inkscape"
   width="49.367287mm"
   height="34.308064mm"
   viewBox="0 0 174.92346 121.564"
   id="svg8827"
   version="1.1"
   inkscape:version="0.91 r13725"
   sodipodi:docname="ship.svg">
  <defs
     id="defs8829" />
  <sodipodi:namedview
     id="base"
     pagecolor="#ffffff"
     bordercolor="#666666"
     borderopacity="1.0"
     inkscape:pageopacity="0.0"
     inkscape:pageshadow="2"
     inkscape:zoom="0.35"
     inkscape:cx="365.31887"
     inkscape:cy="-404.93231"
     inkscape:document-units="px"
     inkscape:current-layer="layer1"
     showgrid="false"
     inkscape:window-width="1600"
     inkscape:window-height="838"
     inkscape:window-x="-8"
     inkscape:window-y="-8"
     inkscape:window-maximized="1"
     fit-margin-top="0"
     fit-margin-left="0"
     fit-margin-right="0"
     fit-margin-bottom="0" />
  <metadata
     id="metadata8832">
    <rdf:RDF>
      <cc:Work
         rdf:about="">
        <dc:format>image/svg+xml</dc:format>
        <dc:type
           rdf:resource="http://purl.org/dc/dcmitype/StillImage" />
        <dc:title></dc:title>
      </cc:Work>
    </rdf:RDF>
  </metadata>
  <g
     inkscape:label="Layer 1"
     inkscape:groupmode="layer"
     id="layer1"
     transform="translate(-9.6811346,-5.8659)">
    <g
       transform="translate(-106.04216,-3058.1001)"
       id="g2029">
      <g
         id="g2031">
        <g
           id="g2033">
          <g
             id="g2035">
            <path
               d="m 145.516,3162.118 c -0.186,0 -0.372,-0.018 -0.561,-0.049 -0.336,-0.055 -33.565,-6.105 -28.756,-49.4 0.189,-1.715 1.64,-3.01 3.364,-3.01 l 156.248,0 c 1.357,0 2.583,0.811 3.114,2.059 0.531,1.248 0.265,2.695 -0.677,3.672 l -37.936,39.396 c -1.297,1.346 -3.439,1.387 -4.785,0.088 -1.347,-1.295 -1.388,-3.438 -0.091,-4.783 l 32.416,-33.664 -145.2,0 c -1.002,14.207 2.51,25.021 10.458,32.174 6.244,5.621 12.891,6.781 12.957,6.795 1.845,0.307 3.09,2.049 2.782,3.893 -0.276,1.655 -1.708,2.829 -3.333,2.829 z"
               id="path2037"
               inkscape:connector-curvature="0"
               style="fill:#9e9d9b" />
          </g>
        </g>
      </g>
      <g
         id="g2039">
        <g
           id="g2041">
          <g
             id="g2043">
            <path
               d="m 237.879,3116.428 c -1.157,0 -2.283,-0.594 -2.915,-1.66 l -12.555,-21.186 -53.914,0 c -1.869,0 -3.385,-1.516 -3.385,-3.385 l 0,-22.844 c 0,-1.869 1.516,-3.387 3.385,-3.387 1.869,0 3.385,1.518 3.385,3.387 l 0,19.459 52.458,0 c 1.195,0 2.302,0.629 2.912,1.658 l 13.537,22.846 c 0.953,1.607 0.422,3.684 -1.187,4.635 -0.54,0.323 -1.134,0.477 -1.721,0.477 z"
               id="path2045"
               inkscape:connector-curvature="0"
               style="fill:#9e9d9b" />
          </g>
        </g>
      </g>
      <g
         id="g2047">
        <g
           id="g2049">
          <g
             id="g2051">
            <path
               d="m 168.495,3079.198 -20.729,0 c -1.869,0 -3.385,-1.516 -3.385,-3.385 0,-1.869 1.516,-3.385 3.385,-3.385 l 20.729,0 c 1.869,0 3.385,1.516 3.385,3.385 0,1.869 -1.516,3.385 -3.385,3.385 z"
               id="path2053"
               inkscape:connector-curvature="0"
               style="fill:#9e9d9b" />
          </g>
        </g>
      </g>
      <g
         id="g2055">
        <g
           id="g2057">
          <g
             id="g2059">
            <path
               d="m 135.844,3185.53 c -4.12,0 -6.944,-2.676 -9.029,-4.648 -1.248,-1.182 -2.538,-2.404 -3.417,-2.406 -1.868,0 -3.381,-1.523 -3.376,-3.393 0.004,-1.865 1.519,-3.377 3.384,-3.377 l 0.009,0 c 3.564,0.01 6.055,2.367 8.055,4.262 1.887,1.785 3.139,2.842 4.525,2.791 1.188,-0.063 1.831,-0.641 3.364,-2.271 1.854,-1.975 4.396,-4.68 9.261,-4.779 1.89,-0.049 3.415,1.443 3.454,3.313 0.038,1.871 -1.443,3.416 -3.313,3.455 -1.937,0.041 -2.815,0.887 -4.468,2.645 -1.659,1.768 -3.932,4.188 -7.943,4.396 -0.171,0.01 -0.34,0.012 -0.506,0.012 z"
               id="path2061"
               inkscape:connector-curvature="0"
               style="fill:#9e9d9b" />
          </g>
        </g>
      </g>
      <g
         id="g2063">
        <g
           id="g2065">
          <g
             id="g2067">
            <path
               d="m 161.127,3185.53 c -4.119,0 -6.943,-2.676 -9.027,-4.646 -1.249,-1.184 -2.539,-2.406 -3.418,-2.408 -1.869,0 -3.381,-1.523 -3.377,-3.393 0.004,-1.865 1.519,-3.377 3.385,-3.377 0.003,0 0.005,0 0.005,0 3.569,0.01 6.059,2.367 8.06,4.264 1.885,1.783 3.132,2.826 4.524,2.789 1.188,-0.063 1.831,-0.641 3.364,-2.271 1.854,-1.975 4.396,-4.68 9.262,-4.779 1.874,-0.049 3.416,1.443 3.454,3.313 0.039,1.871 -1.444,3.416 -3.313,3.455 -1.937,0.041 -2.816,0.889 -4.47,2.646 -1.659,1.766 -3.932,4.186 -7.942,4.395 -0.171,0.01 -0.34,0.012 -0.507,0.012 z"
               id="path2069"
               inkscape:connector-curvature="0"
               style="fill:#9e9d9b" />
          </g>
        </g>
      </g>
      <g
         id="g2071">
        <g
           id="g2073">
          <g
             id="g2075">
            <path
               d="m 186.411,3185.53 c -4.121,0 -6.945,-2.676 -9.028,-4.648 -1.248,-1.184 -2.538,-2.404 -3.415,-2.406 -1.869,0 -3.382,-1.523 -3.377,-3.393 0.004,-1.865 1.519,-3.377 3.384,-3.377 0,0 0.005,0 0.008,0 3.565,0.01 6.055,2.367 8.055,4.262 1.885,1.785 3.126,2.842 4.524,2.791 1.188,-0.063 1.831,-0.641 3.364,-2.271 1.854,-1.975 4.396,-4.68 9.262,-4.779 1.86,-0.049 3.416,1.443 3.454,3.313 0.039,1.871 -1.444,3.416 -3.313,3.455 -1.936,0.041 -2.816,0.887 -4.47,2.646 -1.658,1.766 -3.932,4.186 -7.941,4.395 -0.171,0.01 -0.34,0.012 -0.507,0.012 z"
               id="path2077"
               inkscape:connector-curvature="0"
               style="fill:#9e9d9b" />
          </g>
        </g>
      </g>
      <g
         id="g2079">
        <g
           id="g2081">
          <g
             id="g2083">
            <path
               d="m 211.696,3185.53 c -4.12,0 -6.944,-2.676 -9.03,-4.648 -1.246,-1.182 -2.538,-2.404 -3.415,-2.406 -1.869,0 -3.382,-1.523 -3.378,-3.393 0.005,-1.865 1.52,-3.377 3.384,-3.377 l 0.009,0 c 3.566,0.01 6.056,2.367 8.056,4.262 1.886,1.785 3.133,2.842 4.525,2.791 1.188,-0.063 1.831,-0.641 3.364,-2.271 1.854,-1.975 4.396,-4.68 9.261,-4.779 1.91,-0.049 3.416,1.443 3.454,3.313 0.038,1.871 -1.444,3.416 -3.313,3.455 -1.936,0.041 -2.815,0.887 -4.468,2.645 -1.659,1.768 -3.932,4.188 -7.943,4.396 -0.171,0.01 -0.339,0.012 -0.506,0.012 z"
               id="path2085"
               inkscape:connector-curvature="0"
               style="fill:#9e9d9b" />
          </g>
        </g>
      </g>
      <g
         id="g2087">
        <g
           id="g2089">
          <g
             id="g2091">
            <path
               d="m 236.979,3185.53 c -4.119,0 -6.943,-2.676 -9.027,-4.646 -1.249,-1.184 -2.539,-2.406 -3.418,-2.408 -1.868,0 -3.381,-1.523 -3.377,-3.393 0.005,-1.865 1.519,-3.377 3.385,-3.377 0.002,0 0.005,0 0.005,0 3.569,0.01 6.06,2.367 8.06,4.264 1.885,1.783 3.132,2.826 4.523,2.789 1.189,-0.063 1.832,-0.641 3.364,-2.271 1.855,-1.975 4.396,-4.68 9.264,-4.779 1.894,-0.049 3.415,1.443 3.453,3.313 0.038,1.871 -1.444,3.416 -3.313,3.455 -1.937,0.041 -2.816,0.889 -4.47,2.646 -1.659,1.766 -3.932,4.186 -7.942,4.395 -0.171,0.01 -0.34,0.012 -0.507,0.012 z"
               id="path2093"
               inkscape:connector-curvature="0"
               style="fill:#9e9d9b" />
          </g>
        </g>
      </g>
      <g
         id="g2095">
        <g
           id="g2097">
          <g
             id="g2099">
            <path
               d="m 262.264,3185.53 c -4.12,0 -6.944,-2.676 -9.028,-4.648 -1.248,-1.184 -2.538,-2.404 -3.415,-2.406 -1.87,0 -3.382,-1.523 -3.377,-3.393 0.004,-1.865 1.518,-3.377 3.384,-3.377 0,0 0.005,0 0.008,0 3.565,0.01 6.055,2.367 8.055,4.262 1.884,1.785 3.12,2.842 4.524,2.791 1.189,-0.063 1.831,-0.641 3.364,-2.271 1.854,-1.975 4.396,-4.68 9.263,-4.779 1.879,-0.049 3.414,1.443 3.453,3.313 0.039,1.871 -1.444,3.416 -3.313,3.455 -1.936,0.041 -2.816,0.887 -4.469,2.646 -1.659,1.766 -3.932,4.186 -7.942,4.395 -0.172,0.01 -0.34,0.012 -0.507,0.012 z"
               id="path2101"
               inkscape:connector-curvature="0"
               style="fill:#9e9d9b" />
          </g>
        </g>
      </g>
      <g
         id="g2103">
        <g
           id="g2105">
          <g
             id="g2107">
            <path
               d="m 173.28,3163.506 c -4.12,0 -6.944,-2.674 -9.028,-4.646 -1.248,-1.184 -2.539,-2.406 -3.418,-2.408 -1.869,0 -3.381,-1.521 -3.377,-3.391 0.004,-1.867 1.519,-3.377 3.384,-3.377 l 0.008,0 c 3.567,0.01 6.057,2.365 8.058,4.262 1.885,1.783 3.162,2.834 4.524,2.789 1.188,-0.063 1.83,-0.639 3.363,-2.271 1.854,-1.975 4.396,-4.678 9.263,-4.779 1.907,-0.023 3.416,1.445 3.454,3.314 0.039,1.869 -1.444,3.414 -3.313,3.453 -1.938,0.041 -2.817,0.889 -4.472,2.648 -1.657,1.766 -3.93,4.184 -7.939,4.395 -0.171,0.01 -0.34,0.011 -0.507,0.011 z"
               id="path2109"
               inkscape:connector-curvature="0"
               style="fill:#9e9d9b" />
          </g>
        </g>
      </g>
      <g
         id="g2111">
        <g
           id="g2113">
          <g
             id="g2115">
            <path
               d="m 198.564,3163.506 c -4.121,0 -6.945,-2.674 -9.03,-4.648 -1.247,-1.182 -2.538,-2.404 -3.415,-2.406 -1.869,0 -3.381,-1.521 -3.377,-3.391 0.005,-1.867 1.52,-3.377 3.385,-3.377 l 0.008,0 c 3.564,0.01 6.054,2.365 8.054,4.26 1.886,1.785 3.12,2.836 4.525,2.791 1.188,-0.063 1.831,-0.639 3.362,-2.27 1.855,-1.977 4.396,-4.68 9.263,-4.781 1.895,-0.023 3.417,1.445 3.455,3.314 0.038,1.869 -1.445,3.414 -3.313,3.453 -1.938,0.041 -2.817,0.889 -4.471,2.648 -1.658,1.766 -3.93,4.184 -7.939,4.395 -0.172,0.01 -0.34,0.012 -0.507,0.012 z"
               id="path2117"
               inkscape:connector-curvature="0"
               style="fill:#9e9d9b" />
          </g>
        </g>
      </g>
      <g
         id="g2119">
        <g
           id="g2121">
          <g
             id="g2123">
            <path
               d="m 223.849,3163.506 c -4.12,0 -6.944,-2.674 -9.027,-4.646 -1.249,-1.184 -2.539,-2.406 -3.419,-2.408 -1.869,0 -3.381,-1.521 -3.377,-3.391 0.004,-1.867 1.519,-3.377 3.385,-3.377 0.002,0 0.005,0 0.005,0 3.569,0.01 6.058,2.365 8.061,4.262 1.885,1.783 3.148,2.834 4.523,2.789 1.188,-0.063 1.829,-0.639 3.363,-2.271 1.854,-1.975 4.396,-4.678 9.263,-4.779 1.878,-0.023 3.415,1.445 3.453,3.314 0.04,1.869 -1.443,3.414 -3.313,3.453 -1.937,0.041 -2.818,0.889 -4.471,2.648 -1.658,1.766 -3.931,4.184 -7.94,4.395 -0.17,0.01 -0.339,0.011 -0.506,0.011 z"
               id="path2125"
               inkscape:connector-curvature="0"
               style="fill:#9e9d9b" />
          </g>
        </g>
      </g>
      <g
         id="g2127">
        <g
           id="g2129">
          <g
             id="g2131">
            <path
               d="m 249.133,3163.506 c -4.121,0 -6.945,-2.674 -9.03,-4.648 -1.247,-1.182 -2.537,-2.404 -3.414,-2.406 -1.87,0 -3.382,-1.521 -3.377,-3.391 0.004,-1.867 1.519,-3.377 3.384,-3.377 0,0 0.005,0 0.008,0 3.564,0.01 6.054,2.365 8.056,4.26 1.884,1.785 3.13,2.836 4.524,2.791 1.188,-0.063 1.83,-0.639 3.362,-2.27 1.854,-1.977 4.396,-4.68 9.263,-4.781 1.864,-0.023 3.416,1.445 3.454,3.314 0.039,1.869 -1.444,3.414 -3.313,3.453 -1.937,0.041 -2.817,0.889 -4.47,2.648 -1.659,1.766 -3.93,4.184 -7.94,4.395 -0.172,0.01 -0.34,0.012 -0.507,0.012 z"
               id="path2133"
               inkscape:connector-curvature="0"
               style="fill:#9e9d9b" />
          </g>
        </g>
      </g>
      <g
         id="g2135">
        <g
           id="g2137">
          <g
             id="g2139">
            <path
               d="m 274.415,3163.506 c -4.12,0 -6.944,-2.674 -9.028,-4.648 -1.248,-1.182 -2.539,-2.404 -3.416,-2.406 -1.869,0 -3.381,-1.521 -3.377,-3.391 0.005,-1.867 1.52,-3.377 3.385,-3.377 l 0.008,0 c 3.564,0.01 6.054,2.365 8.055,4.26 1.885,1.785 3.139,2.836 4.525,2.791 1.188,-0.063 1.83,-0.639 3.362,-2.27 1.854,-1.977 4.396,-4.68 9.263,-4.781 1.851,-0.023 3.416,1.445 3.454,3.314 0.039,1.869 -1.444,3.414 -3.313,3.453 -1.937,0.041 -2.817,0.889 -4.47,2.648 -1.659,1.766 -3.93,4.184 -7.941,4.395 -0.171,0.01 -0.34,0.012 -0.507,0.012 z"
               id="path2141"
               inkscape:connector-curvature="0"
               style="fill:#9e9d9b" />
          </g>
        </g>
      </g>
      <g
         id="g2143">
        <g
           id="g2145">
          <g
             id="g2147">
            <path
               d="m 136.135,3116.428 c -0.382,0 -0.769,-0.066 -1.149,-0.201 -1.757,-0.637 -2.669,-2.576 -2.034,-4.336 l 8.046,-22.287 0,-22.25 c 0,-1.869 1.515,-3.387 3.384,-3.387 1.869,0 3.385,1.518 3.385,3.387 l 0,22.844 c 0,0.391 -0.067,0.779 -0.201,1.15 l -8.246,22.844 c -0.5,1.377 -1.799,2.236 -3.185,2.236 z"
               id="path2149"
               inkscape:connector-curvature="0"
               style="fill:#9e9d9b" />
          </g>
        </g>
      </g>
    </g>
  </g>
</svg>
