<?xml version="1.0" encoding="UTF-8" standalone="no"?>
<!-- Created with Inkscape (http://www.inkscape.org/) -->

<svg
   xmlns:dc="http://purl.org/dc/elements/1.1/"
   xmlns:cc="http://creativecommons.org/ns#"
   xmlns:rdf="http://www.w3.org/1999/02/22-rdf-syntax-ns#"
   xmlns:svg="http://www.w3.org/2000/svg"
   xmlns="http://www.w3.org/2000/svg"
   xmlns:sodipodi="http://sodipodi.sourceforge.net/DTD/sodipodi-0.dtd"
   xmlns:inkscape="http://www.inkscape.org/namespaces/inkscape"
   width="210mm"
   height="297mm"
   viewBox="0 0 744.09448819 1052.3622047"
   id="svg8657"
   version="1.1"
   inkscape:version="0.91 r13725">
  <defs
     id="defs8659" />
  <sodipodi:namedview
     id="base"
     pagecolor="#ffffff"
     bordercolor="#666666"
     borderopacity="1.0"
     inkscape:pageopacity="0.0"
     inkscape:pageshadow="2"
     inkscape:zoom="0.35"
     inkscape:cx="352.14286"
     inkscape:cy="542.85714"
     inkscape:document-units="px"
     inkscape:current-layer="layer1"
     showgrid="false"
     inkscape:window-width="1600"
     inkscape:window-height="838"
     inkscape:window-x="-8"
     inkscape:window-y="-8"
     inkscape:window-maximized="1" />
  <metadata
     id="metadata8662">
    <rdf:RDF>
      <cc:Work
         rdf:about="">
        <dc:format>image/svg+xml</dc:format>
        <dc:type
           rdf:resource="http://purl.org/dc/dcmitype/StillImage" />
        <dc:title></dc:title>
      </cc:Work>
    </rdf:RDF>
  </metadata>
  <g
     inkscape:label="Layer 1"
     inkscape:groupmode="layer"
     id="layer1">
    <g
       transform="translate(-3550.4775,-2941.4552)"
       id="g2421">
      <g
         id="g2423">
        <g
           id="g2425">
          <g
             id="g2427">
            <path
               style="fill:#f9c321"
               d="m 3669.32,3148.066 c -11.0827,-5.539 -18.1446,-17.6941 -27.1569,-26.2261 -21.9694,-25.8601 -44.2736,-53.3139 -54.4393,-86.2326 -4.1705,-15.1291 -2.7184,-34.7282 10.9786,-44.5029 17.9582,2.1451 -4.7032,17.5885 -1.3465,28.1289 0.3365,22.3826 13.9528,41.6707 25.7351,59.7243 15.0959,22.0647 33.5248,41.6047 51.619,61.1034 1.6161,3.6738 -1.3745,8.123 -5.39,8.005 z"
               id="path2429"
               inkscape:connector-curvature="0" />
          </g>
        </g>
      </g>
      <g
         id="g2431">
        <g
           id="g2433">
          <g
             id="g2435">
            <path
               style="fill:#f9c321"
               d="m 3718.89,3264.373 c -24.0688,0.781 -44.1108,-18.316 -51.1506,-40.2158 -6.5698,-18.4407 -3.5339,-38.1751 -4.2344,-57.3248 0,-8.9961 0,-17.9923 0,-26.9884 28.2905,-28.8676 56.0419,-59.8536 72.7111,-97.1093 6.1834,-13.7451 8.4951,-32.3457 -3.5041,-43.716 -0.7143,-16.5572 17.9501,-2.5967 18.0066,7.1461 7.5832,24.2029 -5.9854,48.0424 -18.1206,68.1408 -16.2569,25.6401 -36.1849,48.7665 -57.462,70.3464 0.2089,20.7179 -0.4405,41.4689 0.3683,62.1638 2.181,22.3629 18.8578,46.4753 43.3857,45.9272 21.9328,1.1305 42.7306,-15.6089 45.7767,-37.4383 2.8054,-18.6583 -2.7386,-41.9786 -20.9735,-50.9265 -12.9911,-2.46 -27.3745,-13.0672 -24.1878,-27.9698 -0.8406,-9.1498 14.529,-19.375 14.9985,-5.4944 -11.3998,13.7465 6.4228,21.5779 17.4884,24.609 24.3262,15.1573 30.7202,49.8016 20.1606,75.1488 -8.6538,21.1579 -30.7064,34.2958 -53.2629,33.7012 z"
               id="path2437"
               inkscape:connector-curvature="0" />
          </g>
        </g>
      </g>
      <g
         id="g2439">
        <g
           id="g2441">
          <g
             id="g2443">
            <path
               style="fill:#f9c321"
               d="m 3623.295,2971.166 c 5.881,6.1332 -1.6607,14.1183 -7.5731,16.3421 -9.8294,1.6218 -11.3602,-11.7188 -3.7234,-15.618 2.7349,-3.4482 8.1809,-3.9765 11.2965,-0.7241 z"
               id="path2445"
               inkscape:connector-curvature="0" />
          </g>
        </g>
      </g>
      <g
         id="g2447">
        <g
           id="g2449">
          <g
             id="g2451">
            <path
               style="fill:#f9c321"
               d="m 3715.345,2971.166 c -5.8826,6.1329 1.6611,14.1184 7.5734,16.3421 9.8294,1.6227 11.3621,-11.7195 3.7233,-15.6172 -2.7351,-3.4483 -8.1808,-3.9782 -11.2967,-0.7249 z"
               id="path2453"
               inkscape:connector-curvature="0" />
          </g>
        </g>
      </g>
      <g
         id="g2455">
        <g
           id="g2457">
          <g
             id="g2459">
            <path
               style="fill:#f9c321"
               d="m 3708.231,3104.429 c -25.941,0 -51.882,0 -77.823,0 -12.8698,-4.0323 -0.7644,-14.7951 7.7567,-11.63 23.3555,0 46.7109,0 70.0663,0 7.6023,-0.081 7.6028,11.6915 0,11.63 z"
               id="path2461"
               inkscape:connector-curvature="0" />
          </g>
        </g>
      </g>
      <g
         id="g2463">
        <g
           id="g2465">
          <g
             id="g2467">
            <path
               style="fill:#f9c321"
               d="m 3778.151,3108.4641 c 0.7407,15.1895 -18.6486,25.4125 -30.764,16.2278 -12.9616,-7.9662 -10.4471,-29.739 3.9773,-34.5535 12.4188,-5.1984 27.1363,4.8296 26.7867,18.3257 z"
               id="circle2469"
               inkscape:connector-curvature="0" />
          </g>
        </g>
      </g>
    </g>
  </g>
</svg>
