<?xml version="1.0" encoding="UTF-8" standalone="no"?>
<!-- Created with Inkscape (http://www.inkscape.org/) -->

<svg
   xmlns:dc="http://purl.org/dc/elements/1.1/"
   xmlns:cc="http://creativecommons.org/ns#"
   xmlns:rdf="http://www.w3.org/1999/02/22-rdf-syntax-ns#"
   xmlns:svg="http://www.w3.org/2000/svg"
   xmlns="http://www.w3.org/2000/svg"
   xmlns:sodipodi="http://sodipodi.sourceforge.net/DTD/sodipodi-0.dtd"
   xmlns:inkscape="http://www.inkscape.org/namespaces/inkscape"
   width="48.744293mm"
   height="40.451195mm"
   viewBox="0 0 172.716 143.331"
   id="svg5564"
   version="1.1"
   inkscape:version="0.91 r13725">
  <defs
     id="defs5566" />
  <sodipodi:namedview
     id="base"
     pagecolor="#ffffff"
     bordercolor="#666666"
     borderopacity="1.0"
     inkscape:pageopacity="0.0"
     inkscape:pageshadow="2"
     inkscape:zoom="0.35"
     inkscape:cx="86.358"
     inkscape:cy="71.665495"
     inkscape:document-units="px"
     inkscape:current-layer="layer1"
     showgrid="false"
     fit-margin-top="0"
     fit-margin-left="0"
     fit-margin-right="0"
     fit-margin-bottom="0"
     inkscape:window-width="1600"
     inkscape:window-height="838"
     inkscape:window-x="-8"
     inkscape:window-y="-8"
     inkscape:window-maximized="1" />
  <metadata
     id="metadata5569">
    <rdf:RDF>
      <cc:Work
         rdf:about="">
        <dc:format>image/svg+xml</dc:format>
        <dc:type
           rdf:resource="http://purl.org/dc/dcmitype/StillImage" />
        <dc:title></dc:title>
      </cc:Work>
    </rdf:RDF>
  </metadata>
  <g
     inkscape:label="Layer 1"
     inkscape:groupmode="layer"
     id="layer1"
     transform="translate(-288.642,-460.6967)">
    <g
       transform="translate(-259.748,-1660.4483)"
       id="g909">
      <g
         id="g911">
        <path
           d="m 608.886,2201.327 c -22.105,0 -40.09,-17.984 -40.09,-40.092 0,-22.105 17.984,-40.09 40.09,-40.09 22.106,0 40.091,17.984 40.091,40.09 0,22.107 -17.985,40.092 -40.091,40.092 z m 0,-69.184 c -16.041,0 -29.091,13.051 -29.091,29.092 0,16.041 13.05,29.094 29.091,29.094 16.041,0 29.092,-13.053 29.092,-29.094 0,-16.041 -13.051,-29.092 -29.092,-29.092 z"
           id="path913"
           inkscape:connector-curvature="0"
           style="fill:#f9c321" />
      </g>
    </g>
    <g
       transform="translate(-259.748,-1660.4483)"
       id="g915">
      <g
         id="g917">
        <path
           d="m 608.886,2191.174 c -33.357,0 -60.496,27.139 -60.496,60.495 0,0.428 0.023,0.846 0.032,1.27 0.078,3.758 0.483,7.438 1.221,11 l 11.287,0 c -0.904,-3.531 -1.413,-7.215 -1.509,-11 -0.01,-0.422 -0.032,-0.842 -0.032,-1.27 0,-27.292 22.205,-49.497 49.497,-49.497 27.293,0 49.497,22.205 49.497,49.497 0,0.428 -0.021,0.848 -0.032,1.27 -0.096,3.785 -0.604,7.469 -1.509,11 l 11.288,0 c 0.737,-3.563 1.142,-7.242 1.22,-11 0.01,-0.424 0.033,-0.842 0.033,-1.27 0,-33.356 -27.14,-60.495 -60.497,-60.495 z"
           id="path919"
           inkscape:connector-curvature="0"
           style="fill:#f9c321" />
      </g>
    </g>
    <g
       transform="translate(-259.748,-1660.4483)"
       id="g921">
      <g
         id="g923">
        <path
           d="M 656.169,2161.235"
           id="path925"
           inkscape:connector-curvature="0"
           style="fill:#f9c321" />
      </g>
    </g>
    <g
       transform="translate(-259.748,-1660.4483)"
       id="g927">
      <g
         id="g929">
        <path
           d="m 660.61,2201.864 c -3.83,0 -7.641,-0.551 -11.326,-1.635 -2.914,-0.857 -4.581,-3.914 -3.724,-6.828 0.857,-2.916 3.914,-4.586 6.828,-3.723 2.677,0.785 5.443,1.186 8.222,1.186 16.041,0 29.092,-13.051 29.092,-29.092 0,-16.041 -13.051,-29.092 -29.092,-29.092 -2.538,0 -5.071,0.332 -7.528,0.988 -2.936,0.789 -5.949,-0.959 -6.733,-3.895 -0.783,-2.934 0.96,-5.949 3.895,-6.732 3.383,-0.902 6.871,-1.363 10.367,-1.363 22.106,0 40.091,17.986 40.091,40.094 -10e-4,22.105 -17.985,40.092 -40.092,40.092 z"
           id="path931"
           inkscape:connector-curvature="0"
           style="fill:#f9c321" />
      </g>
    </g>
    <g
       transform="translate(-259.748,-1660.4483)"
       id="g933">
      <g
         id="g935">
        <path
           d="m 660.61,2191.709 c -0.312,0 -0.618,0.018 -0.929,0.023 5.169,3.627 1.699,4.736 5.771,9.547 33.315,6.24 44.654,28.127 44.654,50.927 0,0.424 -0.021,0.846 -0.032,1.27 -0.096,3.785 -0.604,7.469 -1.508,11 l 11.287,0 c 0.737,-3.563 1.142,-7.242 1.221,-11 0.009,-0.424 0.032,-0.846 0.032,-1.27 10e-4,-33.358 -27.138,-60.497 -60.496,-60.497 z"
           id="path937"
           inkscape:connector-curvature="0"
           style="fill:#f9c321" />
      </g>
    </g>
  </g>
</svg>
