<?xml version="1.0" encoding="UTF-8" standalone="no"?>
<!-- Created with Inkscape (http://www.inkscape.org/) -->

<svg
   xmlns:dc="http://purl.org/dc/elements/1.1/"
   xmlns:cc="http://creativecommons.org/ns#"
   xmlns:rdf="http://www.w3.org/1999/02/22-rdf-syntax-ns#"
   xmlns:svg="http://www.w3.org/2000/svg"
   xmlns="http://www.w3.org/2000/svg"
   xmlns:sodipodi="http://sodipodi.sourceforge.net/DTD/sodipodi-0.dtd"
   xmlns:inkscape="http://www.inkscape.org/namespaces/inkscape"
   width="46.16626mm"
   height="41.072083mm"
   viewBox="0 0 163.58124 145.531"
   id="svg5452"
   version="1.1"
   inkscape:version="0.91 r13725">
  <defs
     id="defs5454" />
  <sodipodi:namedview
     id="base"
     pagecolor="#ffffff"
     bordercolor="#666666"
     borderopacity="1.0"
     inkscape:pageopacity="0.0"
     inkscape:pageshadow="2"
     inkscape:zoom="0.35"
     inkscape:cx="81.7906"
     inkscape:cy="72.765495"
     inkscape:document-units="px"
     inkscape:current-layer="layer1"
     showgrid="false"
     fit-margin-top="0"
     fit-margin-left="0"
     fit-margin-right="0"
     fit-margin-bottom="0"
     inkscape:window-width="1600"
     inkscape:window-height="838"
     inkscape:window-x="-8"
     inkscape:window-y="-8"
     inkscape:window-maximized="1" />
  <metadata
     id="metadata5457">
    <rdf:RDF>
      <cc:Work
         rdf:about="">
        <dc:format>image/svg+xml</dc:format>
        <dc:type
           rdf:resource="http://purl.org/dc/dcmitype/StillImage" />
        <dc:title></dc:title>
      </cc:Work>
    </rdf:RDF>
  </metadata>
  <g
     inkscape:label="Layer 1"
     inkscape:groupmode="layer"
     id="layer1"
     transform="translate(-293.2094,-459.5967)">
    <g
       transform="translate(-2849.4196,-2069.0513)"
       id="g1163">
      <g
         id="g1165">
        <path
           d="m 3277.097,2594.095 0,58.252 c 0,5.041 -4.1,9.139 -9.139,9.139 l -103.499,0 c -5.04,0 -9.139,-4.098 -9.139,-9.139 l 0,-101.869 c 0,-5.039 4.099,-9.139 9.139,-9.139 l 103.499,0 c 3.469,0 6.491,1.943 8.038,4.797 l 8.37,-8.371 c 0.252,-0.252 0.519,-0.48 0.787,-0.711 -3.998,-5.111 -10.219,-8.406 -17.195,-8.406 l -103.499,0 c -12.036,0 -21.83,9.793 -21.83,21.83 l 0,101.869 c 0,12.039 9.794,21.832 21.83,21.832 l 103.499,0 c 12.037,0 21.83,-9.793 21.83,-21.832 l 0,-70.943 -12.691,12.691 z"
           id="path1167"
           inkscape:connector-curvature="0"
           style="fill:#f9c321" />
      </g>
    </g>
    <g
       transform="translate(-2849.4196,-2069.0513)"
       id="g1169">
      <g
         id="g1171">
        <path
           d="m 3218.416,2643.203 c -3.305,3.307 -9.334,2.637 -13.463,-1.494 l 0,0 c -4.13,-4.131 -4.8,-10.158 -1.494,-13.463 l 85.694,-85.693 c 3.305,-3.307 9.334,-2.637 13.463,1.494 l 0,0 c 4.131,4.129 4.799,10.158 1.494,13.463 l -85.694,85.693 z"
           id="path1173"
           inkscape:connector-curvature="0"
           style="fill:#f9c321" />
      </g>
    </g>
  </g>
</svg>
