<?xml version="1.0" encoding="UTF-8" standalone="no"?>
<!-- Created with Inkscape (http://www.inkscape.org/) -->

<svg
   xmlns:dc="http://purl.org/dc/elements/1.1/"
   xmlns:cc="http://creativecommons.org/ns#"
   xmlns:rdf="http://www.w3.org/1999/02/22-rdf-syntax-ns#"
   xmlns:svg="http://www.w3.org/2000/svg"
   xmlns="http://www.w3.org/2000/svg"
   xmlns:sodipodi="http://sodipodi.sourceforge.net/DTD/sodipodi-0.dtd"
   xmlns:inkscape="http://www.inkscape.org/namespaces/inkscape"
   width="59.37899mm"
   height="44.137016mm"
   viewBox="0 0 210.398 156.391"
   id="svg9424"
   version="1.1"
   inkscape:version="0.91 r13725"
   sodipodi:docname="truck.svg">
  <defs
     id="defs9426" />
  <sodipodi:namedview
     id="base"
     pagecolor="#ffffff"
     bordercolor="#666666"
     borderopacity="1.0"
     inkscape:pageopacity="0.0"
     inkscape:pageshadow="2"
     inkscape:zoom="0.35"
     inkscape:cx="371.34186"
     inkscape:cy="-370.0902"
     inkscape:document-units="px"
     inkscape:current-layer="layer1"
     showgrid="false"
     inkscape:window-width="1600"
     inkscape:window-height="838"
     inkscape:window-x="-8"
     inkscape:window-y="-8"
     inkscape:window-maximized="1"
     fit-margin-top="0"
     fit-margin-left="0"
     fit-margin-right="0"
     fit-margin-bottom="0" />
  <metadata
     id="metadata9429">
    <rdf:RDF>
      <cc:Work
         rdf:about="">
        <dc:format>image/svg+xml</dc:format>
        <dc:type
           rdf:resource="http://purl.org/dc/dcmitype/StillImage" />
        <dc:title></dc:title>
      </cc:Work>
    </rdf:RDF>
  </metadata>
  <g
     inkscape:label="Layer 1"
     inkscape:groupmode="layer"
     id="layer1"
     transform="translate(-3.65814,-5.881)">
    <g
       transform="translate(-955.80386,-3425.406)"
       id="g2229">
      <g
         id="g2231">
        <g
           id="g2233">
          <g
             id="g2235">
            <path
               d="m 1148.125,3499.125 c 0,0 -0.01,0 -0.01,0 l -35.543,0 c -1.87,0 -3.385,-1.516 -3.385,-3.385 l 0,-23.42 c 0,-1.869 1.515,-3.385 3.385,-3.385 l 20.998,0 c 1.171,0 2.258,0.604 2.875,1.6 l 14.378,23.16 c 0.431,0.568 0.686,1.279 0.686,2.045 0,1.87 -1.515,3.385 -3.384,3.385 z m -32.169,-6.769 26.068,0 -10.336,-16.65 -15.732,0 0,16.65 z"
               id="path2237"
               inkscape:connector-curvature="0"
               style="fill:#9e9d9b" />
          </g>
        </g>
      </g>
      <g
         id="g2239">
        <g
           id="g2241">
          <g
             id="g2243">
            <path
               d="m 1120.785,3587.678 c -14.619,0 -26.512,-11.893 -26.512,-26.51 0,-14.619 11.893,-26.512 26.512,-26.512 14.618,0 26.511,11.893 26.511,26.512 0,14.618 -11.893,26.51 -26.511,26.51 z m 0,-46.252 c -10.887,0 -19.742,8.855 -19.742,19.742 0,10.887 8.855,19.742 19.742,19.742 10.887,0 19.742,-8.855 19.742,-19.742 0,-10.887 -8.855,-19.742 -19.742,-19.742 z"
               id="path2245"
               inkscape:connector-curvature="0"
               style="fill:#9e9d9b" />
          </g>
        </g>
      </g>
      <g
         id="g2247">
        <g
           id="g2249">
          <g
             id="g2251">
            <path
               d="m 1007.411,3587.678 c -14.618,0 -26.512,-11.893 -26.512,-26.51 0,-14.619 11.894,-26.512 26.512,-26.512 14.618,0 26.511,11.893 26.511,26.512 0,14.618 -11.893,26.51 -26.511,26.51 z m 0,-46.252 c -10.886,0 -19.743,8.855 -19.743,19.742 0,10.887 8.857,19.742 19.743,19.742 10.886,0 19.742,-8.855 19.742,-19.742 0,-10.887 -8.856,-19.742 -19.742,-19.742 z"
               id="path2253"
               inkscape:connector-curvature="0"
               style="fill:#9e9d9b" />
          </g>
        </g>
      </g>
      <g
         id="g2255">
        <g
           id="g2257">
          <g
             id="g2259">
            <circle
               cx="1007.411"
               cy="3561.168"
               r="8.4610004"
               id="circle2261"
               style="fill:#9e9d9b" />
          </g>
        </g>
      </g>
      <g
         id="g2263">
        <g
           id="g2265">
          <g
             id="g2267">
            <circle
               cx="1120.785"
               cy="3561.168"
               r="8.4610004"
               id="circle2269"
               style="fill:#9e9d9b" />
          </g>
        </g>
      </g>
      <g
         id="g2271">
        <g
           id="g2273">
          <g
             id="g2275">
            <g
               id="g2277">
              <path
                 d="m 1166.475,3559.331 -23.163,0 c -1.575,0 -2.943,-1.088 -3.298,-2.623 -2.077,-8.998 -9.984,-15.281 -19.229,-15.281 -9.245,0 -17.152,6.283 -19.229,15.281 -0.354,1.535 -1.722,2.623 -3.298,2.623 l -68.32,0 c -1.575,0 -2.943,-1.088 -3.297,-2.623 -2.078,-8.998 -9.985,-15.281 -19.229,-15.281 -9.245,0 -17.152,6.283 -19.23,15.281 -0.354,1.535 -1.722,2.623 -3.297,2.623 l -22.038,0 c -1.869,0 -3.385,-1.518 -3.385,-3.387 l 0,-121.274 c 0,-1.869 1.516,-3.383 3.385,-3.383 l 118.453,0 c 1.869,0 3.385,1.514 3.385,3.383 l 0,89.969 7.614,0 0,-67.688 c 0,-1.869 1.516,-3.385 3.385,-3.385 l 43.434,0 c 1.137,0 2.199,0.57 2.825,1.52 l 27.357,41.459 c 0.365,0.555 0.56,1.201 0.56,1.865 l 0,57.533 c -10e-4,1.87 -1.516,3.388 -3.385,3.388 z m -20.612,-6.77 17.227,0 0,-53.135 -25.795,-39.092 -38.227,0 0,67.689 c 0,1.869 -1.516,3.385 -3.385,3.385 l -14.383,0 c -1.869,0 -3.385,-1.516 -3.385,-3.385 l 0,-89.969 -111.686,0 0,114.506 16.103,0 c 3.628,-10.666 13.584,-17.904 25.079,-17.904 11.495,0 21.451,7.236 25.078,17.904 l 63.218,0 c 3.627,-10.668 13.583,-17.904 25.078,-17.904 11.495,0 21.45,7.237 25.078,17.905 z"
                 id="path2279"
                 inkscape:connector-curvature="0"
                 style="fill:#9e9d9b" />
            </g>
          </g>
        </g>
      </g>
    </g>
  </g>
</svg>
