<?xml version="1.0" encoding="UTF-8" standalone="no"?>
<!-- Created with Inkscape (http://www.inkscape.org/) -->

<svg
   xmlns:dc="http://purl.org/dc/elements/1.1/"
   xmlns:cc="http://creativecommons.org/ns#"
   xmlns:rdf="http://www.w3.org/1999/02/22-rdf-syntax-ns#"
   xmlns:svg="http://www.w3.org/2000/svg"
   xmlns="http://www.w3.org/2000/svg"
   xmlns:sodipodi="http://sodipodi.sourceforge.net/DTD/sodipodi-0.dtd"
   xmlns:inkscape="http://www.inkscape.org/namespaces/inkscape"
   width="43.399845mm"
   height="31.042185mm"
   viewBox="0 0 153.77899 109.99199"
   id="svg2"
   version="1.1"
   inkscape:version="0.91 r13725"
   sodipodi:docname="upgrades-shape.svg">
  <defs
     id="defs4" />
  <sodipodi:namedview
     id="base"
     pagecolor="#ffffff"
     bordercolor="#666666"
     borderopacity="1.0"
     inkscape:pageopacity="0.0"
     inkscape:pageshadow="2"
     inkscape:zoom="0.35"
     inkscape:cx="-938.91585"
     inkscape:cy="911.75253"
     inkscape:document-units="px"
     inkscape:current-layer="layer1"
     showgrid="false"
     fit-margin-top="0"
     fit-margin-left="0"
     fit-margin-right="0"
     fit-margin-bottom="0"
     inkscape:window-width="1600"
     inkscape:window-height="838"
     inkscape:window-x="-8"
     inkscape:window-y="-8"
     inkscape:window-maximized="1" />
  <metadata
     id="metadata7">
    <rdf:RDF>
      <cc:Work
         rdf:about="">
        <dc:format>image/svg+xml</dc:format>
        <dc:type
           rdf:resource="http://purl.org/dc/dcmitype/StillImage" />
        <dc:title></dc:title>
      </cc:Work>
    </rdf:RDF>
  </metadata>
  <g
     inkscape:label="Layer 1"
     inkscape:groupmode="layer"
     id="layer1"
     transform="translate(-1313.9159,-3276.9799)">
    <g
       transform="translate(702.82291,1943.3129)"
       id="g1525">
      <g
         id="g1527">
        <path
           d="m 746.681,1380.201 c 10.153,0.211 17.134,-2.855 18.191,-13.115 0,0 -15.547,9.943 -18.614,3.808 -1.187,-2.371 -0.846,-8.884 7.192,-11.634 0,0 -19.249,0.148 -27.922,8.641 0,0 -0.155,-8.581 5.422,-10.408 5.577,-1.828 21.23,-10.078 19.961,-23.826 0,0 -8.461,18.402 -31.94,14.172 0,0 -13.677,-7.117 -28.867,-6.234 17.578,9.379 29.572,27.898 29.572,49.174 0,21.282 -12.002,39.807 -29.588,49.182 l 6.885,-0.107 c 0,0 33.844,0.424 41.036,0 7.191,-0.424 11.104,-5.182 10.999,-13.114 0,0 -8.778,7.191 -22.21,2.115 0,0 8.672,-19.249 30.036,-8.673 0,0 -5.923,-13.748 -26.863,-10.576 0,0 0.211,-9.096 6.98,-9.943 6.769,-0.844 16.287,-0.104 18.932,-7.402 0,0 -21.894,6.153 -21.894,-5.287 0,-2.861 2.538,-6.984 12.692,-6.773 z"
           id="path1529"
           inkscape:connector-curvature="0"
           style="fill:#f9c321" />
      </g>
    </g>
    <g
       transform="translate(702.82291,1943.3129)"
       id="g1531">
      <g
         id="g1533">
        <path
           d="m 663.975,1337.896 c -29.206,0 -52.882,23.676 -52.882,52.881 0,29.206 23.676,52.882 52.882,52.882 29.205,0 52.881,-23.676 52.881,-52.882 -10e-4,-29.205 -23.676,-52.881 -52.881,-52.881 z m 0,98.147 c -25,0 -45.267,-20.267 -45.267,-45.266 0,-25 20.267,-45.266 45.267,-45.266 24.999,0 45.267,20.266 45.267,45.266 -10e-4,24.999 -20.268,45.266 -45.267,45.266 z"
           id="path1535"
           inkscape:connector-curvature="0"
           style="fill:#f9c321" />
      </g>
    </g>
    <g
       transform="translate(702.82291,1943.3129)"
       id="g1537">
      <g
         id="g1539">
        <path
           d="m 663.975,1350.739 c -22.113,0 -40.039,17.927 -40.039,40.038 0,22.111 17.926,40.039 40.039,40.039 22.113,0 40.038,-17.928 40.038,-40.039 0,-22.111 -17.925,-40.038 -40.038,-40.038 z m 29.652,20.796 -21.996,10.54 c -1.337,-1.177 -2.945,-2.047 -4.723,-2.511 l 0,-24.34 c 10.955,2.128 20.053,7.889 26.719,16.311 z m -32.587,-16.31 0,24.34 c -1.776,0.464 -3.385,1.334 -4.723,2.511 l -21.996,-10.54 c 6.667,-8.423 15.764,-14.184 26.719,-16.311 z m -32.061,35.552 c 0,-5.441 0.954,-10.661 2.696,-15.504 l 20.898,13.389 c -0.126,0.687 -0.201,1.392 -0.201,2.115 0,0.725 0.075,1.43 0.201,2.117 l -20.898,13.389 c -1.742,-4.844 -2.696,-10.062 -2.696,-15.506 z m 5.342,19.487 22.171,-10.626 c 1.301,1.101 2.85,1.909 4.548,2.354 l 0,24.581 c -10.955,-2.128 -20.052,-7.889 -26.719,-16.309 z m 32.587,16.308 0,-24.581 c 1.699,-0.444 3.248,-1.253 4.549,-2.354 l 22.17,10.626 c -6.666,8.421 -15.764,14.182 -26.719,16.309 z m 8.467,-33.677 c 0.127,-0.688 0.202,-1.393 0.202,-2.117 0,-0.724 -0.075,-1.429 -0.202,-2.115 l 20.899,-13.389 c 1.741,4.843 2.696,10.063 2.696,15.504 0,5.443 -0.955,10.662 -2.696,15.506 l -20.899,-13.389 z"
           id="path1541"
           inkscape:connector-curvature="0"
           style="fill:#f9c321" />
      </g>
    </g>
  </g>
</svg>
