<?xml version="1.0" encoding="UTF-8" standalone="no"?>
<!-- Created with Inkscape (http://www.inkscape.org/) -->

<svg
   xmlns:dc="http://purl.org/dc/elements/1.1/"
   xmlns:cc="http://creativecommons.org/ns#"
   xmlns:rdf="http://www.w3.org/1999/02/22-rdf-syntax-ns#"
   xmlns:svg="http://www.w3.org/2000/svg"
   xmlns="http://www.w3.org/2000/svg"
   xmlns:sodipodi="http://sodipodi.sourceforge.net/DTD/sodipodi-0.dtd"
   xmlns:inkscape="http://www.inkscape.org/namespaces/inkscape"
   width="128.66212mm"
   height="128.4286mm"
   viewBox="0 0 455.88942 455.06198"
   id="svg5128"
   version="1.1"
   inkscape:version="0.91 r13725">
  <defs
     id="defs5130" />
  <sodipodi:namedview
     id="base"
     pagecolor="#ffffff"
     bordercolor="#666666"
     borderopacity="1.0"
     inkscape:pageopacity="0.0"
     inkscape:pageshadow="2"
     inkscape:zoom="0.35"
     inkscape:cx="227.94471"
     inkscape:cy="227.531"
     inkscape:document-units="px"
     inkscape:current-layer="layer1"
     showgrid="false"
     fit-margin-top="0"
     fit-margin-left="0"
     fit-margin-right="0"
     fit-margin-bottom="0"
     inkscape:window-width="1600"
     inkscape:window-height="838"
     inkscape:window-x="-8"
     inkscape:window-y="-8"
     inkscape:window-maximized="1" />
  <metadata
     id="metadata5133">
    <rdf:RDF>
      <cc:Work
         rdf:about="">
        <dc:format>image/svg+xml</dc:format>
        <dc:type
           rdf:resource="http://purl.org/dc/dcmitype/StillImage" />
        <dc:title></dc:title>
      </cc:Work>
    </rdf:RDF>
  </metadata>
  <g
     inkscape:label="Layer 1"
     inkscape:groupmode="layer"
     id="layer1"
     transform="translate(-147.05529,-304.8312)">
    <g
       transform="translate(-2029.9723,-1050.1248)"
       id="g1145">
      <g
         id="g1147">
        <path
           d="m 2627.727,1549.91 c 3.651,-1.531 5.753,-5.391 5.058,-9.287 -5.29,-29.684 -16.198,-57.678 -32.419,-83.205 -1.598,-2.514 -4.329,-3.923 -7.146,-3.923 -1.208,0 -2.434,0.26 -3.592,0.805 -13.723,6.446 -26.746,9.854 -37.662,9.854 -9.651,0 -17.152,-2.604 -22.296,-7.738 -11.113,-11.096 -10.353,-33.521 2.036,-59.986 1.805,-3.855 0.463,-8.452 -3.132,-10.732 -22.861,-14.497 -47.84,-24.773 -74.245,-30.546 -0.605,-0.133 -1.211,-0.196 -1.811,-0.196 -3.438,0 -6.619,2.105 -7.895,5.431 -9.938,25.89 -24.892,41.349 -40.002,41.349 -15.111,0 -30.064,-15.459 -40,-41.349 -1.275,-3.325 -4.456,-5.431 -7.895,-5.431 -0.599,0 -1.206,0.063 -1.812,0.196 -26.406,5.772 -51.386,16.049 -74.246,30.546 -3.595,2.28 -4.937,6.877 -3.131,10.732 12.389,26.465 13.149,48.889 2.036,59.986 -5.143,5.134 -12.645,7.738 -22.296,7.738 -10.914,0 -23.938,-3.408 -37.662,-9.854 -1.158,-0.545 -2.383,-0.805 -3.593,-0.805 -2.816,0 -5.549,1.409 -7.146,3.923 -14.521,22.851 -24.823,47.825 -30.621,74.232 -0.847,3.859 1.089,7.791 4.666,9.473 22.942,10.781 36.308,25.66 35.753,39.8 -0.542,13.769 -13.786,26.859 -36.339,35.919 -3.768,1.514 -5.929,5.49 -5.149,9.477 5.395,27.56 15.671,53.65 30.543,77.542 1.574,2.528 4.317,3.993 7.184,3.993 0.805,0 1.619,-0.117 2.421,-0.355 9.459,-2.826 18.262,-4.257 26.165,-4.257 8.525,0 20.135,1.751 27.027,10.103 8.256,10.002 7.677,27.39 -1.59,47.704 -1.691,3.71 -0.496,8.101 2.844,10.44 24.536,17.193 51.717,29.294 80.783,35.967 0.634,0.145 1.268,0.215 1.896,0.215 3.203,0 6.205,-1.826 7.633,-4.818 9.813,-20.563 22.986,-32.355 36.143,-32.355 13.692,0 27.235,12.59 37.159,34.542 1.387,3.067 4.429,4.978 7.707,4.978 0.479,0 0.966,-0.043 1.451,-0.126 29.54,-5.133 57.436,-15.823 82.91,-31.776 3.75,-2.349 5.058,-7.189 2.999,-11.105 -11.889,-22.629 -13.577,-42.689 -4.517,-53.664 6.89,-8.349 18.497,-10.101 27.022,-10.101 10.572,0 23.039,2.642 36.051,7.636 0.99,0.381 2.017,0.563 3.029,0.563 2.8,0 5.502,-1.394 7.1,-3.854 14.271,-21.984 24.62,-46.02 30.758,-71.439 0.966,-4.002 -1.087,-8.117 -4.865,-9.751 -22.535,-9.749 -35.533,-23.304 -35.659,-37.187 -0.131,-14.485 14.204,-29.177 38.347,-39.304 z m -46.806,39.379 c 0.164,18.081 15.952,34.141 40.761,44.873 -5.992,24.814 -16.123,48.011 -29.63,68.819 -31.325,-12.028 -59.284,-11.194 -72.631,4.976 -11.892,14.404 -9.632,37.892 3.552,62.984 -23.955,15.002 -50.954,25.588 -79.867,30.611 -10.951,-24.226 -26.992,-39.517 -44.869,-39.517 -17.293,0 -32.866,14.308 -43.778,37.173 -28.39,-6.518 -54.708,-18.453 -77.821,-34.648 10.33,-22.652 11.293,-43.427 0.415,-56.604 -11.836,-14.34 -35.162,-16.622 -62.138,-8.566 -14.026,-22.533 -24.148,-47.746 -29.423,-74.697 24.86,-9.986 40.933,-25.484 41.639,-43.438 0.729,-18.574 -15.136,-35.82 -40.608,-47.79 5.662,-25.789 15.771,-49.907 29.497,-71.509 28.783,13.522 55.231,14.728 69.533,0.446 14.306,-14.281 13.138,-40.746 -0.351,-69.561 21.607,-13.703 45.731,-23.787 71.521,-29.426 10.897,28.398 28.296,46.778 47.899,46.778 19.603,0 37.002,-18.38 47.9,-46.778 25.789,5.639 49.912,15.723 71.521,29.426 -13.488,28.814 -14.657,55.279 -0.351,69.561 14.302,14.281 40.75,13.076 69.533,-0.446 15.249,23.999 26.052,51.101 31.23,80.151 -26.686,11.193 -43.707,28.235 -43.534,47.182 z"
           id="path1149"
           inkscape:connector-curvature="0"
           style="fill:#f9c321" />
      </g>
    </g>
  </g>
</svg>
